<svg width="76" height="22" viewBox="0 0 76 22" fill="none" xmlns="http://www.w3.org/2000/svg">
<path d="M31 16.0605H32.266C32.5279 16.0605 32.7382 16.1296 32.893 16.2678C33.0438 16.406 33.1192 16.5961 33.1192 16.838C33.1192 17.0108 33.0755 17.162 32.9922 17.2873C32.9049 17.3996 32.7898 17.4816 32.6469 17.5335C32.8335 17.568 32.9763 17.6544 33.0795 17.784C33.1827 17.9136 33.2383 18.0778 33.2383 18.2851C33.2383 18.5875 33.139 18.8121 32.9446 18.959C32.7779 19.0799 32.5477 19.1447 32.258 19.1447H31V16.0605ZM31.3254 16.3585V17.4082H32.1866C32.385 17.4082 32.5358 17.3607 32.639 17.2743C32.7422 17.1836 32.7977 17.0497 32.7977 16.8726C32.7977 16.6998 32.7462 16.5702 32.643 16.4838C32.5398 16.3974 32.389 16.3585 32.1906 16.3585H31.3254ZM31.3254 17.7019V18.8467H32.2302C32.4287 18.8467 32.5834 18.8035 32.7025 18.7257C32.8414 18.6307 32.9128 18.4795 32.9128 18.2808C32.9128 18.0821 32.8493 17.9352 32.7303 17.8402C32.6152 17.7451 32.4485 17.7019 32.2302 17.7019H31.3254Z" fill="black"/>
<path d="M33.7096 16H34.0231V19.1447H33.7096V16Z" fill="black"/>
<path d="M35.4968 16.851C35.8024 16.851 36.0484 16.9633 36.231 17.1965C36.4056 17.4168 36.4929 17.6933 36.4929 18.0302C36.4929 18.3629 36.4056 18.6393 36.2349 18.8553C36.0484 19.0886 35.8024 19.2052 35.4968 19.2052C35.1872 19.2052 34.9452 19.0886 34.7626 18.8553C34.588 18.6393 34.5007 18.3629 34.5007 18.0302C34.5007 17.6933 34.588 17.4168 34.7626 17.1965C34.9452 16.9633 35.1872 16.851 35.4968 16.851ZM35.4968 17.1404C35.2785 17.1404 35.1079 17.2311 34.9888 17.4125C34.8777 17.5767 34.8261 17.7797 34.8261 18.0302C34.8261 18.2765 34.8777 18.4795 34.9888 18.6436C35.1079 18.8251 35.2785 18.9158 35.4968 18.9158C35.7111 18.9158 35.8817 18.8251 36.0087 18.6436C36.1159 18.4795 36.1714 18.2721 36.1714 18.0302C36.1714 17.7797 36.1159 17.5767 36.0087 17.4125C35.8817 17.2311 35.7111 17.1404 35.4968 17.1404Z" fill="black"/>
<path d="M37.7904 16.851C38.0443 16.851 38.2467 16.9158 38.4015 17.0454C38.5603 17.1793 38.6555 17.3823 38.6912 17.6544H38.3777C38.3499 17.4816 38.2864 17.3521 38.1872 17.2657C38.084 17.1793 37.9531 17.1404 37.7904 17.1404C37.5919 17.1404 37.4332 17.2225 37.3181 17.3866C37.207 17.5464 37.1514 17.7624 37.1514 18.0346C37.1514 18.3067 37.203 18.5227 37.3141 18.6782C37.4213 18.8337 37.58 18.9158 37.7864 18.9158C38.1356 18.9158 38.338 18.7214 38.3856 18.3369H38.7031C38.6555 18.622 38.5563 18.8423 38.3975 18.9892C38.2428 19.1317 38.0404 19.2052 37.7864 19.2052C37.4768 19.2052 37.2387 19.0929 37.0681 18.8683C36.9054 18.6566 36.826 18.3801 36.826 18.0389C36.826 17.6976 36.9054 17.4212 37.0681 17.2052C37.2427 16.9676 37.4848 16.851 37.7904 16.851Z" fill="black"/>
<path d="M39.0757 16H39.3932V17.9482L40.421 16.9114H40.8417L39.9368 17.8099L40.929 19.1447H40.5202L39.7186 18.0346L39.3932 18.3542V19.1447H39.0757V16Z" fill="black"/>
<path d="M42.0612 16.851C42.3152 16.851 42.5176 16.9158 42.6723 17.0454C42.8311 17.1793 42.9263 17.3823 42.9621 17.6544H42.6485C42.6208 17.4816 42.5573 17.3521 42.458 17.2657C42.3549 17.1793 42.2239 17.1404 42.0612 17.1404C41.8628 17.1404 41.704 17.2225 41.5889 17.3866C41.4778 17.5464 41.4223 17.7624 41.4223 18.0346C41.4223 18.3067 41.4738 18.5227 41.585 18.6782C41.6921 18.8337 41.8509 18.9158 42.0572 18.9158C42.4065 18.9158 42.6089 18.7214 42.6565 18.3369H42.974C42.9263 18.622 42.8271 18.8423 42.6684 18.9892C42.5136 19.1317 42.3112 19.2052 42.0572 19.2052C41.7477 19.2052 41.5096 19.0929 41.3389 18.8683C41.1762 18.6566 41.0968 18.3801 41.0968 18.0389C41.0968 17.6976 41.1762 17.4212 41.3389 17.2052C41.5135 16.9676 41.7556 16.851 42.0612 16.851Z" fill="black"/>
<path d="M43.3465 16H43.664V17.2786C43.7354 17.1361 43.8307 17.0281 43.9497 16.9546C44.0608 16.8855 44.1839 16.851 44.3228 16.851C44.5609 16.851 44.7474 16.9244 44.8744 17.0799C45.0014 17.2311 45.0649 17.4514 45.0649 17.7365V19.1447H44.7474V17.7883C44.7474 17.581 44.6998 17.4212 44.6125 17.3089C44.5172 17.1965 44.3863 17.1404 44.2156 17.1404C44.0569 17.1404 43.9259 17.2095 43.8227 17.3477C43.7156 17.486 43.664 17.6631 43.664 17.8704V19.1447H43.3465V16Z" fill="black"/>
<path d="M46.4446 16.851C46.7383 16.851 46.9526 16.933 47.0954 17.1015C47.2145 17.2484 47.278 17.4514 47.278 17.7106V19.1447H46.9804V18.7689C46.901 18.8898 46.7938 18.9892 46.6668 19.067C46.516 19.1577 46.3454 19.2052 46.1549 19.2052C45.9485 19.2052 45.7858 19.149 45.6628 19.0367C45.5358 18.9201 45.4723 18.7689 45.4723 18.5875C45.4723 18.3326 45.5636 18.1425 45.7541 18.013C45.9208 17.892 46.1589 17.8272 46.4684 17.8229L46.9605 17.8143V17.6976C46.9605 17.3218 46.7819 17.1361 46.4248 17.1361C46.274 17.1361 46.1509 17.1663 46.0557 17.2354C45.9485 17.3045 45.8811 17.4125 45.8493 17.5551L45.5358 17.5292C45.5795 17.2959 45.6866 17.1188 45.8533 17.0065C46.0041 16.9028 46.1986 16.851 46.4446 16.851ZM46.9605 18.0734L46.4883 18.0821C46.0279 18.0907 45.7977 18.2549 45.7977 18.5788C45.7977 18.6825 45.8334 18.7646 45.9128 18.8337C45.9922 18.8985 46.0954 18.933 46.2224 18.933C46.4168 18.933 46.5875 18.8639 46.7383 18.7257C46.8851 18.5918 46.9605 18.4363 46.9605 18.2635V18.0734Z" fill="black"/>
<path d="M48.0304 16.0691C48.0979 16.0691 48.1534 16.0907 48.2011 16.1425C48.2487 16.1857 48.2725 16.2462 48.2725 16.324C48.2725 16.3974 48.2487 16.4579 48.2011 16.5097C48.1534 16.5572 48.0979 16.5832 48.0304 16.5832C47.9629 16.5832 47.9074 16.5572 47.8598 16.5097C47.8121 16.4579 47.7923 16.3974 47.7923 16.324C47.7923 16.2462 47.8121 16.1857 47.8598 16.1425C47.9074 16.0907 47.9629 16.0691 48.0304 16.0691ZM47.8717 16.9114H48.1891V19.1447H47.8717V16.9114Z" fill="black"/>
<path d="M49.7443 16.851C50.2522 16.851 50.5102 17.1577 50.5102 17.7711V19.1447H50.1927V17.797C50.1927 17.3607 50.0101 17.1447 49.653 17.1447C49.5101 17.1447 49.3871 17.2009 49.2839 17.3132C49.1728 17.4341 49.1133 17.594 49.1014 17.797V19.1447H48.7839V16.9114H49.1014V17.2397C49.1728 17.1145 49.2641 17.0194 49.3752 16.9546C49.4863 16.8855 49.6093 16.851 49.7443 16.851Z" fill="black"/>
<path d="M53.3144 16C53.6318 16 53.8858 16.0778 54.0684 16.2376C54.2589 16.4017 54.366 16.6479 54.3938 16.9719H54.0724C54.0366 16.7473 53.9573 16.5832 53.8342 16.4752C53.7072 16.3629 53.5287 16.311 53.2985 16.311C53.0882 16.311 52.9254 16.3456 52.8064 16.4233C52.6715 16.5097 52.604 16.6393 52.604 16.8164C52.604 16.9719 52.6834 17.0972 52.8461 17.1922C52.9175 17.2354 53.0921 17.3002 53.366 17.3866C53.739 17.5076 53.985 17.6069 54.1041 17.6847C54.3382 17.8402 54.4573 18.0562 54.4573 18.3369C54.4573 18.6048 54.3581 18.8207 54.1597 18.9762C53.9612 19.1274 53.6953 19.2052 53.358 19.2052C53.0247 19.2052 52.7627 19.1274 52.5722 18.9719C52.35 18.7862 52.227 18.5054 52.2032 18.1253H52.5246C52.5524 18.3931 52.6397 18.5918 52.7826 18.7171C52.9135 18.8294 53.104 18.8898 53.358 18.8898C53.5882 18.8898 53.7787 18.8423 53.9215 18.7473C54.0644 18.6523 54.1358 18.5227 54.1358 18.3585C54.1358 18.1641 54.0406 18.013 53.8541 17.905C53.7747 17.8531 53.5723 17.7797 53.2548 17.6803C52.9135 17.568 52.6953 17.4816 52.604 17.4298C52.3857 17.2916 52.2786 17.0929 52.2786 16.8337C52.2786 16.5659 52.3818 16.3542 52.5921 16.2073C52.7786 16.0691 53.0207 16 53.3144 16Z" fill="black"/>
<path d="M55.675 16.851C56.0044 16.851 56.2544 16.9719 56.4211 17.2138C56.5719 17.4298 56.6513 17.7365 56.6592 18.1253H55.04C55.0559 18.3758 55.1154 18.5702 55.2265 18.7084C55.3377 18.8467 55.4924 18.9158 55.6869 18.9158C55.8536 18.9158 55.9925 18.8683 56.0957 18.7775C56.183 18.6998 56.2504 18.5832 56.302 18.4276H56.6195C56.5719 18.6436 56.4806 18.8164 56.3417 18.9546C56.1711 19.1188 55.9528 19.2052 55.6869 19.2052C55.3932 19.2052 55.1551 19.0972 54.9805 18.8898C54.7979 18.6739 54.7106 18.3888 54.7106 18.0259C54.7106 17.6976 54.794 17.4212 54.9686 17.2009C55.1432 16.9676 55.3774 16.851 55.675 16.851ZM55.6829 17.1404C55.5004 17.1404 55.3535 17.2052 55.2424 17.3348C55.1313 17.4644 55.0678 17.6371 55.048 17.8575H56.3298C56.2901 17.378 56.0718 17.1404 55.6829 17.1404Z" fill="black"/>
<path d="M57.916 16.851C58.17 16.851 58.3724 16.9158 58.5271 17.0454C58.6859 17.1793 58.7811 17.3823 58.8168 17.6544H58.5033C58.4755 17.4816 58.412 17.3521 58.3128 17.2657C58.2097 17.1793 58.0787 17.1404 57.916 17.1404C57.7176 17.1404 57.5588 17.2225 57.4437 17.3866C57.3326 17.5464 57.277 17.7624 57.277 18.0346C57.277 18.3067 57.3286 18.5227 57.4398 18.6782C57.5469 18.8337 57.7056 18.9158 57.912 18.9158C58.2612 18.9158 58.4636 18.7214 58.5113 18.3369H58.8287C58.7811 18.622 58.6819 18.8423 58.5232 18.9892C58.3684 19.1317 58.166 19.2052 57.912 19.2052C57.6025 19.2052 57.3644 19.0929 57.1937 18.8683C57.031 18.6566 56.9516 18.3801 56.9516 18.0389C56.9516 17.6976 57.031 17.4212 57.1937 17.2052C57.3683 16.9676 57.6104 16.851 57.916 16.851Z" fill="black"/>
<path d="M59.2013 16.9114H59.5188V18.2765C59.5188 18.4881 59.5585 18.6479 59.6418 18.7516C59.7251 18.8553 59.8601 18.9114 60.0466 18.9114C60.1815 18.9114 60.3045 18.851 60.4117 18.7387C60.5228 18.6177 60.5903 18.4622 60.6141 18.2721V16.9114H60.9316V19.1447H60.6141V18.7991C60.4474 19.067 60.2252 19.2052 59.9474 19.2052C59.4473 19.2052 59.2013 18.8985 59.2013 18.2937V16.9114Z" fill="black"/>
<path d="M62.3228 16.851C62.4339 16.851 62.5292 16.8683 62.6046 16.9028V17.2484C62.5014 17.2138 62.3982 17.2009 62.299 17.2009C62.1403 17.2009 62.0053 17.2743 61.8982 17.4298C61.7871 17.5767 61.7355 17.7538 61.7355 17.9611V19.1447H61.422V16.9114H61.7355V17.3002C61.791 17.1706 61.8625 17.067 61.9498 16.9935C62.0569 16.8985 62.18 16.851 62.3228 16.851Z" fill="black"/>
<path d="M63.1333 16.0691C63.2008 16.0691 63.2564 16.0907 63.304 16.1425C63.3516 16.1857 63.3754 16.2462 63.3754 16.324C63.3754 16.3974 63.3516 16.4579 63.304 16.5097C63.2564 16.5572 63.2008 16.5832 63.1333 16.5832C63.0659 16.5832 63.0103 16.5572 62.9627 16.5097C62.9151 16.4579 62.8952 16.3974 62.8952 16.324C62.8952 16.2462 62.9151 16.1857 62.9627 16.1425C63.0103 16.0907 63.0659 16.0691 63.1333 16.0691ZM62.9746 16.9114H63.2921V19.1447H62.9746V16.9114Z" fill="black"/>
<path d="M64.4345 16.1901V16.9114H64.9424V17.2009H64.4345V18.622C64.4345 18.7041 64.4464 18.7646 64.4781 18.7991C64.5059 18.8337 64.5575 18.8553 64.6289 18.8553H64.8908V19.1447H64.5813C64.4146 19.1447 64.2916 19.0972 64.2202 19.0022C64.1527 18.9158 64.1209 18.7905 64.1209 18.622V17.2009H63.7082V16.9114H64.1209V16.3326L64.4345 16.1901Z" fill="black"/>
<path d="M65.0713 16.9114H65.4165L66.0436 18.6739L66.6508 16.9114H67L65.8769 20H65.5316L65.8848 19.0929L65.0713 16.9114Z" fill="black"/>
<path d="M23 4.16981H27.1829C28.0911 4.16981 28.8074 4.37601 29.3191 4.78841C29.7923 5.17655 30.0354 5.69811 30.0354 6.3531C30.0354 6.83828 29.9075 7.25067 29.6644 7.5903C29.4214 7.90566 29.076 8.13612 28.6155 8.30593C29.2167 8.41509 29.6644 8.64555 29.9714 8.9973C30.2656 9.33693 30.4191 9.80997 30.4191 10.3922C30.4191 11.2655 30.0993 11.9084 29.4726 12.3208C28.9353 12.6604 28.1678 12.8302 27.1957 12.8302H23V4.16981ZM24.4966 5.33423V7.80863H26.7863C27.4259 7.80863 27.8736 7.69946 28.1422 7.50539C28.3981 7.29919 28.5388 6.9717 28.5388 6.52291C28.5388 6.11051 28.3981 5.80728 28.1422 5.62534C27.8608 5.43127 27.4259 5.33423 26.8119 5.33423H24.4966ZM24.4966 8.97305V11.6658H26.9782C27.541 11.6658 27.9887 11.5809 28.3085 11.4111C28.7179 11.1927 28.9225 10.8531 28.9225 10.3679C28.9225 9.87062 28.769 9.51887 28.4748 9.30054C28.1678 9.08221 27.6817 8.97305 27.0166 8.97305H24.4966Z" fill="black"/>
<path d="M33.2022 4.16981H39.7899V5.38275H34.6989V7.78437H39.4829V8.9973H34.6989V11.6173H40.0074V12.8302H33.2022V4.16981Z" fill="black"/>
<path d="M46.8348 4C48.2291 4 49.3292 4.42453 50.1351 5.28571C50.9026 6.09838 51.2863 7.1779 51.2863 8.51213C51.2863 9.84636 50.9026 10.9137 50.1351 11.7264C49.3292 12.5755 48.2291 13 46.8348 13C45.4278 13 44.3277 12.5633 43.5346 11.7143C42.7671 10.8895 42.3961 9.8221 42.3961 8.51213C42.3961 7.19003 42.7671 6.12264 43.5346 5.29784C44.3277 4.42453 45.4278 4 46.8348 4ZM46.8348 5.24933C45.8883 5.24933 45.1591 5.55256 44.6347 6.15903C44.1358 6.74124 43.8928 7.51752 43.8928 8.51213C43.8928 9.49461 44.1358 10.2709 44.6347 10.8531C45.1463 11.4474 45.8883 11.7507 46.8348 11.7507C47.7814 11.7507 48.5105 11.4596 49.0222 10.8895C49.5211 10.3194 49.7769 9.531 49.7769 8.51213C49.7769 7.49326 49.5211 6.69272 49.0222 6.11051C48.5105 5.5283 47.7814 5.24933 46.8348 5.24933Z" fill="black"/>
<path d="M57.2924 4C58.3669 4 59.2111 4.2062 59.8124 4.63073C60.4519 5.07951 60.8229 5.78302 60.9124 6.72911H59.4286C59.3007 6.19542 59.0576 5.80728 58.7251 5.57682C58.3925 5.33423 57.8808 5.22507 57.2157 5.22507C56.64 5.22507 56.2051 5.29784 55.8981 5.45553C55.5144 5.63747 55.3353 5.9407 55.3353 6.3531C55.3353 6.71698 55.54 7.02022 55.9749 7.23854C56.1667 7.33558 56.6912 7.51752 57.5354 7.77224C58.7762 8.13612 59.5693 8.42722 59.9275 8.62129C60.7206 9.07008 61.1171 9.68868 61.1171 10.4892C61.1171 11.2655 60.7973 11.8841 60.1577 12.3329C59.5181 12.7695 58.6099 13 57.4459 13C56.3202 13 55.4376 12.7938 54.8108 12.3814C54.0433 11.872 53.6212 11.0714 53.5573 9.96766H55.0411C55.1434 10.6226 55.3865 11.0957 55.783 11.3747C56.1412 11.6173 56.6912 11.7507 57.4459 11.7507C58.1111 11.7507 58.6483 11.6415 59.0321 11.4353C59.4158 11.217 59.6205 10.938 59.6205 10.5741C59.6205 10.1132 59.3263 9.74933 58.7634 9.48248C58.5844 9.39757 57.9959 9.2035 56.9854 8.9124C55.8597 8.57278 55.1562 8.33019 54.8876 8.18464C54.184 7.78437 53.8387 7.20216 53.8387 6.43801C53.8387 5.67385 54.1713 5.06739 54.862 4.63073C55.5016 4.2062 56.3074 4 57.2924 4Z" fill="black"/>
<path d="M63.7715 4.16981H65.2681V12.8302H63.7715V4.16981Z" fill="black"/>
<path d="M68.4274 4.16981H69.924L74.4394 10.4164H74.4906V4.16981H76V12.8302H74.5418L69.9751 6.49865H69.924V12.8302H68.4274V4.16981Z" fill="black"/>
<path fill-rule="evenodd" clip-rule="evenodd" d="M11.4259 10.0354V12.0873L12.0922 12.6873L11.2411 13.4538L10.334 12.6369H8.66596L7.75891 13.4538L6.90776 12.6873L7.57407 12.0873V10.0354L6.85181 9.38509L7.70295 8.61861L8.31331 9.16825H10.6867L11.297 8.61861L12.1482 9.38509L11.4259 10.0354ZM10.463 10.0354H8.53704V11.7698H10.463V10.0354Z" fill="black"/>
<path d="M11.1814 12.5824H13.8296V15H11.1814V12.5824Z" fill="black"/>
<path d="M5.16291 12.5824H7.81105V15H5.16291V12.5824Z" fill="black"/>
<path fill-rule="evenodd" clip-rule="evenodd" d="M16 5H10.9444V9.61538H16V5ZM14.7361 6.15385H12.2083V8.46154H14.7361V6.15385Z" fill="black"/>
<path fill-rule="evenodd" clip-rule="evenodd" d="M8.05556 5H3V9.61538H8.05556V5ZM6.79167 6.15385H4.26389V8.46154H6.79167V6.15385Z" fill="black"/>
<path d="M9.49594 0.000424462C11.327 0.797916 12.0136 1.13988 12.0136 1.13988C14.3506 2.2065 16.4783 2.64382 19 3.12546C18.8093 4.90079 18.612 6.67528 18.4082 8.44916C18.3482 8.97526 18.2893 9.50147 18.2319 10.0279C17.7933 14.0173 17.6212 15.1226 15.1035 17.7821C14.9669 17.892 14.4451 18.3906 13.5013 19.15C12.5575 19.9093 12.1281 20.1762 11.0981 20.8601C11.0981 20.8601 10.1826 21.658 9.49594 22C8.70586 21.7021 8.23711 21.3635 7.34146 20.7081C6.53406 19.9973 5.72872 19.3022 4.85865 18.6679C4.85865 18.6679 3.69146 17.5104 3.54508 17.4024C3.27492 17.205 3.82066 17.5923 3.54508 17.4024C1.96637 16.0723 1.30244 14.4609 0.964126 12.2712C0.872624 11.6352 0.786175 10.9988 0.703228 10.3616C0.618052 9.70771 0.527201 9.05482 0.435289 8.40185C0.435289 8.40185 0.138026 5.32818 0.110775 5.12946C0.110775 5.12946 -0.0214144 4.28942 0.00301135 3.12546C1.81348 2.73571 2.74298 2.73571 6.51949 1.36786C8.69384 0.455952 7.19835 1.26294 9.49594 0V0.000424462ZM9.49594 1.25387C7.89276 1.82381 5.60397 2.8497 3.77293 3.19166L1.25628 3.7616C1.25884 4.44553 1.2681 5.48112 1.35125 6.09093C1.37535 6.27318 1.39945 6.45544 1.42427 6.64322C1.47591 7.03005 1.52829 7.41678 1.58136 7.80342C1.66137 8.38996 1.73757 8.97691 1.81348 9.564C1.86421 9.94043 1.91517 10.3168 1.96637 10.6932C1.98857 10.8669 2.01078 11.0405 2.03366 11.2194C2.40228 13.8322 3.45742 15.4493 5.55065 17.0213C5.72148 17.1471 5.89231 17.2729 6.06832 17.4024C6.40932 17.657 6.75026 17.9117 7.09112 18.1665C7.32966 18.3438 7.32966 18.3438 7.57302 18.5247C8.1103 18.9283 8.77837 19.3447 9.30034 19.7677C10.3456 19.4258 11.1679 18.6892 12.0136 18.0101C12.2235 17.8429 13.0583 17.1918 13.2725 17.0213C14.188 16.2923 16.2176 14.8184 16.4768 12.9946C16.5012 12.8227 16.8486 11.2096 16.8737 11.0325C16.9247 10.6709 16.9744 10.3091 17.0231 9.94726C17.0973 9.39611 17.175 8.84556 17.2535 8.29499C17.3027 7.94207 17.3517 7.58913 17.4005 7.23615C17.4234 7.07297 17.4463 6.90978 17.4699 6.74165C17.5909 5.83353 17.6439 4.79145 17.6212 3.87559C16.5912 3.7616 15.652 3.42899 14.637 3.18245C13.1397 2.80533 10.9826 1.82381 9.49594 1.25387Z" fill="black"/>
</svg>
