<svg width="24" height="24" viewBox="0 0 24 24" fill="none" xmlns="http://www.w3.org/2000/svg">
<path fill-rule="evenodd" clip-rule="evenodd" d="M11.9967 2C9.62266 2.00127 7.32647 2.86828 5.51871 4.446C3.71095 6.02373 2.5095 8.20928 2.12919 10.6119C1.74889 13.0144 2.21451 15.4774 3.44283 17.5603C4.67114 19.6432 6.58204 21.2102 8.83384 21.9812C9.33062 22.0762 9.51774 21.7588 9.51774 21.4888C9.51774 21.2189 9.5078 20.4362 9.50449 19.5805C6.72251 20.2002 6.13465 18.37 6.13465 18.37C5.68093 17.1816 5.02517 16.8692 5.02517 16.8692C4.11771 16.2342 5.09307 16.2461 5.09307 16.2461C6.09823 16.3191 6.62647 17.3038 6.62647 17.3038C7.51737 18.8708 8.96631 18.4175 9.53596 18.1527C9.62538 17.4888 9.88536 17.0372 10.1718 16.7809C7.94957 16.5228 5.61469 15.6434 5.61469 11.7147C5.60091 10.6958 5.96968 9.7105 6.64469 8.9626C6.54202 8.70453 6.19923 7.6621 6.74238 6.24615C6.74238 6.24615 7.58195 5.97111 9.49291 7.29708C11.132 6.83751 12.8614 6.83751 14.5005 7.29708C16.4098 5.97111 17.2477 6.24615 17.2477 6.24615C17.7925 7.6587 17.4497 8.70114 17.347 8.9626C18.0242 9.71062 18.3937 10.6977 18.3787 11.7181C18.3787 15.6552 16.0388 16.5228 13.8133 16.7758C14.1709 17.095 14.4905 17.718 14.4905 18.6756C14.4905 20.0474 14.4789 21.151 14.4789 21.4888C14.4789 21.7622 14.6594 22.0813 15.1662 21.9812C17.4182 21.2101 19.3293 19.6428 20.5576 17.5595C21.7859 15.4763 22.2513 13.013 21.8705 10.6102C21.4898 8.20738 20.2878 6.02181 18.4794 4.44436C16.671 2.86691 14.3743 2.00047 12 2H11.9967Z" fill="#1A1A1A"/>
</svg>
