<svg width="76" height="22" viewBox="0 0 76 22" fill="none" xmlns="http://www.w3.org/2000/svg">
<path d="M12.0188 1C5.85505 1.00175 2.83173 2.26898 0.863922 3.87227C-0.628751 5.08874 -0.00282698 7.88575 1.34448 9.41903C2.73736 11.0031 5.31916 13.4316 12.0177 14.4678C14.286 14.8188 15.5368 15.0183 16.2983 15.1601C16.1671 15.8829 15.4489 16.6653 13.646 17.4153C11.2454 18.4148 6.52111 17.3366 3.22551 13.8955C2.06153 12.6807 1.09607 10.6968 1.09607 10.6968C1.09607 10.6968 2.07238 14.8336 5.00782 17.6858C8.02788 20.6202 10.2734 21 12.0232 21C14.4314 21 16.5489 20.0758 18.2097 18.7246C18.2076 18.7272 18.2054 18.729 18.2054 18.729C18.2054 18.729 22.2267 15.8497 20.3489 13.6609C18.5265 11.5378 13.7686 11.9141 8.74168 10.2837C4.84511 9.02083 3.9469 6.15906 5.43415 5.33466C7.05916 4.43325 8.75361 4.27309 12.0188 4.25997C15.8763 4.24509 18.3659 4.8577 19.7588 5.56658C20.2079 5.89389 20.9467 7.15587 19.7914 7.54269C19.1351 7.76235 18.2249 7.13661 18.2249 7.13661C17.6196 6.70253 17.0371 6.33759 16.4936 6.10568C15.8286 5.82125 15.2775 5.6996 14.5269 5.73373C14.1168 5.75211 13.5831 5.8335 13.1796 5.94815C12.5504 6.12756 12.1815 6.13368 11.803 5.98053C11.4233 5.82738 9.94471 5.45368 8.58004 5.844C7.48874 6.15556 7.98123 6.44786 8.05066 6.57651C8.12009 6.70516 8.03114 6.9467 8.30993 7.19612C8.30993 7.19612 8.25026 6.57651 8.49977 6.6649C8.49977 6.6649 9.75704 7.26089 10.5055 7.44554C11.2541 7.63108 11.6034 7.36503 11.6131 7.63895C11.6229 7.91288 11.4038 9.06371 10.3656 9.2895C10.3656 9.2895 10.7594 9.80497 12.4994 8.68389C13.9248 7.76585 13.9736 7.69759 14.6993 7.73347C16.1736 7.80611 16.7583 9.91612 18.7879 9.98088C18.8205 9.98088 18.853 9.97913 18.8856 9.97825C19.0993 9.9835 22.9329 10.0325 23.9212 6.71566C24.4364 4.98372 22.6433 0.997376 12.0199 1H12.0188ZM10.4285 6.29471C10.3754 6.3481 10.0293 6.54151 9.73534 6.29471C9.44245 6.04792 9.25587 6.15469 9.44245 6.04792C9.44245 6.04792 9.66917 5.96215 9.97508 5.98315C10.281 6.00503 10.4014 6.14418 10.7344 6.14418C11.0675 6.14418 10.4817 6.24133 10.4285 6.29471Z" fill="white"/>
<path d="M8.88809 8.53589C10.1948 8.72098 10.7419 7.88431 10.7419 7.88431C9.60216 8.54227 8.28027 7.69922 8.28027 7.69922C8.56866 8.17209 9.27582 8.36356 9.27582 8.36356C9.19993 8.51036 8.88809 8.53589 8.88809 8.53589Z" fill="white"/>
<path d="M30.0545 8.7071C30.0545 8.33405 30.5102 7.72661 31.9294 7.72661C32.909 7.72661 33.8378 8.09966 34.6489 8.63822L36 7.2292C35.1889 6.66291 33.9059 6 31.8948 6C28.9053 6 27.5876 7.62999 27.5876 8.74915C27.5876 11.6361 32.6724 11.3739 32.6724 12.9896C32.6724 13.7912 31.6929 14.26 30.5102 14.26C29.4799 14.26 28.0942 13.8458 27.2496 13.3618L26 14.8952C27.2496 15.6967 29.1418 16 30.3579 16C33.4663 16 35.0873 14.2868 35.0873 12.8089C35.0873 10.2262 30.0533 10.1018 30.0533 8.70621L30.0545 8.7071Z" fill="white"/>
<path d="M51.1046 6H48.9042L47 16H53.6594L54 14.2135H49.54L51.1046 6Z" fill="white"/>
<path d="M64.7296 6L63.5939 11.6458C63.2903 13.1484 62.4112 14.2445 60.4761 14.2445C58.541 14.2445 58.1096 13.1494 58.4132 11.6458L59.5489 6H57.2786L56.0959 11.8568C55.5367 14.6374 57.4871 16 60.285 16C63.0828 16 65.2254 14.7784 65.7845 11.9969L67 6H64.7296Z" fill="white"/>
<path d="M70.649 8.7071C70.649 8.33405 71.0592 7.72661 72.3365 7.72661C73.2181 7.72661 74.054 8.09966 74.784 8.63822L76 7.2292C75.27 6.66291 74.1153 6 72.3053 6C69.6147 6 68.4289 7.62999 68.4289 8.74915C68.4289 11.6361 73.0052 11.3739 73.0052 12.9896C73.0052 13.7912 72.1236 14.26 71.0592 14.26C70.1319 14.26 68.8847 13.8458 68.1246 13.3618L67 14.8952C68.1246 15.6967 69.8276 16 70.9221 16C73.7196 16 75.1786 14.2868 75.1786 12.8089C75.1786 10.2262 70.648 10.1018 70.648 8.70621L70.649 8.7071Z" fill="white"/>
<path d="M41.4245 6L35 16H37.4075L42.0462 8.34638L42.8596 12.1446H41.6422L40.5773 13.9226H43.2266L43.6883 16H46L43.513 6H41.4245Z" fill="white"/>
</svg>
