<svg width="20" height="20" viewBox="0 0 20 20" fill="none" xmlns="http://www.w3.org/2000/svg">
<path fill-rule="evenodd" clip-rule="evenodd" d="M10 20C15.5228 20 20 15.5228 20 10C20 4.47715 15.5228 0 10 0C4.47715 0 0 4.47715 0 10C0 15.5228 4.47715 20 10 20ZM10.4847 6.24205C11.8856 5.32331 14.1548 5.07063 15.2964 5.00121C15.6802 4.978 16.0002 5.29117 16 5.68648V13.2275C16 13.5898 15.7265 13.892 15.3746 13.9119C14.3439 13.9699 12.2595 14.182 10.8182 14.9592C10.5964 15.0788 10.3332 14.9159 10.3332 14.6581V6.53603C10.3332 6.41817 10.388 6.30545 10.4847 6.24205ZM4.70376 5.00121C5.84545 5.07085 8.11465 5.32331 9.5153 6.24205C9.61218 6.30567 9.66677 6.41393 9.66677 6.53201V14.6596C9.66677 14.9168 9.40447 15.0795 9.18322 14.9601C7.74194 14.1824 5.65649 13.9701 4.62543 13.9121C4.27355 13.8925 4 13.5902 4 13.2277V5.68648C4 5.29117 4.32001 4.978 4.70376 5.00121Z" fill="#1A1A1A"/>
</svg>
