<svg width="24" height="24" viewBox="0 0 24 24" fill="none" xmlns="http://www.w3.org/2000/svg">
<path fill-rule="evenodd" clip-rule="evenodd" d="M12 22C17.5228 22 22 17.5228 22 12C22 6.47715 17.5228 2 12 2C6.47715 2 2 6.47715 2 12C2 17.5228 6.47715 22 12 22ZM12.2689 8.50546C11.1941 8.95248 9.04616 9.87771 5.82494 11.2811C5.30186 11.4892 5.02785 11.6926 5.00291 11.8916C4.96075 12.2279 5.38186 12.3603 5.95531 12.5406C6.03331 12.5652 6.11413 12.5906 6.19699 12.6175C6.76117 12.8009 7.52009 13.0154 7.91462 13.024C8.2725 13.0317 8.67193 12.8842 9.11292 12.5813C12.1226 10.5497 13.6762 9.52285 13.7738 9.50071C13.8426 9.48509 13.9379 9.46545 14.0025 9.52288C14.0671 9.58031 14.0608 9.68906 14.054 9.71824C14.0122 9.89608 12.3592 11.4329 11.5038 12.2282C11.2371 12.4761 11.0479 12.652 11.0093 12.6921C10.9226 12.7821 10.8344 12.8672 10.7495 12.949C10.2254 13.4543 9.83232 13.8332 10.7713 14.4519C11.2225 14.7493 11.5835 14.9951 11.9438 15.2404C12.3372 15.5084 12.7295 15.7756 13.2372 16.1083C13.3665 16.1931 13.4901 16.2812 13.6104 16.367C14.0682 16.6933 14.4795 16.9866 14.9876 16.9398C15.2829 16.9126 15.5879 16.635 15.7428 15.807C16.1088 13.85 16.8284 9.61 16.9947 7.86278C17.0092 7.7097 16.9909 7.51379 16.9762 7.42779C16.9615 7.34179 16.9307 7.21925 16.8189 7.12855C16.6865 7.02112 16.4822 6.99847 16.3907 7.00008C15.9751 7.0074 15.3375 7.22911 12.2689 8.50546Z" fill="#1A1A1A"/>
</svg>
