<svg width="24" height="24" viewBox="0 0 24 24" fill="none" xmlns="http://www.w3.org/2000/svg">
<path fill-rule="evenodd" clip-rule="evenodd" d="M12 22C17.5228 22 22 17.5228 22 12C22 6.47715 17.5228 2 12 2C6.47715 2 2 6.47715 2 12C2 17.5228 6.47715 22 12 22ZM6.22805 17.4183L10.5139 12.5262L6 6.58448L9.82943 6.58864L12.4181 10.0312L15.4437 6.58301L17.3118 6.6039L13.3063 11.1921L18 17.3989L14.2979 17.4191L11.4072 13.6638L8.12665 17.4183H6.22805ZM14.7998 16.2892L15.7579 16.2922L9.24797 7.67175H8.2174L14.7998 16.2892Z" fill="#1A1A1A"/>
</svg>
