<svg width="40" height="40" viewBox="0 0 40 40" fill="none" xmlns="http://www.w3.org/2000/svg">
<path d="M20 0C15.5817 0 12 3.58172 12 8H28C28 3.58172 24.4183 0 20 0Z" fill="black"/>
<path d="M22 24C22 22.8954 21.1046 22 20 22C18.8954 22 18 22.8954 18 24V39.8582C14.7033 39.3867 11.777 37.7666 9.63963 35.4162L4.89438 37.7889C3.90642 38.2828 2.70507 37.8824 2.2111 36.8944C1.71712 35.9065 2.11757 34.7051 3.10552 34.2112L7.38213 32.0729C6.4964 30.2359 6 28.1759 6 26H2C0.89543 26 0 25.1046 0 24C0 22.8954 0.895431 22 2 22H6V18C6 16.9373 6.1184 15.9023 6.34271 14.9075L4.10552 13.7889C3.11757 13.2949 2.71712 12.0935 3.2111 11.1056C3.70507 10.1176 4.90642 9.71718 5.89438 10.2112L9.47206 12H30.5278L34.1055 10.2112C35.0935 9.71718 36.2948 10.1176 36.7888 11.1056C37.2828 12.0935 36.8823 13.2949 35.8944 13.7889L33.6573 14.9074C33.8816 15.9023 34 16.9373 34 18V22H38C39.1046 22 40 22.8954 40 24C40 25.1046 39.1046 26 38 26H34C34 28.1759 33.5036 30.2359 32.6179 32.0729L36.8944 34.2112C37.8823 34.7051 38.2828 35.9065 37.7888 36.8944C37.2948 37.8824 36.0935 38.2828 35.1055 37.7889L30.3603 35.4163C28.2229 37.7666 25.2967 39.3867 22 39.8582V24Z" fill="black"/>
</svg>
