<svg width="40" height="40" viewBox="0 0 40 40" fill="none" xmlns="http://www.w3.org/2000/svg">
<path fill-rule="evenodd" clip-rule="evenodd" d="M20 0C18.863 0 18 0.964989 18 2.10201V20C18 21.1046 18.8954 22 20 22H37.898C39.035 22 40 21.137 40 20C40 8.9543 31.0457 0 20 0ZM35.8762 18C34.9737 10.7626 29.2374 5.02628 22 4.12379V18H35.8762Z" fill="black"/>
<path d="M37.8925 28.9462C34.6089 35.5006 27.8299 40 20 40C8.9543 40 0 31.0457 0 20C0 12.1701 4.49944 5.3911 11.0538 2.10754C11.3355 1.95598 11.6577 1.87 12 1.87C13.1046 1.87 14 2.76543 14 3.87C14 4.67367 13.526 5.36662 12.8423 5.68452L12.843 5.68604C7.59955 8.31288 4 13.7361 4 20C4 28.8366 11.1634 36 20 36C26.2639 36 31.6871 32.4004 34.314 27.157L34.3155 27.1577C34.6334 26.474 35.3263 26 36.13 26C37.2346 26 38.13 26.8954 38.13 28C38.13 28.3423 38.044 28.6645 37.8925 28.9462Z" fill="black"/>
</svg>
