<svg width="40" height="38" viewBox="0 0 40 38" fill="none" xmlns="http://www.w3.org/2000/svg">
<path d="M9.50612 22.5779C9.64485 23.0048 10.0151 23.3751 10.7557 24.1157L12.8883 26.2483C13.6289 26.9888 13.9991 27.3591 14.4261 27.4979C14.8017 27.6199 15.2063 27.6199 15.5818 27.4979C16.0088 27.3591 16.3791 26.9888 17.1196 26.2483L19.2523 24.1157C19.9928 23.3751 20.3631 23.0048 20.5018 22.5779C20.6239 22.2023 20.6239 21.7977 20.5018 21.4221C20.3631 20.9952 19.9928 20.6249 19.2523 19.8843L17.1196 17.7517C16.3791 17.0112 16.0088 16.6409 15.5818 16.5021C15.2063 16.3801 14.8017 16.3801 14.4261 16.5021C13.9991 16.6409 13.6289 17.0112 12.8883 17.7517L10.7557 19.8843C10.0151 20.6249 9.64485 20.9952 9.50612 21.4221C9.38409 21.7977 9.38409 22.2023 9.50612 22.5779Z" fill="black"/>
<path fill-rule="evenodd" clip-rule="evenodd" d="M10 2C10 0.895431 10.8954 0 12 0C13.1046 0 14 0.895431 14 2V4H26V2C26 0.895431 26.8954 0 28 0C29.1046 0 30 0.895431 30 2V4.01118C32.7002 4.04778 34.3212 4.2041 35.6319 4.87195C37.1372 5.63894 38.3611 6.86278 39.1281 8.36808C40 10.0794 40 12.3196 40 16.8V25.2C40 29.6804 40 31.9206 39.1281 33.6319C38.3611 35.1372 37.1372 36.3611 35.6319 37.1281C33.9206 38 31.6804 38 27.2 38H12.8C8.31958 38 6.07937 38 4.36808 37.1281C2.86278 36.3611 1.63894 35.1372 0.871948 33.6319C0 31.9206 0 29.6804 0 25.2V16.8C0 12.3196 0 10.0794 0.871948 8.36808C1.63894 6.86278 2.86278 5.63894 4.36808 4.87195C5.6788 4.2041 7.2998 4.04778 10 4.01118V2ZM26 8V10C26 11.1046 26.8954 12 28 12C29.1046 12 30 11.1046 30 10V8H32C34.2091 8 36 9.79086 36 12V30C36 32.2091 34.2091 34 32 34H8C5.79086 34 4 32.2091 4 30V12C4 9.79086 5.79086 8 8 8H10V10C10 11.1046 10.8954 12 12 12C13.1046 12 14 11.1046 14 10V8H26Z" fill="black"/>
</svg>
