<svg width="39" height="36" viewBox="0 0 39 36" fill="none" xmlns="http://www.w3.org/2000/svg">
<path fill-rule="evenodd" clip-rule="evenodd" d="M7 0C4.79086 0 3 1.79086 3 4V32H2C0.895431 32 0 32.8954 0 34C0 35.1046 0.89543 36 2 36H3H27H28C29.1046 36 30 35.1046 30 34C30 32.8954 29.1046 32 28 32H27V22H29V27C29 29.7614 31.2386 32 34 32C36.7614 32 39 29.7614 39 27V10C39 9.60515 38.8831 9.21914 38.6641 8.8906L34.6641 2.8906C34.0514 1.97154 32.8097 1.72319 31.8906 2.3359C30.9715 2.9486 30.7232 4.19034 31.3359 5.1094L34.0294 9.14971L31.7388 11.6486C31.0379 12.4132 31.0379 13.5868 31.7388 14.3514L35 17.9091V27C35 27.5523 34.5523 28 34 28C33.4477 28 33 27.5523 33 27V22C33 19.7909 31.2091 18 29 18H27V4C27 1.79086 25.2091 0 23 0H7ZM7 20H23V32H7V20ZM7 4H23V16H7V4Z" fill="black"/>
</svg>
