<svg width="40" height="36" viewBox="0 0 40 36" fill="none" xmlns="http://www.w3.org/2000/svg">
<path fill-rule="evenodd" clip-rule="evenodd" d="M19 0C16.2386 0 14 2.23858 14 5V31C14 33.7614 16.2386 36 19 36H21C23.7614 36 26 33.7614 26 31V5C26 2.23858 23.7614 0 21 0H19ZM18 5C18 4.44771 18.4477 4 19 4H21C21.5523 4 22 4.44771 22 5V31C22 31.5523 21.5523 32 21 32H19C18.4477 32 18 31.5523 18 31V5Z" fill="black"/>
<path fill-rule="evenodd" clip-rule="evenodd" d="M28 15C28 12.2386 30.2386 10 33 10H35C37.7614 10 40 12.2386 40 15V31C40 33.7614 37.7614 36 35 36H33C30.2386 36 28 33.7614 28 31V15ZM33 14C32.4477 14 32 14.4477 32 15V31C32 31.5523 32.4477 32 33 32H35C35.5523 32 36 31.5523 36 31V15C36 14.4477 35.5523 14 35 14H33Z" fill="black"/>
<path fill-rule="evenodd" clip-rule="evenodd" d="M0 25C0 22.2386 2.23858 20 5 20H7C9.76142 20 12 22.2386 12 25V31C12 33.7614 9.76142 36 7 36H5C2.23858 36 0 33.7614 0 31V25ZM5 24C4.44772 24 4 24.4477 4 25V31C4 31.5523 4.44772 32 5 32H7C7.55228 32 8 31.5523 8 31V25C8 24.4477 7.55228 24 7 24H5Z" fill="black"/>
</svg>
