<svg width="1em" height="1em" viewBox="0 0 20 20" fill="none" xmlns="http://www.w3.org/2000/svg">
<path fill-rule="evenodd" clip-rule="evenodd" d="M8.57153 0.826144C9.45553 0.315764 10.5447 0.315765 11.4287 0.826144L17.2318 4.17657C18.1158 4.68695 18.6604 5.63017 18.6604 6.65093V13.3518C18.6604 14.3725 18.1158 15.3158 17.2318 15.8261L11.4287 19.1766C10.5447 19.687 9.45553 19.687 8.57153 19.1766L2.76841 15.8261C1.88441 15.3158 1.33984 14.3725 1.33984 13.3518V6.65093C1.33984 5.63017 1.88441 4.68695 2.76841 4.17657L8.57153 0.826144Z" fill="#17B38A"/>
<path fill-rule="evenodd" clip-rule="evenodd" d="M4.90625 8.87798L9.87212 3.91211L14.8047 8.84473L14.796 11.3574L9.84975 6.41111L4.923 11.3377L4.90625 8.87798ZM9.82967 16.3223L6.12817 12.621L9.8533 8.89583L11.0889 10.1317L8.61305 12.6077L9.8443 13.8388L12.3202 11.3628L13.5547 12.5973L9.82967 16.3223Z" fill="white"/>
</svg>
