<svg width="1em" height="1em" viewBox="0 0 20 20" fill="none" xmlns="http://www.w3.org/2000/svg">
<path d="M17.0833 12.7551V2.54234C17.0697 1.6878 16.4001 1 15.5597 1H5.07891C2.81741 1.03474 1 2.9175 1 5.22405C1 6.00217 1.20497 6.66912 1.51926 7.25271C1.78572 7.73903 2.20249 8.19756 2.61243 8.53799C2.72858 8.63525 2.67393 8.59357 3.02921 8.81589C3.52114 9.12158 4.08139 9.27442 4.08139 9.27442L4.07456 15.3812C4.08822 15.673 4.11555 15.9509 4.19071 16.208C4.42301 17.0695 5.01059 17.7295 5.80997 18.0491C6.14476 18.1811 6.52054 18.2714 6.92365 18.2783L15.2933 18.3061C16.9604 18.3061 18.3132 16.9305 18.3132 15.2284C18.32 14.221 17.8281 13.3178 17.0833 12.7551Z" fill="#FFEEDA"/>
<path d="M17.2883 15.3048C17.2541 16.3956 16.3728 17.2709 15.2933 17.2709L9.53359 17.2501C9.99136 16.7082 10.2715 16.0065 10.2715 15.2423C10.2715 14.0404 9.56776 13.2136 9.56776 13.2136H15.3001C16.4001 13.2136 17.2951 14.1237 17.2951 15.2423L17.2883 15.3048Z" fill="#EBC28E"/>
<path d="M3.15902 7.6765C2.49629 7.03734 2.03169 6.21059 2.03169 5.231V5.12679C2.08634 3.45245 3.43915 2.10464 5.08574 2.05601H15.5666C15.8399 2.06991 16.0585 2.26443 16.0585 2.54928V11.5671C16.2976 11.6088 16.4138 11.6435 16.6461 11.7269C16.8306 11.7963 17.0834 11.9422 17.0834 11.9422V2.54928C17.0697 1.69474 16.4001 1.00695 15.5597 1.00695H5.07891C2.81741 1.04168 1 2.92444 1 5.231C1 6.57186 1.60125 7.71819 2.58511 8.52409C2.65343 8.57967 2.71492 8.64915 2.89256 8.64915C3.20002 8.64915 3.41865 8.39904 3.40499 8.12809C3.39816 7.89882 3.3025 7.81545 3.15902 7.6765Z" fill="#190602"/>
<path d="M15.2933 12.1576H7.07396C6.52054 12.1646 6.07643 12.6161 6.07643 13.1789V14.3808C6.0901 14.9366 6.5547 15.409 7.10812 15.409H7.7162V14.3808H7.10812V13.2067C7.10812 13.2067 7.25843 13.2067 7.4429 13.2067C8.48142 13.2067 9.24664 14.1863 9.24664 15.2353C9.24664 16.1663 8.41309 17.3543 7.0193 17.257C5.78264 17.1737 5.11307 16.0551 5.11307 15.2353V5.05036C5.11307 4.59183 4.74413 4.21667 4.29319 4.21667H3.47331V5.25878H4.08139V15.2423C4.04723 17.2709 5.50251 18.2922 7.0193 18.2922L15.3001 18.32C16.9672 18.32 18.32 16.9444 18.32 15.2423C18.32 13.5402 16.9604 12.1576 15.2933 12.1576ZM17.2883 15.3048C17.2541 16.3956 16.3728 17.2709 15.2933 17.2709L9.53359 17.2501C9.99136 16.7082 10.2715 16.0065 10.2715 15.2423C10.2715 14.0404 9.56776 13.2136 9.56776 13.2136H15.3001C16.4001 13.2136 17.2951 14.1237 17.2951 15.2423L17.2883 15.3048Z" fill="#190602"/>
<path d="M13.0796 5.44638H6.88267V4.40426H13.0796C13.3597 4.40426 13.592 4.63352 13.592 4.92532C13.592 5.21016 13.3666 5.44638 13.0796 5.44638Z" fill="#190602"/>
<path d="M13.0796 10.3513H6.88267V9.30915H13.0796C13.3597 9.30915 13.592 9.53841 13.592 9.83021C13.592 10.1151 13.3666 10.3513 13.0796 10.3513Z" fill="#190602"/>
<path d="M14.1728 7.89882H6.88267V6.85671H14.1659C14.4461 6.85671 14.6784 7.08597 14.6784 7.37776C14.6852 7.66261 14.4529 7.89882 14.1728 7.89882Z" fill="#190602"/>
</svg>
