<svg width="48" height="48" viewBox="0 0 48 48" fill="none" xmlns="http://www.w3.org/2000/svg">
<path d="M13.1524 23.8096C13.1032 24.6665 13.3962 25.508 13.967 26.149C14.5379 26.7901 15.3398 27.1783 16.1967 27.2283H16.3733C17.0044 27.2276 17.6215 27.0422 18.1484 26.6948C18.6753 26.3475 19.089 25.8534 19.3383 25.2737C19.5877 24.694 19.6619 24.0539 19.5517 23.4325C19.4415 22.8111 19.1518 22.2356 18.7183 21.7769C18.2847 21.3183 17.7264 20.9966 17.1122 20.8517C16.498 20.7067 15.8548 20.7447 15.2619 20.961C14.6691 21.1774 14.1526 21.5626 13.7761 22.0691C13.3997 22.5756 13.1798 23.1813 13.1435 23.8114L13.1524 23.8096Z" fill="#0033AD"/>
<path d="M1.10195 22.9902C0.895933 22.9787 0.691117 23.0285 0.51339 23.1333C0.335664 23.2382 0.193004 23.3933 0.103439 23.5792C0.0138747 23.7651 -0.0185744 23.9734 0.0101926 24.1777C0.0389597 24.3821 0.127652 24.5733 0.26506 24.7272C0.402469 24.8811 0.582426 24.9909 0.78219 25.0426C0.981954 25.0943 1.19256 25.0856 1.38739 25.0176C1.58222 24.9497 1.75253 24.8255 1.87679 24.6607C2.00106 24.496 2.0737 24.2981 2.08555 24.0921C2.09366 23.9551 2.07462 23.8179 2.02952 23.6882C1.98442 23.5586 1.91416 23.4392 1.82276 23.3368C1.73136 23.2344 1.62063 23.1511 1.49693 23.0916C1.37323 23.0321 1.239 22.9977 1.10195 22.9902Z" fill="#0033AD"/>
<path d="M12.9475 5.05419C13.131 4.95996 13.2825 4.81356 13.383 4.63341C13.4835 4.45326 13.5284 4.24741 13.5121 4.04179C13.4958 3.83616 13.4191 3.63994 13.2916 3.47783C13.164 3.31572 12.9914 3.19496 12.7953 3.13077C12.5993 3.06657 12.3887 3.06179 12.1899 3.11705C11.9912 3.1723 11.8133 3.28511 11.6785 3.44128C11.5438 3.59744 11.4582 3.78999 11.4326 3.99467C11.4071 4.19935 11.4426 4.40702 11.5348 4.59153C11.5968 4.71504 11.6826 4.82506 11.7873 4.91525C11.892 5.00543 12.0135 5.07401 12.1448 5.11702C12.2762 5.16002 12.4147 5.17662 12.5525 5.16583C12.6902 5.15505 12.8245 5.11711 12.9475 5.05419Z" fill="#0033AD"/>
<path d="M16.2267 10.7721C16.5117 10.6283 16.7476 10.4033 16.9047 10.1255C17.0618 9.84768 17.133 9.52951 17.1093 9.21122C17.0856 8.89293 16.9681 8.58881 16.7716 8.33731C16.5751 8.0858 16.3084 7.89821 16.0053 7.79824C15.7022 7.69828 15.3762 7.69042 15.0687 7.77567C14.7611 7.86093 14.4857 8.03546 14.2773 8.2772C14.0689 8.51895 13.9369 8.81705 13.8979 9.13383C13.8589 9.45061 13.9147 9.77184 14.0582 10.0569C14.1536 10.2463 14.2853 10.4151 14.4459 10.5535C14.6065 10.692 14.7929 10.7974 14.9943 10.8638C15.1956 10.9303 15.4081 10.9563 15.6196 10.9406C15.8311 10.9249 16.0374 10.8676 16.2267 10.7721Z" fill="#0033AD"/>
<path d="M5.19177 14.7047C5.41157 14.8493 5.66931 14.9254 5.93237 14.9234C6.19544 14.9214 6.452 14.8414 6.66961 14.6936C6.88721 14.5458 7.05607 14.3367 7.15483 14.0929C7.25359 13.849 7.2778 13.5814 7.2244 13.3238C7.171 13.0662 7.0424 12.8302 6.85485 12.6458C6.66731 12.4613 6.42926 12.3366 6.17082 12.2874C5.91238 12.2383 5.64517 12.2669 5.403 12.3696C5.16083 12.4724 4.95457 12.6447 4.81034 12.8647C4.61716 13.1593 4.54883 13.5186 4.62035 13.8636C4.69186 14.2086 4.89738 14.5111 5.19177 14.7047Z" fill="#0033AD"/>
<path d="M7.15709 22.4022C6.83845 22.3842 6.52163 22.4611 6.24668 22.6231C5.97173 22.7852 5.75099 23.0251 5.61236 23.3125C5.47373 23.6 5.42344 23.9221 5.46785 24.2382C5.51225 24.5542 5.64936 24.85 5.86183 25.0882C6.07431 25.3263 6.35261 25.4961 6.66157 25.5761C6.97053 25.6561 7.29628 25.6427 7.59763 25.5376C7.89898 25.4325 8.16241 25.2405 8.35462 24.9857C8.54683 24.7309 8.6592 24.4249 8.67751 24.1062C8.70162 23.6787 8.55503 23.2591 8.26995 22.9396C7.98486 22.62 7.5846 22.4268 7.15709 22.4022Z" fill="#0033AD"/>
<path d="M5.36829 33.2534C5.13362 33.372 4.93937 33.5576 4.81012 33.7865C4.68086 34.0155 4.62239 34.2777 4.6421 34.5399C4.66181 34.8021 4.75882 35.0525 4.92085 35.2596C5.08289 35.4667 5.30268 35.6211 5.55245 35.7033C5.80221 35.7855 6.07074 35.7918 6.32408 35.7214C6.57742 35.651 6.8042 35.507 6.97576 35.3078C7.14732 35.1085 7.25594 34.8629 7.28791 34.6019C7.31988 34.3409 7.27375 34.0763 7.15536 33.8415C7.07669 33.6855 6.96804 33.5465 6.83564 33.4325C6.70323 33.3185 6.54965 33.2317 6.38369 33.1771C6.21772 33.1225 6.04262 33.1011 5.86839 33.1142C5.69416 33.1273 5.52423 33.1746 5.36829 33.2534Z" fill="#0033AD"/>
<path d="M11.6425 19.0664C11.9568 19.2724 12.3251 19.3805 12.7009 19.3772C13.0766 19.3738 13.443 19.2592 13.7536 19.0476C14.0642 18.8361 14.3051 18.5372 14.4458 18.1888C14.5865 17.8404 14.6208 17.458 14.5443 17.0901C14.4677 16.7222 14.2838 16.3853 14.0158 16.1219C13.7477 15.8585 13.4076 15.6805 13.0384 15.6104C12.6693 15.5403 12.2876 15.5813 11.9417 15.7281C11.5958 15.8749 11.3011 16.121 11.0951 16.4352C10.958 16.6439 10.8634 16.8775 10.8167 17.1227C10.77 17.3679 10.7722 17.62 10.823 17.8644C10.8739 18.1088 10.9724 18.3407 11.1131 18.547C11.2537 18.7532 11.4336 18.9297 11.6425 19.0664Z" fill="#0033AD"/>
<path d="M31.5474 10.6449C31.815 10.8195 32.1284 10.9108 32.4479 10.9073C32.7673 10.9038 33.0786 10.8056 33.3423 10.6253C33.6061 10.4449 33.8104 10.1904 33.9295 9.89391C34.0486 9.59743 34.0771 9.2723 34.0115 8.95961C33.9458 8.64692 33.7889 8.36072 33.5607 8.13717C33.3324 7.91362 33.043 7.76277 32.729 7.70369C32.415 7.6446 32.0905 7.67993 31.7966 7.80522C31.5027 7.9305 31.2525 8.14011 31.0777 8.40755C30.9613 8.5852 30.8811 8.78407 30.8417 8.99277C30.8023 9.20146 30.8045 9.41588 30.8481 9.62373C30.8918 9.83158 30.976 10.0288 31.096 10.204C31.216 10.3793 31.3694 10.5291 31.5474 10.6449Z" fill="#0033AD"/>
<path d="M34.8602 4.94466C35.0332 5.05804 35.2359 5.11757 35.4427 5.11571C35.6495 5.11385 35.8511 5.05069 36.022 4.93422C36.1929 4.81775 36.3254 4.6532 36.4028 4.46139C36.4802 4.26959 36.4989 4.05914 36.4566 3.85669C36.4144 3.65424 36.313 3.46887 36.1653 3.32405C36.0177 3.17922 35.8304 3.08144 35.6272 3.04309C35.4239 3.00473 35.2139 3.02752 35.0236 3.10857C34.8333 3.18962 34.6714 3.32529 34.5582 3.49841C34.4067 3.73029 34.3533 4.01285 34.41 4.28402C34.4666 4.55519 34.6285 4.7928 34.8602 4.94466Z" fill="#0033AD"/>
<path d="M31.8018 20.7334C31.378 20.709 30.9536 20.7684 30.5527 20.9081C30.1518 21.0478 29.7824 21.265 29.4655 21.5475C28.8256 22.1179 28.4384 22.9192 28.3892 23.7751C28.3401 24.631 28.6329 25.4714 29.2033 26.1113C29.7738 26.7513 30.5751 27.1385 31.431 27.1877C31.4928 27.1877 31.5563 27.1877 31.6181 27.1877C32.2416 27.1874 32.8517 27.0067 33.3748 26.6674C33.898 26.3282 34.3118 25.8449 34.5664 25.2757C34.821 24.7066 34.9055 24.076 34.8098 23.4599C34.714 22.8438 34.4421 22.2685 34.0268 21.8035C33.7455 21.4863 33.4039 21.2284 33.0219 21.0447C32.6399 20.8609 32.2251 20.7551 31.8018 20.7334Z" fill="#0033AD"/>
<path d="M17.2881 18.8421C17.5563 19.3781 17.9689 19.8285 18.4793 20.1427C18.9897 20.4569 19.5777 20.6223 20.177 20.6204C20.7296 20.6205 21.273 20.479 21.7553 20.2094C22.2377 19.9398 22.6429 19.5511 22.9322 19.0804C23.2216 18.6096 23.3855 18.0726 23.4083 17.5205C23.4311 16.9684 23.3121 16.4197 23.0625 15.9267C22.7923 15.3932 22.379 14.9454 21.8688 14.6335C21.3585 14.3216 20.7715 14.1579 20.1735 14.1608C19.6227 14.1617 19.0812 14.3034 18.6004 14.5724C18.1197 14.8413 17.7156 15.2286 17.4266 15.6976C17.1375 16.1665 16.9731 16.7015 16.9488 17.2519C16.9246 17.8022 17.0414 18.3496 17.2881 18.8421Z" fill="#0033AD"/>
<path d="M42.6283 14.7011C42.863 14.5827 43.0573 14.3973 43.1867 14.1685C43.3161 13.9396 43.3748 13.6775 43.3553 13.4153C43.3358 13.1532 43.239 12.9026 43.0771 12.6955C42.9153 12.4883 42.6956 12.3337 42.446 12.2513C42.1963 12.1689 41.9278 12.1624 41.6744 12.2325C41.4211 12.3027 41.1942 12.4464 41.0224 12.6454C40.8507 12.8445 40.7418 13.09 40.7096 13.3509C40.6773 13.6118 40.7231 13.8764 40.8412 14.1113C41.0001 14.4264 41.2776 14.6655 41.6127 14.776C41.9478 14.8866 42.3131 14.8597 42.6283 14.7011Z" fill="#0033AD"/>
<path d="M34.4329 15.7307C34.0973 15.8997 33.8193 16.1645 33.6341 16.4915C33.449 16.8185 33.365 17.1931 33.3927 17.5679C33.4204 17.9427 33.5587 18.3008 33.7899 18.597C34.0212 18.8932 34.3351 19.1142 34.692 19.232C35.0488 19.3498 35.4326 19.3591 35.7948 19.2588C36.157 19.1585 36.4812 18.9531 36.7266 18.6684C36.972 18.3838 37.1275 18.0328 37.1734 17.6598C37.2194 17.2869 37.1536 16.9086 36.9846 16.573C36.8725 16.35 36.7176 16.1512 36.5286 15.9882C36.3397 15.8251 36.1204 15.7009 35.8834 15.6227C35.6464 15.5444 35.3963 15.5137 35.1474 15.5322C34.8985 15.5508 34.6557 15.6182 34.4329 15.7307Z" fill="#0033AD"/>
<path d="M23.8765 4.45731C24.1391 4.47227 24.4002 4.409 24.6269 4.27551C24.8535 4.14203 25.0355 3.94432 25.1498 3.7074C25.264 3.47048 25.3055 3.205 25.2688 2.94452C25.2322 2.68405 25.1191 2.4403 24.9439 2.2441C24.7687 2.0479 24.5393 1.90807 24.2846 1.84229C24.0299 1.77652 23.7614 1.78776 23.5132 1.87458C23.2649 1.96141 23.0479 2.11993 22.8897 2.33008C22.7315 2.54023 22.6392 2.79258 22.6245 3.0552C22.6047 3.40713 22.7255 3.7525 22.9603 4.01541C23.195 4.27832 23.5246 4.43727 23.8765 4.45731Z" fill="#0033AD"/>
<path d="M23.8623 12.8258C24.2374 12.8468 24.6103 12.7562 24.9339 12.5653C25.2575 12.3745 25.5173 12.092 25.6804 11.7535C25.8434 11.4151 25.9025 11.0359 25.8502 10.6638C25.7978 10.2918 25.6363 9.94367 25.3862 9.66339C25.136 9.38311 24.8083 9.18329 24.4446 9.08918C24.0809 8.99507 23.6975 9.01089 23.3427 9.13464C22.988 9.2584 22.6779 9.48453 22.4517 9.78447C22.2255 10.0844 22.0932 10.4447 22.0717 10.8197C22.0432 11.3232 22.2159 11.8173 22.5517 12.1935C22.8874 12.5697 23.3589 12.7971 23.8623 12.8258Z" fill="#0033AD"/>
<path d="M13.5673 32.2222C13.9029 32.053 14.1808 31.7881 14.3658 31.4609C14.5509 31.1338 14.6347 30.7591 14.6068 30.3843C14.5789 30.0095 14.4404 29.6514 14.2089 29.3553C13.9775 29.0592 13.6634 28.8384 13.3064 28.7208C12.9495 28.6032 12.5656 28.5942 12.2035 28.6947C11.8414 28.7953 11.5172 29.001 11.272 29.2858C11.0268 29.5706 10.8716 29.9218 10.8259 30.2948C10.7803 30.6679 10.8463 31.0461 11.0157 31.3816C11.2426 31.8314 11.639 32.1726 12.1175 32.3302C12.596 32.4878 13.1175 32.449 13.5673 32.2222Z" fill="#0033AD"/>
<path d="M25.0897 15.5982C24.6956 16.1996 24.5133 16.9153 24.5717 17.6319C24.6301 18.3485 24.9259 19.0252 25.4121 19.5549C25.8984 20.0845 26.5474 20.4369 27.2565 20.5562C27.9655 20.6754 28.6941 20.5549 29.3269 20.2135C29.9597 19.8721 30.4606 19.3294 30.7503 18.6714C31.04 18.0133 31.1019 17.2774 30.9263 16.5802C30.7507 15.8829 30.3476 15.2642 29.7808 14.8218C29.2139 14.3794 28.5158 14.1388 27.7968 14.1378C27.2598 14.1375 26.7311 14.2708 26.2585 14.5257C25.7859 14.7807 25.3842 15.1492 25.0897 15.5982Z" fill="#0033AD"/>
<path d="M30.7087 29.1125C30.4498 28.5991 30.0586 28.1641 29.5755 27.8523C29.0923 27.5405 28.5348 27.3633 27.9603 27.3389C27.3858 27.3146 26.8152 27.4439 26.3074 27.7137C25.7996 27.9834 25.3729 28.3837 25.0715 28.8734C24.77 29.363 24.6047 29.9242 24.5925 30.4991C24.5803 31.074 24.7217 31.6417 25.0021 32.1437C25.2826 32.6456 25.6919 33.0637 26.1878 33.3547C26.6837 33.6457 27.2483 33.7991 27.8233 33.7992C28.3291 33.7957 28.8272 33.6748 29.2784 33.446C30.0415 33.0597 30.6204 32.3868 30.8885 31.5746C31.1566 30.7625 31.0919 29.8771 30.7087 29.1125Z" fill="#0033AD"/>
<path d="M36.356 28.8865C36.0419 28.6803 35.6736 28.5718 35.2978 28.5749C34.922 28.578 34.5556 28.6924 34.2448 28.9037C33.9341 29.115 33.693 29.4137 33.552 29.7621C33.411 30.1104 33.3765 30.4928 33.4528 30.8607C33.5291 31.2287 33.7128 31.5658 33.9807 31.8294C34.2486 32.0929 34.5886 32.2711 34.9578 32.3414C35.3269 32.4118 35.7087 32.371 36.0547 32.2244C36.4007 32.0778 36.6954 31.8318 36.9017 31.5177C37.1773 31.0961 37.2746 30.5825 37.1724 30.0894C37.0701 29.5962 36.7765 29.1637 36.356 28.8865Z" fill="#0033AD"/>
<path d="M42.5435 24.032C42.5615 23.7134 42.4846 23.3966 42.3225 23.1216C42.1605 22.8467 41.9206 22.6259 41.6331 22.4873C41.3456 22.3487 41.0235 22.2984 40.7075 22.3428C40.3914 22.3872 40.0956 22.5243 39.8575 22.7368C39.6194 22.9492 39.4496 23.2276 39.3696 23.5365C39.2896 23.8455 39.3029 24.1712 39.408 24.4726C39.5131 24.7739 39.7052 25.0373 39.96 25.2296C40.2147 25.4218 40.5208 25.5341 40.8394 25.5525C41.2669 25.5766 41.6866 25.43 42.0061 25.1449C42.3256 24.8598 42.5189 24.4595 42.5435 24.032Z" fill="#0033AD"/>
<path d="M47.0149 22.8825C46.8084 22.8706 46.6031 22.9202 46.4249 23.025C46.2467 23.1298 46.1035 23.2851 46.0135 23.4712C45.9236 23.6574 45.8908 23.8661 45.9194 24.0708C45.9481 24.2756 46.0368 24.4673 46.1743 24.6217C46.3119 24.776 46.4921 24.8861 46.6923 24.938C46.8924 24.99 47.1035 24.9814 47.2987 24.9133C47.494 24.8453 47.6647 24.7209 47.7892 24.5559C47.9138 24.3908 47.9866 24.1926 47.9985 23.9861C48.0139 23.7095 47.919 23.438 47.7347 23.2311C47.5503 23.0242 47.2915 22.8989 47.0149 22.8825Z" fill="#0033AD"/>
<path d="M42.8049 33.2482C42.5849 33.1041 42.3272 33.0285 42.0642 33.0309C41.8013 33.0333 41.545 33.1136 41.3277 33.2616C41.1104 33.4096 40.9418 33.6188 40.8433 33.8626C40.7449 34.1064 40.7209 34.3739 40.7745 34.6314C40.828 34.8888 40.9567 35.1246 41.1443 35.3089C41.3318 35.4932 41.5698 35.6178 41.8281 35.6669C42.0864 35.7159 42.3535 35.6873 42.5956 35.5847C42.8376 35.482 43.0438 35.3098 43.1881 35.09C43.2839 34.9439 43.35 34.7804 43.3826 34.6087C43.4153 34.4371 43.4137 34.2607 43.3781 34.0897C43.3425 33.9186 43.2736 33.7563 43.1752 33.6119C43.0769 33.4675 42.951 33.3439 42.8049 33.2482Z" fill="#0033AD"/>
<path d="M13.1382 43.0082C12.9653 42.8947 12.7627 42.8351 12.556 42.8368C12.3493 42.8385 12.1477 42.9015 11.9767 43.0178C11.8058 43.134 11.6732 43.2984 11.5956 43.49C11.518 43.6816 11.499 43.892 11.541 44.0944C11.583 44.2968 11.684 44.4823 11.8314 44.6273C11.9787 44.7723 12.1658 44.8704 12.3688 44.9091C12.5719 44.9478 12.7819 44.9255 12.9723 44.8448C13.1627 44.7642 13.3249 44.629 13.4384 44.4562C13.5138 44.3414 13.5658 44.2129 13.5915 44.078C13.6173 43.9431 13.6162 43.8044 13.5883 43.67C13.5604 43.5355 13.5063 43.4078 13.4291 43.2943C13.3518 43.1807 13.253 43.0835 13.1382 43.0082Z" fill="#0033AD"/>
<path d="M35.0492 42.8987C34.8645 42.9918 34.7116 43.1376 34.6098 43.3175C34.508 43.4975 34.4618 43.7036 34.4772 43.9098C34.4925 44.116 34.5687 44.3131 34.696 44.476C34.8233 44.6389 34.9961 44.7604 35.1925 44.8251C35.3889 44.8899 35.6 44.8949 35.7993 44.8396C35.9985 44.7843 36.1769 44.6711 36.3118 44.5145C36.4468 44.3578 36.5322 44.1646 36.5573 43.9594C36.5825 43.7541 36.5462 43.546 36.453 43.3614C36.3914 43.2387 36.3061 43.1294 36.2022 43.0397C36.0982 42.95 35.9775 42.8817 35.8471 42.8387C35.7167 42.7957 35.5791 42.7789 35.4422 42.7892C35.3052 42.7995 35.1717 42.8367 35.0492 42.8987Z" fill="#0033AD"/>
<path d="M22.9069 32.3494C23.3011 31.7479 23.4833 31.0322 23.4248 30.3155C23.3664 29.5988 23.0705 28.922 22.5842 28.3924C22.0978 27.8628 21.4486 27.5105 20.7395 27.3913C20.0303 27.2722 19.3017 27.3929 18.6689 27.7345C18.0361 28.0761 17.5354 28.619 17.2459 29.2772C16.9564 29.9355 16.8947 30.6715 17.0706 31.3687C17.2465 32.066 17.6499 32.6846 18.217 33.1267C18.7841 33.5689 19.4825 33.8092 20.2016 33.8098C20.7386 33.8116 21.2675 33.6789 21.7401 33.4238C22.2127 33.1687 22.6138 32.7993 22.9069 32.3494Z" fill="#0033AD"/>
<path d="M16.4493 37.3097C16.1822 37.135 15.8693 37.0434 15.5501 37.0465C15.231 37.0495 14.9199 37.1471 14.6563 37.327C14.3926 37.5068 14.1882 37.7607 14.0688 38.0567C13.9494 38.3527 13.9205 38.6775 13.9856 38.9899C14.0508 39.3023 14.2071 39.5884 14.4348 39.812C14.6625 40.0356 14.9514 40.1867 15.265 40.2462C15.5786 40.3056 15.9027 40.2708 16.1965 40.146C16.4903 40.0213 16.7405 39.8122 16.9154 39.5453C17.1498 39.187 17.2324 38.7502 17.145 38.3311C17.0576 37.9119 16.8073 37.5445 16.4493 37.3097Z" fill="#0033AD"/>
<path d="M23.9841 43.4955C23.7216 43.4806 23.4605 43.5438 23.2339 43.6773C23.0074 43.8107 22.8254 44.0083 22.7111 44.2451C22.5968 44.4819 22.5553 44.7473 22.5918 45.0077C22.6283 45.2681 22.7412 45.5119 22.9162 45.7081C23.0913 45.9044 23.3205 46.0443 23.5751 46.1103C23.8296 46.1763 24.098 46.1653 24.3463 46.0787C24.5946 45.9921 24.8117 45.8339 24.9701 45.624C25.1285 45.4141 25.2211 45.1619 25.2361 44.8994C25.2462 44.725 25.2217 44.5503 25.1642 44.3854C25.1067 44.2204 25.0173 44.0684 24.901 43.9381C24.7847 43.8077 24.6439 43.7015 24.4866 43.6256C24.3293 43.5496 24.1585 43.5055 23.9841 43.4955Z" fill="#0033AD"/>
<path d="M23.9983 35.1288C23.6229 35.106 23.2491 35.1951 22.9244 35.3849C22.5996 35.5746 22.3385 35.8565 22.1741 36.1948C22.0097 36.5331 21.9494 36.9126 22.0008 37.2852C22.0522 37.6578 22.2131 38.0067 22.463 38.2878C22.7129 38.5689 23.0406 38.7695 23.4046 38.8642C23.7686 38.959 24.1525 38.9435 24.5077 38.8199C24.8629 38.6962 25.1734 38.4699 25.4 38.1696C25.6265 37.8693 25.7587 37.5086 25.7801 37.1331C25.809 36.6311 25.6377 36.1382 25.3036 35.7625C24.9696 35.3867 24.5001 35.1588 23.9983 35.1288Z" fill="#0033AD"/>
<path d="M31.7699 37.1808C31.4848 37.3255 31.249 37.5515 31.0924 37.8303C30.9358 38.109 30.8654 38.428 30.8901 38.7467C30.9149 39.0655 31.0336 39.3698 31.2314 39.621C31.4291 39.8723 31.6969 40.0592 32.001 40.1582C32.305 40.2571 32.6316 40.2637 32.9393 40.1769C33.2471 40.0902 33.5222 39.9141 33.7298 39.671C33.9374 39.4278 34.0683 39.1285 34.1057 38.811C34.1432 38.4935 34.0856 38.172 33.9402 37.8872C33.8442 37.6981 33.7119 37.5299 33.5509 37.3921C33.3898 37.2542 33.2032 37.1495 33.0016 37.0839C32.8 37.0183 32.5874 36.9931 32.3761 37.0097C32.1648 37.0263 31.9588 37.0845 31.7699 37.1808Z" fill="#0033AD"/>
</svg>
