<svg width="48" height="48" viewBox="0 0 48 48" fill="none" xmlns="http://www.w3.org/2000/svg">
<path d="M20.88 1.80127C22.0166 1.14504 22.5849 0.816923 23.1891 0.688496C23.7237 0.574863 24.2763 0.574863 24.8109 0.688496C25.4151 0.816923 25.9834 1.14504 27.12 1.80127L41.6646 10.1986C42.8012 10.8548 43.3696 11.183 43.7829 11.642C44.1486 12.0482 44.4248 12.5266 44.5937 13.0464C44.7846 13.6339 44.7846 14.2901 44.7846 15.6026V32.3973C44.7846 33.7097 44.7846 34.366 44.5937 34.9534C44.4248 35.4732 44.1486 35.9517 43.7829 36.3579C43.3696 36.8169 42.8012 37.145 41.6646 37.8013L27.12 46.1986C25.9834 46.8548 25.4151 47.183 24.8109 47.3114C24.2763 47.425 23.7237 47.425 23.1891 47.3114C22.5849 47.183 22.0166 46.8548 20.88 46.1986L3.21539 35.9999V15.6026C3.21539 14.2901 3.21539 13.6339 3.40627 13.0464C3.57516 12.5266 3.85142 12.0482 4.21712 11.642C4.63045 11.183 5.19876 10.8548 6.33539 10.1986L20.88 1.80127Z" fill="#96BEDC"/>
<path d="M23.6258 3.61783C23.3469 3.6771 23.0846 3.82854 22.56 4.13142L7.51327 12.8186C6.98867 13.1215 6.72638 13.273 6.53561 13.4848C6.36682 13.6723 6.23932 13.8931 6.16137 14.133C6.07327 14.4042 6.07327 14.707 6.07327 15.3128V32.6873C6.07327 32.8506 6.07327 32.9918 6.075 33.1164V37.651L11.3993 40.725H12.525V38.0749L22.56 43.8686C23.0846 44.1715 23.3469 44.323 23.6258 44.3822C23.8725 44.4347 24.1275 44.4347 24.3742 44.3822C24.6531 44.323 24.9154 44.1715 25.44 43.8686L40.4867 35.1814C41.0113 34.8785 41.2736 34.7271 41.4644 34.5152C41.6332 34.3278 41.7607 34.1069 41.8386 33.867C41.9267 33.5959 41.9267 33.293 41.9267 32.6873V15.3128C41.9267 14.707 41.9267 14.4042 41.8386 14.133C41.7607 13.8931 41.6332 13.6723 41.4644 13.4848C41.2736 13.273 41.0113 13.1215 40.4867 12.8186L25.44 4.13141C24.9154 3.82854 24.6531 3.6771 24.3742 3.61783C24.1275 3.56538 23.8725 3.56538 23.6258 3.61783Z" fill="#2D374B"/>
<path d="M36.7911 37.3151L31.8074 40.1925L24.975 29.0619L28.35 23.5637L36.7911 37.3151Z" fill="#28A0F0"/>
<path d="M41.9267 31.0196V32.6873C41.9267 33.293 41.9267 33.5959 41.8386 33.8671C41.7607 34.107 41.6332 34.3278 41.4644 34.5153C41.2736 34.7271 41.0113 34.8786 40.4867 35.1814L38.4524 36.356L29.475 21.731L32.85 16.2328L41.9267 31.0196Z" fill="#28A0F0"/>
<path d="M7.83048 38.6646L3.21539 36V35.1866L13.4459 18.5201C14.3687 17.0169 14.8301 16.2652 15.4595 15.7196C16.0165 15.2368 16.6664 14.8731 17.3693 14.651C18.1635 14.4 19.0455 14.4 20.8093 14.4H22.725L7.83048 38.6646Z" fill="white"/>
<path d="M14.4755 42.501L9.49173 39.6237L24.975 14.4H31.725L14.4755 42.501Z" fill="white"/>
</svg>
