<svg width="48" height="48" viewBox="0 0 48 48" fill="none" xmlns="http://www.w3.org/2000/svg">
<path d="M0 24C0 37.2548 10.7452 48 24 48C37.2548 48 48 37.2548 48 24C48 10.7452 37.2548 0 24 0C10.7452 0 0 10.7452 0 24Z" fill="#2E3148"/>
<path d="M10.095 24.015C10.095 31.6945 16.3205 37.92 24 37.92C31.6796 37.92 37.905 31.6945 37.905 24.015C37.905 16.3355 31.6796 10.11 24 10.11C16.3205 10.11 10.095 16.3355 10.095 24.015Z" fill="#1B1E36"/>
<path fill-rule="evenodd" clip-rule="evenodd" d="M28.5155 16.3294C27.8805 8.48956 26.2293 2.93654 24.2625 2.92507C22.2715 2.91346 20.5321 8.58044 19.8127 16.5637C12.5598 13.1464 6.78858 11.7833 5.79002 13.5076C4.79691 15.2224 8.81775 19.502 15.3408 24.0502C8.84576 28.6421 4.85269 32.9482 5.85752 34.6576C6.86095 36.3646 12.5513 34.9942 19.7169 31.5796C20.3345 39.5701 22.0018 45.2585 23.9925 45.2701C25.9893 45.2817 27.7255 39.6149 28.4432 31.6318C35.6957 35.0488 41.4665 36.4118 42.465 34.6876C43.4688 32.9484 39.3501 28.5981 32.7026 23.997C39.3256 19.3504 43.4134 14.9715 42.3975 13.2376C41.393 11.5288 35.6917 12.9083 28.5155 16.3294ZM23.9722 18.6662C25.1529 18.0159 26.314 17.4092 27.4438 16.8501C26.9925 9.24825 25.7474 3.83663 24.255 3.82502C22.7448 3.81327 21.4187 9.33593 20.8829 17.0776C21.8908 17.5707 22.9234 18.1011 23.9722 18.6662ZM41.37 13.845C42.1291 15.1413 38.0651 19.0104 31.7013 23.3149C30.767 22.6885 29.7885 22.0595 28.7723 21.434C28.7433 20.0937 28.6865 18.7922 28.6043 17.5418C35.3626 14.1673 40.6192 12.5628 41.37 13.845ZM25.1862 19.3318C25.9743 18.9005 26.7501 18.4885 27.5097 18.0971C27.5494 18.9499 27.5793 19.8267 27.5987 20.7232C27.2236 20.4997 26.8439 20.2768 26.46 20.055C26.0337 19.8087 25.6089 19.5676 25.1862 19.3318ZM24 44.085C25.492 44.0908 26.8043 38.6995 27.3524 31.1078C26.263 30.5745 25.145 29.9977 24.0089 29.3807C22.9223 29.9751 21.853 30.5319 20.8105 31.0481C21.2612 38.6562 22.5068 44.0734 24 44.085ZM6.63 34.2075C5.87006 32.9098 9.94435 29.0332 16.3208 24.7227C17.325 25.4012 18.3818 26.0831 19.4827 26.7609C19.5096 28.008 19.5608 29.2214 19.6339 30.3914C12.7612 33.8473 7.38965 35.5048 6.63 34.2075ZM20.7458 29.8233C21.4237 29.4716 22.114 29.1037 22.814 28.7206C22.4755 28.5305 22.1358 28.3369 21.795 28.14C21.4134 27.9195 21.0359 27.698 20.6629 27.4757C20.6824 28.2755 20.7101 29.0591 20.7458 29.8233ZM26.49 27.975C26.8482 27.765 27.2027 27.5542 27.5532 27.3427C27.5226 28.2041 27.4827 29.0467 27.4339 29.8671C26.709 29.4985 25.9696 29.1115 25.219 28.7073C25.6408 28.4685 26.0646 28.2244 26.49 27.975ZM41.4375 34.0875C42.1906 32.7857 38.0997 28.9437 31.7079 24.6838C30.7636 25.3257 29.7736 25.9704 28.7448 26.6119C28.7027 27.9225 28.6345 29.1963 28.5427 30.4221C35.3732 33.787 40.6885 35.3822 41.4375 34.0875ZM24.0189 28.0516C23.435 27.7281 22.8458 27.3949 22.2525 27.0525C21.7056 26.7369 21.1672 26.4203 20.6381 26.1036C20.6295 25.3903 20.6276 24.666 20.6325 23.9325C20.6366 23.2614 20.6463 22.5979 20.6615 21.9438C21.1757 21.6313 21.6989 21.319 22.23 21.0075C22.8203 20.6614 23.4068 20.3244 23.9879 19.9971C24.5695 20.3195 25.1565 20.6515 25.7475 20.9925C26.3836 21.3596 27.0082 21.728 27.62 22.0964C27.6259 22.7158 27.6268 23.3433 27.6225 23.9775C27.6185 24.6442 27.6088 25.3033 27.5938 25.9532C26.9977 26.3175 26.3893 26.6819 25.77 27.045C25.1819 27.3899 24.5977 27.7256 24.0189 28.0516ZM19.4625 24.0675C19.4655 23.5981 19.4719 23.1323 19.4815 22.6706C18.744 23.1311 18.0274 23.5906 17.3347 24.0465C18.0218 24.492 18.7322 24.9407 19.463 25.3904C19.4598 24.9529 19.4597 24.5118 19.4625 24.0675ZM28.7794 25.2186C28.7858 24.8572 28.7902 24.4935 28.7925 24.1275C28.7953 23.6858 28.7952 23.2471 28.7921 22.812C29.4354 23.2103 30.0624 23.6076 30.6711 24.0023C30.0585 24.4055 29.4273 24.8115 28.7794 25.2186ZM6.5625 13.9575C5.80865 15.2607 9.90874 19.1092 16.3118 23.3744C17.3299 22.6768 18.4024 21.9752 19.5206 21.2777C19.5636 20.0664 19.6289 18.8876 19.7146 17.7502C12.7607 14.2984 7.32085 12.6466 6.5625 13.9575ZM21.765 19.92C21.4069 20.1301 21.0526 20.341 20.7023 20.5525C20.7295 19.7861 20.7642 19.0345 20.8059 18.3003C21.4526 18.6313 22.1104 18.9767 22.7771 19.3356C22.4409 19.5271 22.1034 19.7219 21.765 19.92Z" fill="#6E728E"/>
<path fill-rule="evenodd" clip-rule="evenodd" d="M34.23 12.8325C33.3519 12.8325 32.64 13.5444 32.64 14.4225C32.64 15.3007 33.3519 16.0125 34.23 16.0125C35.1082 16.0125 35.82 15.3007 35.82 14.4225C35.82 13.5444 35.1082 12.8325 34.23 12.8325ZM10.5525 17.9325C9.67439 17.9325 8.96252 18.6444 8.96252 19.5225C8.96252 20.0906 9.26558 20.6155 9.75752 20.8995C10.2495 21.1835 10.8556 21.1835 11.3475 20.8995C11.8395 20.6155 12.1425 20.0906 12.1425 19.5225C12.1425 18.6444 11.4307 17.9325 10.5525 17.9325ZM24 21.48C22.5544 21.48 21.3825 22.6519 21.3825 24.0975C21.3825 25.0327 21.8814 25.8968 22.6913 26.3643C23.5011 26.8319 24.4989 26.8319 25.3088 26.3643C26.1186 25.8968 26.6175 25.0327 26.6175 24.0975C26.6175 22.6519 25.4456 21.48 24 21.48ZM19.455 37.845C19.455 36.9669 20.1669 36.255 21.045 36.255C21.9232 36.255 22.635 36.9669 22.635 37.845C22.635 38.7232 21.9232 39.435 21.045 39.435C20.1669 39.435 19.455 38.7232 19.455 37.845Z" fill="#B7B9C8"/>
</svg>
