<svg width="48" height="48" viewBox="0 0 48 48" fill="none" xmlns="http://www.w3.org/2000/svg">
<path d="M24 48C37.2548 48 48 37.2548 48 24C48 10.7452 37.2548 0 24 0C10.7452 0 0 10.7452 0 24C0 37.2548 10.7452 48 24 48Z" fill="#E84142"/>
<path fill-rule="evenodd" clip-rule="evenodd" d="M17.1992 33.5507H12.5414C11.5627 33.5507 11.0792 33.5507 10.7845 33.3621C10.4661 33.1557 10.2715 32.8137 10.2479 32.4363C10.2302 32.0886 10.472 31.6639 10.9554 30.8149L22.456 10.5436C22.9454 9.68278 23.193 9.25238 23.5055 9.0932C23.8415 8.92222 24.2425 8.92222 24.5785 9.0932C24.891 9.25238 25.1386 9.68278 25.628 10.5436L27.9923 14.6707L28.0043 14.6918C28.5329 15.6153 28.8009 16.0836 28.9179 16.5751C29.0476 17.1116 29.0476 17.6776 28.9179 18.2141C28.8 18.7094 28.5347 19.1811 27.9982 20.1185L21.9572 30.7973L21.9415 30.8246C21.4095 31.7557 21.1399 32.2276 20.7662 32.5836C20.3594 32.9729 19.87 33.2557 19.3335 33.4152C18.8441 33.5507 18.2958 33.5507 17.1992 33.5507ZM28.9615 33.5507H35.6356C36.6202 33.5507 37.1155 33.5507 37.4105 33.3564C37.7288 33.1499 37.9292 32.8019 37.9471 32.4248C37.964 32.0883 37.7275 31.6802 37.2641 30.8805C37.2481 30.8533 37.2322 30.8256 37.2159 30.7974L33.8728 25.0784L33.8348 25.014C33.365 24.2196 33.1279 23.8184 32.8233 23.6634C32.4874 23.4924 32.0921 23.4924 31.7562 23.6634C31.4496 23.8225 31.202 24.2412 30.7126 25.0843L27.3814 30.8033L27.37 30.823C26.8824 31.6647 26.6387 32.0854 26.6563 32.4305C26.6798 32.808 26.8744 33.1557 27.1928 33.3621C27.4817 33.5507 27.9769 33.5507 28.9615 33.5507Z" fill="white"/>
</svg>
