<svg width="48" height="48" viewBox="0 0 48 48" fill="none" xmlns="http://www.w3.org/2000/svg">
<path d="M24 48C37.2548 48 48 37.2548 48 24C48 10.7452 37.2548 0 24 0C10.7452 0 0 10.7452 0 24C0 37.2548 10.7452 48 24 48Z" fill="#0AC18E"/>
<path d="M31.4862 15.9412C30.2801 13.2061 27.5086 12.6214 24.1157 13.1879L23.0253 8.96045L20.4548 9.62441L21.5268 13.8396C20.8507 14.0102 20.1563 14.1564 19.468 14.3513L18.3959 10.1604L15.8253 10.8244L16.9157 15.0518C16.3614 15.2102 11.7258 16.398 11.7258 16.398L12.4324 19.1513C12.4324 19.1513 14.3208 18.6214 14.3025 18.664C15.3502 18.3899 15.8436 18.9137 16.0751 19.4072L19.072 30.9929C19.1086 31.328 19.0477 31.9006 18.3289 32.0955C18.3715 32.1198 16.4588 32.5767 16.4588 32.5767L16.739 35.7868C16.739 35.7868 21.3319 34.6112 21.935 34.4589L23.0375 38.7351L25.6081 38.0711L24.5055 33.7645C25.2121 33.6 25.9004 33.4295 26.5705 33.2528L27.6669 37.5351L30.2375 36.8711L29.135 32.6011C33.0944 31.6386 35.8903 29.1412 35.3177 25.3219C34.9522 23.0193 32.4365 21.131 30.3472 20.9178C31.6324 19.7787 32.2842 18.1158 31.4862 15.9412ZM30.2497 26.0224C30.7614 29.8051 25.5045 30.2681 23.7685 30.7249L22.2578 25.066C23.9999 24.6092 29.3847 22.6904 30.2497 26.0224ZM27.0822 18.3168C27.6243 21.6792 23.1289 22.0691 21.6791 22.4407L20.3025 17.3056C21.7583 16.9462 25.9796 15.2041 27.0822 18.3168Z" fill="white"/>
</svg>
