<svg width="48" height="48" viewBox="0 0 48 48" fill="none" xmlns="http://www.w3.org/2000/svg">
<path d="M24 48C37.2548 48 48 37.2548 48 24C48 10.7452 37.2548 0 24 0C10.7452 0 0 10.7452 0 24C0 37.2548 10.7452 48 24 48Z" fill="#F0B90B"/>
<path d="M15.5456 12.8568L23.9996 7.93579L32.4537 12.8568L29.3456 14.6747L23.9996 11.5717L18.6537 14.6747L15.5456 12.8568ZM32.4537 19.0629L29.3456 17.2449L23.9996 20.348L18.6537 17.2449L15.5456 19.0629V22.6988L20.8915 25.8018V32.0079L23.9996 33.8258L27.1078 32.0079V25.8018L32.4537 22.6988V19.0629ZM32.4537 28.9048V25.269L29.3456 27.0869V30.7228L32.4537 28.9048ZM34.6605 30.1899L29.3145 33.293V36.9289L37.7686 32.0079V22.1659L34.6605 23.9839V30.1899ZM31.5524 15.9598L34.6605 17.7778V21.4137L37.7686 19.5957V15.9598L34.6605 14.1419L31.5524 15.9598ZM20.8915 34.6094V38.2453L23.9996 40.0633L27.1078 38.2453V34.6094L23.9996 36.4274L20.8915 34.6094ZM15.5456 28.9048L18.6537 30.7228V27.0869L15.5456 25.269V28.9048ZM20.8915 15.9598L23.9996 17.7778L27.1078 15.9598L23.9996 14.1419L20.8915 15.9598ZM13.3388 17.7778L16.4469 15.9598L13.3388 14.1419L10.2307 15.9598V19.5957L13.3388 21.4137V17.7778ZM13.3388 23.9839L10.2307 22.1659V32.0079L18.6848 36.9289V33.293L13.3388 30.1899V23.9839Z" fill="white"/>
</svg>
