<svg width="48" height="48" viewBox="0 0 48 48" fill="none" xmlns="http://www.w3.org/2000/svg">
<circle cx="24" cy="24" r="24" fill="#EAB300"/>
<path d="M31.0639 23.0484C32.5519 22.0272 33.5733 20.8781 33.5733 18.7107C33.5733 15.2674 30.1485 13.6524 28.0637 13.4477C27.894 13.429 27.4197 13.4206 27.4197 13.4206L27.4241 10.1266L24.0331 10.1347L24.0413 13.429L21.7701 13.4227L21.7764 10.141L18.3103 10.1431L18.3062 13.4071C17.6976 13.4218 14.0431 13.4175 14.0431 13.4175V16.3337C14.0431 16.3337 14.9666 16.3337 15.2316 16.3378C16.3766 16.3359 16.8921 17.0607 16.8921 17.5635L16.8941 17.7459V30.3178C16.8777 30.7627 16.5216 31.1098 16.1261 31.1311C15.6065 31.1551 14.8341 31.1371 14.8341 31.1371L14.1674 34.4419L18.3228 34.446L18.3206 37.752H21.7766L21.7704 34.44H24.0415L24.0374 37.7571H27.4243L27.4262 34.4587C27.4262 34.4587 27.6127 34.4523 27.6749 34.4523C31.5837 34.4523 34.9915 32.1375 35.0429 28.3923C35.088 25.3255 32.4614 23.5515 31.0639 23.0484ZM21.768 21.5614V16.5615C22.2319 16.5636 23.9421 16.5677 24.9626 16.5677C25.0586 16.5677 25.1373 16.5845 25.229 16.5891C26.6179 16.6565 27.4826 17.2078 27.9468 17.8719C28.2621 18.3228 28.4028 18.8182 28.4028 19.2365C28.4028 19.6301 28.2974 20.0379 28.2288 20.2339C28.133 20.5137 27.9889 20.7745 27.803 21.0043C27.563 21.2986 27.4248 21.3972 27.2736 21.5033C26.7549 21.8674 26.0282 22.153 24.9821 22.2036C24.9681 22.2036 21.8177 22.2118 21.7677 22.2096L21.768 21.5614ZM29.4187 28.9846C29.3152 29.2869 29.1595 29.5687 28.9586 29.8171C28.6992 30.1351 28.5506 30.2419 28.3865 30.3564C27.8261 30.7498 27.0408 31.0587 25.9099 31.1134C25.895 31.1134 21.8217 31.1223 21.768 31.1196V25.0157C22.2691 25.0181 24.786 25.0224 25.8888 25.0224C25.9929 25.0224 26.0774 25.0409 26.1768 25.0464C27.6777 25.1184 28.6123 25.7151 29.1139 26.4327C29.4547 26.9201 29.6071 27.4553 29.6071 27.9072C29.6069 28.332 29.4926 28.7727 29.4187 28.9846Z" fill="white"/>
</svg>
