<svg width="48" height="48" viewBox="0 0 48 48" fill="none" xmlns="http://www.w3.org/2000/svg">
<path d="M47.2815 29.8059C44.0757 42.663 31.0521 50.4876 18.192 47.2815C5.33715 44.076 -2.48842 31.053 0.718923 18.1968C3.92325 5.33814 16.9469 -2.48728 29.8033 0.718191C42.6627 3.92367 50.4876 16.948 47.2815 29.8059Z" fill="#F7931A"/>
<path fill-rule="evenodd" clip-rule="evenodd" d="M29.2661 14.5355L30.346 10.1844L27.7094 9.52436L26.6581 13.7608C25.965 13.5873 25.253 13.4236 24.5457 13.2614L25.6046 8.9971L22.9695 8.33704L21.8889 12.6866C20.1084 12.2793 18.3421 11.8144 16.5722 11.3635L15.8709 14.1923C15.8709 14.1923 17.827 14.6426 17.7857 14.6705C18.8536 14.9383 19.0465 15.6482 19.0143 16.2109L16.0556 28.1304C15.9249 28.4562 15.5937 28.9451 14.8472 28.7595C14.8736 28.798 12.9308 28.279 12.9308 28.279L11.6219 31.3107C13.3936 31.7544 15.1639 32.2019 16.9326 32.6572L15.8416 37.058L18.4751 37.7181L19.5557 33.364C20.2751 33.5601 20.9735 33.7412 21.6569 33.9117L20.5801 38.2454L23.2166 38.9055L24.3076 34.5129C28.8035 35.3676 32.1844 35.0228 33.6074 30.938C34.754 27.6491 33.5504 25.7519 31.1848 24.5148C32.9075 24.1157 34.2051 22.9774 34.5513 20.6261C35.0297 17.4141 32.5951 15.6874 29.2661 14.5355ZM20.4125 30.1769L21.8603 24.3466C24.2087 24.9358 29.3995 25.5987 28.5273 29.1118C27.7023 32.4413 22.636 30.7313 20.4125 30.1769ZM22.5227 21.6777L23.8354 16.3897C25.9004 16.9069 30.0936 17.5525 29.3429 20.5786C28.6133 23.5143 24.5206 22.1776 22.5227 21.6777Z" fill="white"/>
</svg>
