<svg width="48" height="48" viewBox="0 0 48 48" fill="none" xmlns="http://www.w3.org/2000/svg">
<path d="M24 48C37.2548 48 48 37.2548 48 24C48 10.7452 37.2548 0 24 0C10.7452 0 0 10.7452 0 24C0 37.2548 10.7452 48 24 48Z" fill="#2A2A3D"/>
<path d="M30.8711 27.1072L24.0308 34.0207L20.224 30.173L27.0642 23.2595L24.0221 20.1848L14.1065 30.2062L23.9947 40.2001L33.9101 30.1786L30.8711 27.1072Z" fill="white"/>
<path d="M36.975 20.858L24.0557 7.80005L11.1 20.8945L11.1413 27.015L24.0007 14.0182L36.9536 27.1101L36.975 20.858Z" fill="white"/>
</svg>
