<svg width="48" height="48" viewBox="0 0 48 48" fill="none" xmlns="http://www.w3.org/2000/svg">
<path d="M0 24C0 37.2548 10.7452 48 24 48C37.2548 48 48 37.2548 48 24C48 10.7452 37.2548 0 24 0C10.7452 0 0 10.7452 0 24Z" fill="#1D74BB"/>
<path d="M37.6725 14.136C37.6725 14.136 40.509 14.109 40.725 16.8645C40.725 16.8645 41.2118 17.6407 39.0503 23.925C36.8888 30.2092 37.1055 29.6422 37.1055 29.6422C37.1055 29.6422 35.5658 34.0717 29.9198 33.8557C24.2738 33.6397 8.06552 33.8557 8.06552 33.8557L9.68627 28.9665H30.2168L33.4583 18.948L12.8468 18.975L14.5215 14.136H37.6725Z" fill="white"/>
<path d="M8.86277 21.7267H21.1133L19.5195 26.292H7.22852L8.86277 21.7267Z" fill="white"/>
</svg>
