<svg width="48" height="48" viewBox="0 0 48 48" fill="none" xmlns="http://www.w3.org/2000/svg">
<path d="M0 24C0 30.3652 2.52856 36.4697 7.02944 40.9706C11.5303 45.4714 17.6348 48 24 48C30.3652 48 36.4697 45.4714 40.9706 40.9706C45.4714 36.4697 48 30.3652 48 24C48 17.6348 45.4714 11.5303 40.9706 7.02944C36.4697 2.52856 30.3652 0 24 0C17.6348 0 11.5303 2.52856 7.02944 7.02944C2.52856 11.5303 0 17.6348 0 24H0Z" fill="white"/>
<path d="M24.066 10.329C29.4495 10.3297 34.1175 14.8147 34.3785 20.2357C34.6433 25.7325 30.495 30.4927 24.858 31.1617C21.1148 31.6057 20.7173 31.947 19.851 35.724C19.6118 36.7665 19.2263 37.7107 18.0023 37.4692C16.7333 37.2187 16.7948 36.1297 17.0108 35.127C18.03 30.3982 19.0718 25.674 20.082 20.943C20.298 19.929 20.7525 19.2097 21.8858 19.4692C23.061 19.7385 23.0468 20.6647 22.833 21.6187C22.4108 23.5065 21.9653 25.389 21.5903 27.2857C21.4845 27.8212 21.1905 28.506 22.2923 28.5847C26.0723 28.8532 29.4878 26.973 30.9353 23.721C32.1893 20.904 31.4918 17.4322 29.2508 15.3435C26.8005 13.059 23.3588 12.6307 20.421 14.2447C17.5838 15.8032 16.023 19.005 16.6073 22.0845C16.6583 22.353 16.7978 22.6042 16.848 22.8727C17.0318 23.8552 16.8743 24.726 15.7568 24.99C14.6783 25.245 14.3168 24.45 14.0588 23.6137C13.068 20.4022 13.7835 17.4225 15.5678 14.7352C17.463 11.8792 20.6948 10.3282 24.066 10.329Z" fill="#1E1E1E"/>
<path d="M22.3418 36.0105C22.3418 36.4509 22.5167 36.8732 22.8281 37.1846C23.1396 37.496 23.5619 37.671 24.0023 37.671C24.4427 37.671 24.865 37.496 25.1764 37.1846C25.4879 36.8732 25.6628 36.4509 25.6628 36.0105C25.6628 35.5701 25.4879 35.1477 25.1764 34.8363C24.865 34.5249 24.4427 34.35 24.0023 34.35C23.5619 34.35 23.1396 34.5249 22.8281 34.8363C22.5167 35.1477 22.3418 35.5701 22.3418 36.0105Z" fill="#EB017A"/>
</svg>
