<svg width="48" height="48" viewBox="0 0 48 48" fill="none" xmlns="http://www.w3.org/2000/svg">
<path d="M0 24.0429C0 37.2548 10.7452 48 24.0429 48C37.2548 48 48 37.2548 48 24.0429C48 15.4256 43.4256 7.50258 35.9785 3.1771C28.5744 -1.0718 19.4256 -1.0718 12.0215 3.1771C4.57437 7.50258 -1.27768e-07 15.4256 0 24.0429Z" fill="black"/>
<path d="M31.7068 20.853L34.5438 33.8885L25.2958 39.2224L31.7068 20.853ZM17.1662 17.8886L24.0008 8.94112L30.8317 17.8886L24.0008 37.4678L17.1662 17.8886ZM13.4559 33.8885L16.2929 20.8513L22.7039 39.2224L13.4559 33.8885ZM32.8453 17.5883L24.0026 6L15.16 17.5883L11.4203 34.7443L24.0008 42L36.5794 34.7443L32.8453 17.5883Z" fill="white"/>
</svg>
