<svg width="48" height="48" viewBox="0 0 48 48" fill="none" xmlns="http://www.w3.org/2000/svg">
<path d="M24 0C10.7451 0 0 10.7451 0 24C0 37.2549 10.7451 48 24 48C37.2549 48 48 37.2549 48 24C48 10.7451 37.2549 0 24 0Z" fill="#5B8F6D"/>
<path fill-rule="evenodd" clip-rule="evenodd" d="M13.4991 22.2863L24 6.74402V16.5L13.4991 22.2863ZM24 24H13.5L24 18.3V24ZM13.5 25.7143L24 41.25V31.5L13.5 25.7143Z" fill="white"/>
<path opacity="0.92" fill-rule="evenodd" clip-rule="evenodd" d="M34.5009 22.2863L24 6.74402V16.5L34.5009 22.2863ZM24 24H34.5L24 18.3V24ZM34.5 25.7143L24 41.25V31.5L34.5 25.7143ZM13.5 24H24V29.7L13.5 24Z" fill="#CAE6D3"/>
<path opacity="0.92" d="M24 24L24 29.7L34.5 24L24 24Z" fill="#9BCCAB"/>
</svg>
