<svg width="48" height="48" viewBox="0 0 48 48" fill="none" xmlns="http://www.w3.org/2000/svg">
<path d="M24 0C10.7451 0 0 10.7451 0 24C0 37.2549 10.7451 48 24 48C37.2549 48 48 37.2549 48 24C48 10.7451 37.2549 0 24 0Z" fill="#526ACC"/>
<path fill-rule="evenodd" clip-rule="evenodd" d="M24 6.74402L13.5 24L24 30.45V6.74402ZM13.5 25.7143L24 41.25V32.25L13.5 25.7143Z" fill="white"/>
<path opacity="0.92" fill-rule="evenodd" clip-rule="evenodd" d="M13.5 24L24 30.45L34.5 24L24 6.74402V17.55L13.5 24ZM24 41.25L34.5 25.7143L24 32.25V41.25Z" fill="#CCDAFF"/>
<path d="M24 17.55L24 30.45L34.5 24L24 17.55Z" fill="#8DA6EB"/>
</svg>
