<svg width="48" height="48" viewBox="0 0 48 48" fill="none" xmlns="http://www.w3.org/2000/svg">
<circle cx="24" cy="24" r="24" fill="#0090FF"/>
<path fill-rule="evenodd" clip-rule="evenodd" d="M26.2805 21.1198L25.5605 24.9598L32.4005 25.9198L31.9205 27.7198L25.2005 26.7598C24.7205 28.3198 24.4805 29.9998 23.8805 31.4398C23.2805 33.1198 22.6805 34.7998 21.9605 36.3598C21.0005 38.3998 19.3205 39.8398 17.0405 40.1998C15.7205 40.4398 14.2805 40.3198 13.2005 39.4798C12.8405 39.2398 12.4805 38.7598 12.4805 38.3998C12.4805 37.9198 12.7205 37.3198 13.0805 37.0798C13.3205 36.9598 13.9205 37.0798 14.2805 37.1998C14.6405 37.5598 15.0005 38.0398 15.2405 38.5198C15.9605 39.4798 16.9205 39.5998 17.8805 38.8798C18.9605 37.9198 19.5605 36.5998 19.9205 35.2798C20.6405 32.3998 21.3605 29.6398 21.9605 26.7598V26.2798L15.6005 25.3198L15.8405 23.5198L22.4405 24.4798L23.2805 20.7598L16.4405 19.6798L16.6805 17.7598L23.7605 18.7198C24.0005 17.9998 24.1205 17.3998 24.3605 16.7998C24.9605 14.6398 25.5605 12.4798 27.0005 10.5598C28.4405 8.63981 30.1205 7.43981 32.6405 7.55981C33.7205 7.55981 34.8005 7.91981 35.5205 8.75981C35.6405 8.87981 35.8805 9.11981 35.8805 9.35981C35.8805 9.83981 35.8805 10.4398 35.5205 10.7998C35.0405 11.1598 34.4405 11.0398 33.9605 10.5598C33.6005 10.1998 33.3605 9.83981 33.0005 9.47981C32.2805 8.51981 31.2005 8.39981 30.3605 9.23981C29.7605 9.83981 29.1605 10.6798 28.8005 11.5198C27.9605 14.0398 27.3605 16.6798 26.5205 19.3198L33.1205 20.2798L32.6405 22.0798L26.2805 21.1198Z" fill="white"/>
</svg>
