<svg width="48" height="48" viewBox="0 0 48 48" fill="none" xmlns="http://www.w3.org/2000/svg">
<path d="M24 48C37.2548 48 48 37.2548 48 24C48 10.7452 37.2548 0 24 0C10.7452 0 0 10.7452 0 24C0 37.2548 10.7452 48 24 48Z" fill="#7B3FE4"/>
<path d="M39.9998 24.5602V31.8006C39.9972 32.2522 39.8779 32.6953 39.6535 33.0867C39.4292 33.4781 39.1075 33.8043 38.7198 34.0335L32.4698 37.6463C32.0827 37.8778 31.6405 38 31.1898 38C30.7392 38 30.2969 37.8778 29.9098 37.6463L23.6598 34.0335C23.2722 33.8043 22.9504 33.4781 22.7261 33.0867C22.5018 32.6953 22.3824 32.2522 22.3798 31.8006V29.7685L25.5798 27.9045V31.4369L31.1798 34.6983L36.7798 31.4369V24.929L31.1798 21.6675L18.0598 29.2943C17.6691 29.5152 17.2282 29.6313 16.7798 29.6313C16.3314 29.6313 15.8905 29.5152 15.4998 29.2943L9.2498 25.6666C8.86814 25.4339 8.5526 25.1064 8.33366 24.7157C8.11472 24.3251 7.99976 23.8844 7.99982 23.4362V16.1957C8.0024 15.7442 8.12174 15.3011 8.34608 14.9097C8.57048 14.5184 8.8922 14.1921 9.2798 13.9629L15.5298 10.3502C15.9177 10.1209 16.3597 10 16.8098 10C17.26 10 17.7019 10.1209 18.0898 10.3502L24.3398 13.9629C24.7275 14.1921 25.0492 14.5184 25.2735 14.9097C25.4979 15.3011 25.6172 15.7442 25.6198 16.1957V18.2279L22.3998 20.0794V16.5671L16.7998 13.3056L11.1998 16.5671V23.0674L16.7998 26.3289L29.9198 18.702C30.3105 18.4811 30.7514 18.3651 31.1998 18.3651C31.6483 18.3651 32.0891 18.4811 32.4798 18.702L38.7298 22.3298C39.1152 22.5601 39.4347 22.8865 39.6573 23.2773C39.8798 23.6681 39.9978 24.1101 39.9998 24.5602Z" fill="white"/>
</svg>
