<svg width="48" height="48" viewBox="0 0 48 48" fill="none" xmlns="http://www.w3.org/2000/svg">
<path d="M24 48C37.2548 48 48 37.2548 48 24C48 10.7452 37.2548 0 24 0C10.7452 0 0 10.7452 0 24C0 37.2548 10.7452 48 24 48Z" fill="#111111"/>
<path d="M32.1599 11.88L26.52 20.25C26.13 20.82 26.88 21.51 27.42 21.03L32.9699 16.2C33.1201 16.08 33.33 16.17 33.33 16.38V31.47C33.33 31.68 33.06 31.7701 32.94 31.6199L16.14 11.52C15.6 10.86 14.82 10.5 13.95 10.5H13.35C11.79 10.5 10.5 11.79 10.5 13.38V34.62C10.5 36.2099 11.79 37.5 13.38 37.5C14.37 37.5 15.3 36.99 15.84 36.12L21.48 27.75C21.87 27.1801 21.12 26.4899 20.58 26.97L15.03 31.7701C14.88 31.8899 14.67 31.8 14.67 31.59V16.53C14.67 16.32 14.94 16.23 15.06 16.38L31.86 36.4799C32.4 37.14 33.21 37.5 34.0499 37.5H34.65C36.24 37.5 37.53 36.2099 37.53 34.62V13.38C37.5 11.79 36.2099 10.5 34.62 10.5C33.63 10.5 32.6999 11.01 32.1599 11.88Z" fill="white"/>
</svg>
