<svg width="48" height="48" viewBox="0 0 48 48" fill="none" xmlns="http://www.w3.org/2000/svg">
<path d="M0 24C0 37.2548 10.7452 48 24 48C37.2548 48 48 37.2548 48 24C48 10.7452 37.2548 0 24 0C10.7452 0 0 10.7452 0 24Z" fill="#58BF00"/>
<path fill-rule="evenodd" clip-rule="evenodd" d="M37.4451 12.6094L37.2634 12.6728L21.6291 18.2888L10.8068 13.1828L26.2011 7.65426L26.3357 7.60626L26.6203 7.50255L26.7214 7.46741L37.5437 12.5734L37.4451 12.6094ZM37.7143 13.086V34.4597L26.4703 29.1574V17.1231L37.7143 13.086ZM10.3714 34.8531L21.3454 40.0285V18.7543L10.3714 13.5763V34.8531Z" fill="white"/>
</svg>
