<svg width="48" height="48" viewBox="0 0 48 48" fill="none" xmlns="http://www.w3.org/2000/svg">
<path d="M0 24C0 30.3652 2.52856 36.4697 7.02944 40.9706C11.5303 45.4714 17.6348 48 24 48C30.3652 48 36.4697 45.4714 40.9706 40.9706C45.4714 36.4697 48 30.3652 48 24C48 17.6348 45.4714 11.5303 40.9706 7.02944C36.4697 2.52856 30.3652 0 24 0C17.6348 0 11.5303 2.52856 7.02944 7.02944C2.52856 11.5303 0 17.6348 0 24Z" fill="white"/>
<circle cx="24" cy="14.1562" r="8.15625" fill="#88BCF5"/>
<circle cx="14.1562" cy="24" r="8.15625" fill="#205FEC"/>
<circle cx="24" cy="33.8438" r="8.15625" fill="#3274EE"/>
<circle cx="33.8438" cy="24" r="8.15625" fill="#5894F4"/>
<path d="M16.0693 16.0693C19.0373 16.7827 21.3735 19.1189 22.0869 22.0869C19.1189 21.3735 16.7827 19.0373 16.0693 16.0693Z" fill="#134AEF"/>
<path d="M22.0869 25.9131C21.3735 28.881 19.0373 31.2172 16.0693 31.9306C16.7827 28.9627 19.1189 26.6265 22.0869 25.9131Z" fill="#0831E8"/>
<path d="M25.9131 25.9131C28.881 26.6265 31.2172 28.9627 31.9306 31.9306C28.9627 31.2172 26.6265 28.881 25.9131 25.9131Z" fill="#154CEA"/>
<path d="M31.9306 16.0693C31.2172 19.0373 28.881 21.3735 25.9131 22.0869C26.6265 19.1189 28.9627 16.7827 31.9306 16.0693Z" fill="#3070F2"/>
</svg>
