<svg width="48" height="48" viewBox="0 0 48 48" fill="none" xmlns="http://www.w3.org/2000/svg">
<path d="M24 48C37.2548 48 48 37.2548 48 24C48 10.7452 37.2548 0 24 0C10.7452 0 0 10.7452 0 24C0 37.2548 10.7452 48 24 48Z" fill="#FF0420"/>
<path d="M17.0048 30.3788C15.5757 30.3788 14.4049 30.0425 13.4922 29.37C12.5915 28.6856 12.1412 27.7129 12.1412 26.4519C12.1412 26.1877 12.1713 25.8634 12.2313 25.4792C12.3875 24.6146 12.6096 23.5758 12.8978 22.3629C13.7144 19.0605 15.8219 17.4093 19.2204 17.4093C20.1451 17.4093 20.9737 17.5654 21.7063 17.8776C22.4388 18.1778 23.0152 18.6342 23.4355 19.2466C23.8558 19.847 24.066 20.5676 24.066 21.4082C24.066 21.6604 24.036 21.9786 23.9759 22.3629C23.7958 23.4317 23.5796 24.4705 23.3274 25.4792C22.9071 27.1244 22.1806 28.3553 21.1478 29.1719C20.1151 29.9765 18.7341 30.3788 17.0048 30.3788ZM17.257 27.7849C17.9295 27.7849 18.4999 27.5867 18.9683 27.1905C19.4486 26.7942 19.7909 26.1877 19.995 25.3712C20.2712 24.2423 20.4814 23.2575 20.6255 22.4169C20.6735 22.1648 20.6975 21.9066 20.6975 21.6423C20.6975 20.5496 20.1271 20.0031 18.9863 20.0031C18.3137 20.0031 17.7373 20.2013 17.257 20.5976C16.7887 20.9939 16.4524 21.6004 16.2483 22.4169C16.0321 23.2215 15.8159 24.2063 15.5998 25.3712C15.5517 25.6113 15.5277 25.8634 15.5277 26.1276C15.5277 27.2325 16.1042 27.7849 17.257 27.7849Z" fill="white"/>
<path d="M24.8931 30.1987C24.761 30.1987 24.6588 30.1566 24.5868 30.0725C24.5268 29.9764 24.5088 29.8684 24.5328 29.7483L27.0186 18.0397C27.0426 17.9076 27.1087 17.7995 27.2168 17.7154C27.3249 17.6314 27.4389 17.5894 27.559 17.5894H32.3506C33.6835 17.5894 34.7523 17.8655 35.5569 18.4179C36.3735 18.9704 36.7818 19.7689 36.7818 20.8137C36.7818 21.1139 36.7458 21.4262 36.6737 21.7504C36.3735 23.1314 35.7671 24.1522 34.8544 24.8127C33.9538 25.4732 32.7168 25.8034 31.1436 25.8034H28.7119L27.8833 29.7483C27.8592 29.8804 27.7932 29.9884 27.6852 30.0725C27.5771 30.1566 27.4629 30.1987 27.3429 30.1987H24.8931ZM31.2698 23.3176C31.7741 23.3176 32.2124 23.1794 32.5847 22.9032C32.969 22.6271 33.2212 22.2308 33.3413 21.7144C33.3773 21.5102 33.3953 21.3301 33.3953 21.174C33.3953 20.8257 33.2933 20.5615 33.0891 20.3814C32.8849 20.1892 32.5367 20.0932 32.0443 20.0932H29.8827L29.1982 23.3176H31.2698Z" fill="white"/>
</svg>
