<svg width="48" height="48" viewBox="0 0 48 48" fill="none" xmlns="http://www.w3.org/2000/svg">
<path d="M0 24C-4.69644e-08 27.1517 0.620778 30.2726 1.82689 33.1844C3.033 36.0962 4.80083 38.742 7.02944 40.9706C9.25804 43.1992 11.9038 44.967 14.8156 46.1731C17.7274 47.3792 20.8483 48 24 48C27.1517 48 30.2726 47.3792 33.1844 46.1731C36.0962 44.967 38.742 43.1992 40.9706 40.9706C43.1992 38.742 44.967 36.0962 46.1731 33.1844C47.3792 30.2726 48 27.1517 48 24C48 20.8483 47.3792 17.7274 46.1731 14.8156C44.967 11.9038 43.1992 9.25804 40.9706 7.02944C38.742 4.80083 36.0962 3.033 33.1844 1.82689C30.2726 0.620778 27.1517 0 24 0C20.8483 0 17.7274 0.620778 14.8156 1.82689C11.9038 3.033 9.25804 4.80083 7.02944 7.02944C4.80083 9.25804 3.033 11.9038 1.82689 14.8156C0.620778 17.7274 -4.69644e-08 20.8483 0 24Z" fill="#00002F"/>
<path d="M14.2663 29.9769C14.443 29.8002 14.6811 29.7003 14.9346 29.7003H38.0512C38.4737 29.7003 38.6811 30.2074 38.3815 30.507L33.8104 35.0704C33.6337 35.2471 33.3956 35.3469 33.1421 35.3469H10.0332C9.61069 35.3469 9.40326 34.8399 9.70288 34.5403L14.2663 29.9769Z" fill="url(#paint0_linear_33_5373)"/>
<path d="M33.8104 21.3956C33.6337 21.2189 33.3956 21.119 33.1421 21.119H10.0332C9.61069 21.119 9.40326 21.6261 9.70288 21.9257L14.2739 26.4891C14.4506 26.6658 14.6888 26.7656 14.9423 26.7656H38.0588C38.4814 26.7656 38.6888 26.2586 38.3892 25.959L33.8104 21.3956Z" fill="url(#paint1_linear_33_5373)"/>
<path d="M14.2663 12.9295C14.443 12.7528 14.6811 12.653 14.9346 12.653H38.0512C38.4737 12.653 38.6811 13.16 38.3815 13.4596L33.8104 18.023C33.6337 18.1997 33.3956 18.2996 33.1421 18.2996H10.0332C9.61069 18.2996 9.40326 17.7925 9.70288 17.4929L14.2663 12.9295Z" fill="url(#paint2_linear_33_5373)"/>
<defs>
<linearGradient id="paint0_linear_33_5373" x1="29.1411" y1="6.42655" x2="13.1457" y2="37.0656" gradientUnits="userSpaceOnUse">
<stop stop-color="#00FFA3"/>
<stop offset="1" stop-color="#DC1FFF"/>
</linearGradient>
<linearGradient id="paint1_linear_33_5373" x1="29.1463" y1="6.42372" x2="13.1533" y2="37.0662" gradientUnits="userSpaceOnUse">
<stop stop-color="#00FFA3"/>
<stop offset="1" stop-color="#DC1FFF"/>
</linearGradient>
<linearGradient id="paint2_linear_33_5373" x1="29.1411" y1="6.4276" x2="13.1457" y2="37.0666" gradientUnits="userSpaceOnUse">
<stop stop-color="#00FFA3"/>
<stop offset="1" stop-color="#DC1FFF"/>
</linearGradient>
</defs>
</svg>
