<svg width="48" height="48" viewBox="0 0 48 48" fill="none" xmlns="http://www.w3.org/2000/svg">
<path d="M0 24C0 30.3652 2.52856 36.4697 7.02944 40.9706C11.5303 45.4714 17.6348 48 24 48C30.3652 48 36.4697 45.4714 40.9706 40.9706C45.4714 36.4697 48 30.3652 48 24C48 17.6348 45.4714 11.5303 40.9706 7.02944C36.4697 2.52856 30.3652 0 24 0C17.6348 0 11.5303 2.52856 7.02944 7.02944C2.52856 11.5303 0 17.6348 0 24H0Z" fill="#22272B"/>
<path d="M33.81 11.9551H37.8225L29.475 20.6176C26.4525 23.7526 21.555 23.7526 18.5325 20.6176L10.1775 11.9551H14.19L20.535 18.5326C22.4475 20.5201 25.5525 20.5201 27.465 18.5326L33.81 11.9551ZM14.1375 36.0451H10.125L18.525 27.3301C21.5475 24.1951 26.445 24.1951 29.475 27.3301L37.875 36.0451H33.8625L27.465 29.4151C25.5525 27.4276 22.4475 27.4276 20.535 29.4151L14.1375 36.0451Z" fill="white"/>
</svg>
