<svg width="48" height="48" viewBox="0 0 48 48" fill="none" xmlns="http://www.w3.org/2000/svg">
<path d="M24 5.08496C13.5532 5.08496 5.08505 13.5531 5.08505 24C5.08505 34.4468 13.5532 42.9252 24 42.9252C34.4469 42.9252 42.915 34.457 42.915 24.0102C42.915 13.5634 34.4469 5.08496 24 5.08496ZM32.5605 16.5262L30.7151 18.8739L22.411 30.305H32.5605V35.1542H26.0094V39.1627H25.5276V39.1832H22.4725V39.1627H21.9906V35.1542H15.4396V31.4942L17.285 29.1465L25.5891 17.7155H15.4396V12.8663H21.9906V8.8372H26.0094V12.856H32.5605V16.5262Z" fill="#F4B728"/>
<path d="M24 0C10.7646 0 0 10.7646 0 24C0 37.2354 10.7646 48 24 48C37.2354 48 48 37.2354 48 24C48 10.7646 37.2354 0 24 0ZM24 44.0427C12.9483 44.0427 3.95728 35.0517 3.95728 24C3.95728 12.9483 12.9483 3.96754 24 3.96754C35.0517 3.96754 44.0427 12.9586 44.0427 24.0103C44.0427 35.0619 35.0517 44.0427 24 44.0427ZM26.0094 12.8663H32.5604V16.5263L22.4109 30.305H32.5604V35.1542H26.0094V39.1628H21.9906V35.1542H15.4396V31.4942L25.5891 17.7155H15.4396V12.8663H21.9906V8.83725H26.0094V12.8663Z" fill="#231F20"/>
</svg>
