<svg width="1em" height="1em" viewBox="0 0 40 40" fill="none" xmlns="http://www.w3.org/2000/svg">
    <g clip-path="url(#clip0_278_8945)">
        <path d="M20 40C31.0457 40 40 31.0457 40 20C40 8.9543 31.0457 0 20 0C8.9543 0 0 8.9543 0 20C0 31.0457 8.9543 40 20 40Z" fill="#6E5DE6"/>
        <path d="M30.2083 32.961C29.8633 33.2505 29.3488 33.2059 29.06 32.8609L21.9655 24.406C21.9559 24.3958 21.9476 24.3855 21.9394 24.3752C21.7899 24.2112 21.5751 24.1083 21.3357 24.1083C21.0963 24.1083 20.8816 24.2112 20.7321 24.3752C20.7211 24.3889 20.7101 24.4012 20.6984 24.415L13.8207 32.6118C12.9523 33.6456 11.4102 33.7808 10.375 32.913C9.34053 32.0445 9.20539 30.5024 10.0738 29.4673L26.8415 9.48305C27.131 9.13731 27.0857 8.62419 26.7413 8.3347C26.3969 8.04522 25.8825 8.09049 25.593 8.43486L20.0913 14.9744C19.6434 15.5184 18.9643 15.8648 18.2042 15.8648C17.4441 15.8648 16.7657 15.5184 16.317 14.9744L10.8353 8.50689C10.5458 8.16183 10.5911 7.64803 10.9361 7.35854C11.2812 7.06905 11.795 7.11364 12.0845 7.4587L17.5738 13.9365C17.5834 13.9468 17.5923 13.9571 17.6012 13.968C17.7507 14.132 17.9655 14.2349 18.2049 14.2349C18.4443 14.2349 18.659 14.132 18.8085 13.968C18.8181 13.9571 18.8271 13.9468 18.836 13.9358L24.3445 7.38804C25.2122 6.35425 26.755 6.21911 27.7902 7.08689C28.824 7.95535 28.9591 9.49745 28.0913 10.5326L11.3237 30.5168C11.0335 30.8612 11.0781 31.3757 11.4232 31.6652C11.7689 31.9547 12.2834 31.9094 12.5722 31.565L19.4472 23.3716C19.4472 23.3716 19.452 23.3654 19.4547 23.362C19.9027 22.8221 20.5798 22.4784 21.3364 22.4784C22.0931 22.4784 22.7674 22.8214 23.216 23.3592C23.2201 23.364 23.2236 23.3688 23.2277 23.3729L30.3091 31.8127C30.5986 32.1577 30.5534 32.6715 30.209 32.961H30.2083Z" fill="white"/>
    </g>
    <defs>
        <clipPath id="clip0_278_8945">
            <rect width="40" height="40" fill="white"/>
        </clipPath>
    </defs>
</svg>
