<svg width="48" height="48" viewBox="0 0 48 48" fill="none" xmlns="http://www.w3.org/2000/svg">
<path fill-rule="evenodd" clip-rule="evenodd" d="M8 10C9.10457 10 10 10.8954 10 12C10 17.7549 14.713 22.3949 20.4672 22.305L35.2456 22.074L26.5858 13.4142C25.8047 12.6332 25.8047 11.3668 26.5858 10.5858C27.3668 9.80474 28.6332 9.80474 29.4142 10.5858L41.4142 22.5858C42.1953 23.3668 42.1953 24.6332 41.4142 25.4142L29.4142 37.4142C28.6332 38.1953 27.3668 38.1953 26.5858 37.4142C25.8047 36.6332 25.8047 35.3668 26.5858 34.5858L35.0947 26.0769L20.5297 26.3045C12.5422 26.4293 6 19.9885 6 12C6 10.8954 6.89543 10 8 10Z" fill="black"/>
</svg>
