<svg width="1em" height="1em" viewBox="0 0 48 48" fill="none" xmlns="http://www.w3.org/2000/svg">
<path d="M39.4142 26.5858C40.1953 27.3668 40.1953 28.6332 39.4142 29.4142C38.6332 30.1953 37.3668 30.1953 36.5858 29.4142L26 18.8284V42C26 43.1046 25.1046 44 24 44C22.8954 44 22 43.1046 22 42V18.8284L11.4142 29.4142C10.6332 30.1953 9.36684 30.1953 8.58579 29.4142C7.80474 28.6332 7.80474 27.3668 8.58579 26.5858L22.5858 12.5858C23.3668 11.8047 24.6332 11.8047 25.4142 12.5858L39.4142 26.5858Z" fill="currentColor"/>
<path d="M10 8C8.89543 8 8 7.10457 8 6C8 4.89543 8.89543 4 10 4H38C39.1046 4 40 4.89543 40 6C40 7.10457 39.1046 8 38 8H10Z" fill="currentColor"/>
</svg>
