<svg width="48" height="48" viewBox="0 0 48 48" fill="none" xmlns="http://www.w3.org/2000/svg">
<path fill-rule="evenodd" clip-rule="evenodd" d="M40 38C38.8954 38 38 37.1046 38 36C38 30.2451 33.287 25.6051 27.5328 25.695L12.7544 25.926L21.4142 34.5858C22.1953 35.3668 22.1953 36.6332 21.4142 37.4142C20.6332 38.1953 19.3668 38.1953 18.5858 37.4142L6.58578 25.4142C5.80474 24.6332 5.80474 23.3668 6.58578 22.5858L18.5858 10.5858C19.3668 9.80474 20.6332 9.80474 21.4142 10.5858C22.1953 11.3668 22.1953 12.6332 21.4142 13.4142L12.9053 21.9231L27.4703 21.6955C35.4578 21.5707 42 28.0115 42 36C42 37.1046 41.1046 38 40 38Z" fill="black"/>
</svg>
