<svg width="48" height="48" viewBox="0 0 48 48" fill="none" xmlns="http://www.w3.org/2000/svg">
<path fill-rule="evenodd" clip-rule="evenodd" d="M19.6348 32.7544L30.7954 26.058C32.3711 25.1126 33.3137 24.5423 33.9489 24.0774C33.9863 24.05 34.0209 24.0242 34.0528 24C34.0209 23.9757 33.9863 23.9499 33.9489 23.9226C33.3137 23.4577 32.3711 22.8874 30.7954 21.942L19.6348 15.2456C17.9807 14.2532 16.9762 13.6551 16.2245 13.293C16.1782 13.2707 16.1349 13.2504 16.0946 13.2319C16.0898 13.2759 16.085 13.3235 16.0802 13.3747C16.004 14.2055 16 15.3747 16 17.3036V30.6964C16 32.6253 16.004 33.7944 16.0802 34.6253C16.085 34.6765 16.0898 34.724 16.0946 34.7681C16.1349 34.7496 16.1781 34.7293 16.2245 34.7069C16.9724 34.3466 17.9708 33.7527 19.6104 32.769C19.6185 32.7641 19.6266 32.7592 19.6348 32.7544ZM21.6928 36.1843L32.8534 29.4879C35.8703 27.6778 37.3787 26.7727 37.8904 25.6023C38.337 24.5808 38.337 23.4192 37.8904 22.3977C37.3787 21.2272 35.8703 20.3222 32.8534 18.512L21.6928 11.8157C18.5202 9.91212 16.9339 8.96036 15.6288 9.08202C14.4907 9.1881 13.4523 9.776 12.7758 10.6973C12 11.7539 12 13.6038 12 17.3036V30.6964C12 34.3962 12 36.2461 12.7758 37.3027C13.4523 38.224 14.4907 38.8119 15.6288 38.918C16.9339 39.0396 18.5203 38.0878 21.6928 36.1843Z" fill="black"/>
</svg>
