<svg width="1em" height="1em" viewBox="0 0 48 48" fill="none" xmlns="http://www.w3.org/2000/svg">
<path d="M23.4142 13.4142C24.1953 12.6332 24.1953 11.3668 23.4142 10.5858C22.6332 9.80474 21.3668 9.80474 20.5858 10.5858L8.58579 22.5858C7.80474 23.3668 7.80474 24.6332 8.58579 25.4142L20.5858 37.4142C21.3668 38.1953 22.6332 38.1953 23.4142 37.4142C24.1953 36.6332 24.1953 35.3668 23.4142 34.5858L12.8284 24L23.4142 13.4142Z" fill="currentColor"/>
<path d="M37.4142 13.4142C38.1953 12.6332 38.1953 11.3668 37.4142 10.5858C36.6332 9.80474 35.3668 9.80474 34.5858 10.5858L22.5858 22.5858C21.8047 23.3668 21.8047 24.6332 22.5858 25.4142L34.5858 37.4142C35.3668 38.1953 36.6332 38.1953 37.4142 37.4142C38.1953 36.6332 38.1953 35.3668 37.4142 34.5858L26.8284 24L37.4142 13.4142Z" fill="currentColor"/>
</svg>
