<svg width="1em" height="1em" viewBox="0 0 48 48" fill="none" xmlns="http://www.w3.org/2000/svg">
<path d="M25.4142 6.58579C24.6332 5.80474 23.3668 5.80474 22.5858 6.58579L12.5858 16.5858C11.8047 17.3668 11.8047 18.6332 12.5858 19.4142C13.3668 20.1953 14.6332 20.1953 15.4142 19.4142L24 10.8284L32.5858 19.4142C33.3668 20.1953 34.6332 20.1953 35.4142 19.4142C36.1953 18.6332 36.1953 17.3668 35.4142 16.5858L25.4142 6.58579Z" fill="currentColor"/>
<path d="M15.4142 28.5858C14.6332 27.8047 13.3668 27.8047 12.5858 28.5858C11.8047 29.3668 11.8047 30.6332 12.5858 31.4142L22.5858 41.4142C23.3668 42.1953 24.6332 42.1953 25.4142 41.4142L35.4142 31.4142C36.1953 30.6332 36.1953 29.3668 35.4142 28.5858C34.6332 27.8047 33.3668 27.8047 32.5858 28.5858L24 37.1716L15.4142 28.5858Z" fill="currentColor"/>
</svg>
