<svg width="1em" height="1em" viewBox="0 0 48 48"  xmlns="http://www.w3.org/2000/svg">
<path d="M24.5858 34.5858C23.8047 35.3668 23.8047 36.6332 24.5858 37.4142C25.3668 38.1953 26.6332 38.1953 27.4142 37.4142L39.4142 25.4142C40.1953 24.6332 40.1953 23.3668 39.4142 22.5858L27.4142 10.5858C26.6332 9.80474 25.3668 9.80474 24.5858 10.5858C23.8047 11.3668 23.8047 12.6332 24.5858 13.4142L35.1716 24L24.5858 34.5858Z" fill="currentColor"/>
<path d="M10.5858 34.5858C9.80474 35.3668 9.80474 36.6332 10.5858 37.4142C11.3668 38.1953 12.6332 38.1953 13.4142 37.4142L25.4142 25.4142C26.1953 24.6332 26.1953 23.3668 25.4142 22.5858L13.4142 10.5858C12.6332 9.80474 11.3668 9.80474 10.5858 10.5858C9.80474 11.3668 9.80474 12.6332 10.5858 13.4142L21.1716 24L10.5858 34.5858Z" fill="currentColor"/>
</svg>
