<svg width="48" height="48" viewBox="0 0 48 48" fill="none" xmlns="http://www.w3.org/2000/svg">
<path d="M39.4142 21.4142C40.1953 20.6332 40.1953 19.3668 39.4142 18.5858C38.6332 17.8047 37.3668 17.8047 36.5858 18.5858L26 29.1716V6C26 4.89543 25.1046 4 24 4C22.8954 4 22 4.89543 22 6V29.1716L11.4142 18.5858C10.6332 17.8047 9.36684 17.8047 8.58579 18.5858C7.80474 19.3668 7.80474 20.6332 8.58579 21.4142L22.5858 35.4142C23.3668 36.1953 24.6332 36.1953 25.4142 35.4142L39.4142 21.4142Z" fill="black"/>
<path d="M10 40C8.89543 40 8 40.8954 8 42C8 43.1046 8.89543 44 10 44H38C39.1046 44 40 43.1046 40 42C40 40.8954 39.1046 40 38 40H10Z" fill="black"/>
</svg>
