<svg width="1em" height="1em" viewBox="0 0 48 48" fill="none" xmlns="http://www.w3.org/2000/svg">
<path d="M20 6H16.9315C15.5919 5.99998 14.4861 5.99997 13.5809 6.06173C12.6424 6.12577 11.7742 6.26284 10.9385 6.60897C8.97831 7.42092 7.42092 8.97831 6.60897 10.9385C6.26284 11.7742 6.12577 12.6424 6.06173 13.5809C5.99997 14.4861 5.99998 15.5919 6 16.9314V31.0685C5.99998 32.4081 5.99997 33.5139 6.06173 34.4191C6.12577 35.3576 6.26284 36.2258 6.60897 37.0615C7.42092 39.0217 8.97831 40.5791 10.9385 41.391C11.7742 41.7372 12.6424 41.8742 13.5809 41.9383C14.4861 42 15.5919 42 16.9315 42H20C24.4183 42 28 38.4183 28 34C28 32.8954 27.1046 32 26 32C24.8954 32 24 32.8954 24 34C24 36.2091 22.2091 38 20 38H17C15.5748 38 14.6061 37.9989 13.8532 37.9475C13.1183 37.8974 12.7363 37.8061 12.4693 37.6955C11.4892 37.2895 10.7105 36.5108 10.3045 35.5307C10.1939 35.2637 10.1026 34.8817 10.0525 34.1468C10.0011 33.3939 10 32.4252 10 31V17C10 15.5748 10.0011 14.6061 10.0525 13.8532C10.1026 13.1183 10.1939 12.7363 10.3045 12.4693C10.7105 11.4892 11.4892 10.7105 12.4693 10.3045C12.7363 10.1939 13.1183 10.1026 13.8532 10.0525C14.6061 10.0011 15.5748 10 17 10H20C22.2091 10 24 11.7909 24 14C24 15.1046 24.8954 16 26 16C27.1046 16 28 15.1046 28 14C28 9.58172 24.4183 6 20 6Z" fill="currentColor"/>
<path d="M35.4142 14.5858C34.6332 13.8047 33.3668 13.8047 32.5858 14.5858C31.8047 15.3668 31.8047 16.6332 32.5858 17.4142L37.1716 22H19C17.8954 22 17 22.8954 17 24C17 25.1046 17.8954 26 19 26H37.1716L32.5858 30.5858C31.8047 31.3668 31.8047 32.6332 32.5858 33.4142C33.3668 34.1953 34.6332 34.1953 35.4142 33.4142L43.4142 25.4142C44.1953 24.6332 44.1953 23.3668 43.4142 22.5858L35.4142 14.5858Z" fill="currentColor"/>
</svg>
