<svg width="1em" height="1em" viewBox="0 0 48 48" fill="none" xmlns="http://www.w3.org/2000/svg">
<path d="M22.5858 14.5858C23.3668 13.8047 24.6332 13.8047 25.4142 14.5858C26.1953 15.3668 26.1953 16.6332 25.4142 17.4142L20.8284 22H42C43.1046 22 44 22.8954 44 24C44 25.1046 43.1046 26 42 26H20.8284L25.4142 30.5858C26.1953 31.3668 26.1953 32.6332 25.4142 33.4142C24.6332 34.1953 23.3668 34.1953 22.5858 33.4142L14.5858 25.4142C13.8047 24.6332 13.8047 23.3668 14.5858 22.5858L22.5858 14.5858Z" fill="currentColor"/>
<path d="M26 6H19.9315C18.5919 5.99998 14.4861 5.99997 13.5809 6.06173C12.6424 6.12577 11.7742 6.26284 10.9385 6.60897C8.97831 7.42092 7.42092 8.97831 6.60897 10.9385C6.26284 11.7742 6.12577 12.6424 6.06173 13.5809C5.99997 14.4861 5.99998 15.5919 6 16.9314V31.0685C5.99998 32.4081 5.99997 33.5139 6.06173 34.4191C6.12577 35.3576 6.26284 36.2258 6.60897 37.0615C7.42092 39.0217 8.97831 40.5791 10.9385 41.391C11.7742 41.7372 12.6424 41.8742 13.5809 41.9383C14.4861 42 18.5919 42 19.9315 42H26C30.4183 42 34 38.4183 34 34C34 32.8954 33.1046 32 32 32C30.8954 32 30 32.8954 30 34C30 36.2091 28.2091 38 26 38H20C18.5748 38 14.6061 37.9989 13.8532 37.9475C13.1183 37.8974 12.7363 37.8061 12.4693 37.6955C11.4892 37.2895 10.7105 36.5108 10.3045 35.5307C10.1939 35.2637 10.1026 34.8817 10.0525 34.1468C10.0011 33.3939 10 32.4252 10 31V17C10 15.5748 10.0011 14.6061 10.0525 13.8532C10.1026 13.1183 10.1939 12.7363 10.3045 12.4693C10.7105 11.4892 11.4892 10.7105 12.4693 10.3045C12.7363 10.1939 13.1183 10.1026 13.8532 10.0525C14.6061 10.0011 18.5748 10 20 10H26C28.2091 10 30 11.7909 30 14C30 15.1046 30.8954 16 32 16C33.1046 16 34 15.1046 34 14C34 9.58172 30.4183 6 26 6Z" fill="currentColor"/>
</svg>
