<svg width="1em" height="1em" viewBox="0 0 48 48" fill="none" xmlns="http://www.w3.org/2000/svg">
<path d="M26 11.8284V30C26 31.1046 25.1046 32 24 32C22.8954 32 22 31.1046 22 30V11.8284L17.4142 16.4142C16.6332 17.1953 15.3668 17.1953 14.5858 16.4142C13.8047 15.6332 13.8047 14.3668 14.5858 13.5858L22.5858 5.58579C23.3668 4.80474 24.6332 4.80474 25.4142 5.58579L33.4142 13.5858C34.1953 14.3668 34.1953 15.6332 33.4142 16.4142C32.6332 17.1953 31.3668 17.1953 30.5858 16.4142L26 11.8284Z" fill="currentColor"/>
<path d="M10 27C10 25.8954 9.10457 25 8 25C6.89543 25 6 25.8954 6 27V30.4826C5.99998 32.0925 5.99996 33.4213 6.08839 34.5037C6.18024 35.6278 6.37737 36.6613 6.87195 37.6319C7.63894 39.1372 8.86278 40.3611 10.3681 41.1281C11.3387 41.6226 12.3722 41.8198 13.4964 41.9116C14.5787 42 15.9074 42 17.5174 42H30.4826C32.0925 42 33.4213 42 34.5037 41.9116C35.6278 41.8198 36.6613 41.6226 37.6319 41.1281C39.1372 40.3611 40.3611 39.1372 41.1281 37.6319C41.6226 36.6613 41.8198 35.6278 41.9116 34.5037C42 33.4213 42 32.0926 42 30.4826V27C42 25.8954 41.1046 25 40 25C38.8954 25 38 25.8954 38 27V30.4C38 32.1132 37.9984 33.2777 37.9249 34.1779C37.8533 35.0548 37.7234 35.5032 37.564 35.816C37.1805 36.5686 36.5686 37.1805 35.816 37.564C35.5032 37.7234 35.0548 37.8533 34.1779 37.9249C33.2777 37.9984 32.1132 38 30.4 38H17.6C15.8868 38 14.7223 37.9984 13.8221 37.9249C12.9452 37.8533 12.4968 37.7234 12.184 37.564C11.4314 37.1805 10.8195 36.5686 10.436 35.816C10.2766 35.5032 10.1467 35.0548 10.0751 34.1779C10.0016 33.2777 10 32.1132 10 30.4V27Z" fill="currentColor"/>
</svg>
