<svg width="1em" height="1em" viewBox="0 0 24 24"  xmlns="http://www.w3.org/2000/svg">
<path fill-rule="evenodd" clip-rule="evenodd" d="M11.5 5.75C11.5 7.40685 10.1569 8.75 8.5 8.75C6.84315 8.75 5.5 7.40685 5.5 5.75C5.5 4.09315 6.84315 2.75 8.5 2.75C10.1569 2.75 11.5 4.09315 11.5 5.75ZM9.5 5.75C9.5 6.30228 9.05228 6.75 8.5 6.75C7.94772 6.75 7.5 6.30228 7.5 5.75C7.5 5.19772 7.94772 4.75 8.5 4.75C9.05228 4.75 9.5 5.19772 9.5 5.75Z" fill="currentColor"/>
<path fill-rule="evenodd" clip-rule="evenodd" d="M18.5 5.75C18.5 7.40685 17.1569 8.75 15.5 8.75C13.8431 8.75 12.5 7.40685 12.5 5.75C12.5 4.09315 13.8431 2.75 15.5 2.75C17.1569 2.75 18.5 4.09315 18.5 5.75ZM16.5 5.75C16.5 6.30228 16.0523 6.75 15.5 6.75C14.9477 6.75 14.5 6.30228 14.5 5.75C14.5 5.19772 14.9477 4.75 15.5 4.75C16.0523 4.75 16.5 5.19772 16.5 5.75Z" fill="currentColor"/>
<path fill-rule="evenodd" clip-rule="evenodd" d="M5 15C6.65685 15 8 13.6569 8 12C8 10.3431 6.65685 9 5 9C3.34315 9 2 10.3431 2 12C2 13.6569 3.34315 15 5 15ZM5 13C5.55228 13 6 12.5523 6 12C6 11.4477 5.55228 11 5 11C4.44772 11 4 11.4477 4 12C4 12.5523 4.44772 13 5 13Z" fill="currentColor"/>
<path fill-rule="evenodd" clip-rule="evenodd" d="M11.5 18.25C11.5 19.9069 10.1569 21.25 8.5 21.25C6.84315 21.25 5.5 19.9069 5.5 18.25C5.5 16.5931 6.84315 15.25 8.5 15.25C10.1569 15.25 11.5 16.5931 11.5 18.25ZM9.5 18.25C9.5 18.8023 9.05228 19.25 8.5 19.25C7.94772 19.25 7.5 18.8023 7.5 18.25C7.5 17.6977 7.94772 17.25 8.5 17.25C9.05228 17.25 9.5 17.6977 9.5 18.25Z" fill="currentColor"/>
<path fill-rule="evenodd" clip-rule="evenodd" d="M15.5 21.25C17.1569 21.25 18.5 19.9069 18.5 18.25C18.5 16.5931 17.1569 15.25 15.5 15.25C13.8431 15.25 12.5 16.5931 12.5 18.25C12.5 19.9069 13.8431 21.25 15.5 21.25ZM15.5 19.25C16.0523 19.25 16.5 18.8023 16.5 18.25C16.5 17.6977 16.0523 17.25 15.5 17.25C14.9477 17.25 14.5 17.6977 14.5 18.25C14.5 18.8023 14.9477 19.25 15.5 19.25Z" fill="currentColor"/>
<path fill-rule="evenodd" clip-rule="evenodd" d="M22 12C22 13.6569 20.6569 15 19 15C17.3431 15 16 13.6569 16 12C16 10.3431 17.3431 9 19 9C20.6569 9 22 10.3431 22 12ZM20 12C20 12.5523 19.5523 13 19 13C18.4477 13 18 12.5523 18 12C18 11.4477 18.4477 11 19 11C19.5523 11 20 11.4477 20 12Z" fill="currentColor"/>
</svg>
