<svg width="1em" height="1em" viewBox="0 0 24 24"  xmlns="http://www.w3.org/2000/svg">
<path fill-rule="evenodd" clip-rule="evenodd" d="M19.657 4.34315C18.9141 3.60028 18.0322 3.011 17.0616 2.60896C16.091 2.20693 15.0507 2 14.0001 2C12.9495 2 11.9093 2.20693 10.9386 2.60896C9.97363 3.00869 9.14741 3.539 8.34326 4.34315C7.96396 4.72245 7.73415 5.21246 7.5873 5.68825C7.43791 6.17227 7.35292 6.71223 7.30793 7.26113C7.21801 8.35821 7.27924 9.60799 7.39223 10.7605C7.4666 11.5191 7.56505 12.2513 7.66367 12.8925C6.32865 12.136 4.60238 12.3267 3.46458 13.4645C2.09774 14.8313 2.09774 17.0474 3.46458 18.4142L5.5859 20.5355C6.95273 21.9024 9.16881 21.9024 10.5356 20.5355C11.6436 19.4276 11.8534 17.7618 11.1653 16.4425C11.7489 16.5505 12.404 16.6563 13.0855 16.7381C14.2238 16.8747 15.4752 16.9493 16.6045 16.84C17.6929 16.7347 18.8728 16.441 19.657 15.6569C20.4611 14.8527 20.9914 14.0265 21.3911 13.0615C21.7932 12.0909 22.0001 11.0506 22.0001 10C22.0001 8.94942 21.7932 7.90914 21.3911 6.93853C20.9891 5.96793 20.3998 5.08601 19.657 4.34315ZM10.5113 14.2709C10.2814 14.2209 10.0777 14.1741 9.90637 14.1334C9.87122 13.9494 9.83046 13.7289 9.78683 13.4793C9.65143 12.7048 9.48994 11.6594 9.38268 10.5653C9.2747 9.46394 9.22544 8.34932 9.30125 7.42452C9.33912 6.96247 9.40605 6.57713 9.49835 6.27808C9.59319 5.9708 9.69484 5.82 9.75747 5.75736C10.3675 5.14729 10.9705 4.76057 11.704 4.45672C12.432 4.15519 13.2122 4 14.0001 4C14.788 4 15.5683 4.15519 16.2962 4.45672C17.0242 4.75825 17.6856 5.20021 18.2428 5.75736C18.7999 6.31451 19.2419 6.97595 19.5434 7.7039C19.8449 8.43185 20.0001 9.21207 20.0001 10C20.0001 10.7879 19.8449 11.5681 19.5434 12.2961C19.2395 13.0296 18.8528 13.6326 18.2428 14.2426C17.9662 14.5192 17.3784 14.7558 16.4118 14.8493C15.4861 14.9389 14.3951 14.8809 13.3238 14.7524C12.2599 14.6247 11.254 14.4323 10.5113 14.2709ZM4.87879 14.8787C5.46458 14.2929 6.41433 14.2929 7.00011 14.8787L9.12143 17C9.70722 17.5858 9.70722 18.5355 9.12143 19.1213C8.53565 19.7071 7.5859 19.7071 7.00011 19.1213L4.87879 17C4.29301 16.4142 4.29301 15.4645 4.87879 14.8787Z" fill="currentColor"/>
</svg>
