<svg width="1em" height="1em" viewBox="0 0 24 24" fill="none" xmlns="http://www.w3.org/2000/svg">
<path d="M13 3C13 2.44772 12.5523 2 12 2C11.4477 2 11 2.44772 11 3V21C11 21.5523 11.4477 22 12 22C12.5523 22 13 21.5523 13 21V3Z" fill="currentColor"/>
<path d="M17 5.5C17 4.94772 16.5523 4.5 16 4.5C15.4477 4.5 15 4.94772 15 5.5V17C15 17.5523 15.4477 18 16 18C16.5523 18 17 17.5523 17 17V5.5Z" fill="currentColor"/>
<path d="M8 6C8.55228 6 9 6.44772 9 7V18.5C9 19.0523 8.55228 19.5 8 19.5C7.44772 19.5 7 19.0523 7 18.5V7C7 6.44772 7.44772 6 8 6Z" fill="currentColor"/>
<path d="M4 10C4.55228 10 5 10.4477 5 11V17C5 17.5523 4.55228 18 4 18C3.44772 18 3 17.5523 3 17V11C3 10.4477 3.44772 10 4 10Z" fill="currentColor"/>
<path d="M20 7C20.5523 7 21 7.44772 21 8V13C21 13.5523 20.5523 14 20 14C19.4477 14 19 13.5523 19 13V8C19 7.44772 19.4477 7 20 7Z" fill="currentColor"/>
</svg>
