<svg width="1em" height="1em" viewBox="0 0 24 24" fill="none" xmlns="http://www.w3.org/2000/svg">
<path d="M12 22C17.5228 22 22 17.5228 22 12C22 6.47715 17.5228 2 12 2C6.47715 2 2 6.47715 2 12C2 17.5228 6.47715 22 12 22ZM12.2156 19.9972C12.1439 19.999 12.0721 20 12 20C11.973 20 11.9151 19.9995 11.8943 19.9993C10.9388 18.8532 10.1846 17.5334 9.68593 16.0942C10.449 16.0318 11.2208 16 12 16C12.7792 16 13.551 16.0318 14.3141 16.0942C13.8154 17.5334 13.0612 18.8532 12.1057 19.9993C12.1424 19.9988 12.179 19.9981 12.2156 19.9972ZM18.4418 16.7446C17.5577 17.9431 16.347 18.886 14.9412 19.442L14.9489 19.4389C15.5283 18.4715 15.998 17.431 16.3411 16.3345C17.0505 16.4449 17.7511 16.582 18.4418 16.7446ZM7.65895 7.6655C6.94953 7.55508 6.24892 7.41802 5.55818 7.25539C6.44073 6.05914 7.64853 5.11752 9.05105 4.56106C8.47174 5.52844 8.00199 6.56897 7.65895 7.6655ZM9.68593 7.90573C10.1846 6.46658 10.9388 5.1468 11.8943 4.00068C11.9295 4.00023 11.9647 4 12 4C12.0353 4 12.0705 4.00023 12.1057 4.00068C13.0612 5.1468 13.8154 6.46658 14.3141 7.90573C13.551 7.96816 12.7792 7.99999 12 7.99999C11.2208 7.99999 10.449 7.96816 9.68593 7.90573ZM20 12C20 13.0347 19.8036 14.0236 19.4459 14.9313C18.5801 14.7101 17.6993 14.5267 16.8052 14.3828C16.9333 13.6075 17 12.8115 17 12C17 11.1884 16.9333 10.3925 16.8052 9.61722C17.6993 9.47328 18.5801 9.28983 19.4459 9.06872C19.8036 9.97642 20 10.9653 20 12ZM18.4418 7.25539C17.7511 7.41802 17.0505 7.55508 16.3411 7.6655C15.998 6.56898 15.5283 5.52845 14.949 4.56106C16.3515 5.11752 17.5593 6.05914 18.4418 7.25539ZM12 9.99999C12.9507 9.99999 13.891 9.95577 14.8191 9.86927C14.938 10.5617 15 11.2736 15 12C15 12.7264 14.938 13.4383 14.8191 14.1307C13.891 14.0442 12.9507 14 12 14C11.0493 14 10.109 14.0442 9.18088 14.1307C9.06196 13.4383 9 12.7264 9 12C9 11.2736 9.06196 10.5617 9.18088 9.86927C10.109 9.95577 11.0493 9.99999 12 9.99999ZM7.19484 14.3828C6.30481 14.526 5.42788 14.7085 4.56587 14.9282C4.19941 14.0097 4 13.0184 4 12C4 10.9645 4.19675 9.97489 4.55491 9.0666L4.55408 9.06872C5.41988 9.28983 6.30075 9.47328 7.19484 9.61722C7.06668 10.3925 7 11.1884 7 12C7 12.8115 7.06667 13.6075 7.19484 14.3828ZM7.65895 16.3345C8.00199 17.431 8.47174 18.4715 9.05105 19.4389C7.64258 18.8749 6.44793 17.9248 5.57462 16.7407C6.26004 16.5798 6.95516 16.444 7.65895 16.3345Z" fill="currentColor"/>
</svg>
