<svg width="1em" height="1em" viewBox="0 0 24 24" fill="none" xmlns="http://www.w3.org/2000/svg">
<path d="M9 7C8.44771 7 8 7.44772 8 8C8 8.55229 8.44771 9 9 9H15C15.5523 9 16 8.55229 16 8C16 7.44772 15.5523 7 15 7H9Z" fill="currentColor"/>
<path fill-rule="evenodd" clip-rule="evenodd" d="M7 2C4.79086 2 3 3.79086 3 6V19C3 20.6569 4.34315 22 6 22H17C17.5523 22 18 21.5523 18 21C18 20.4477 17.5523 20 17 20H6C5.44772 20 5 19.5523 5 19C5 18.4477 5.44772 18 6 18H17C19.2091 18 21 16.2091 21 14V6C21 3.79086 19.2091 2 17 2H7ZM6 16C5.64936 16 5.31278 16.0602 5 16.1707V6C5 4.89543 5.89543 4 7 4H17C18.1046 4 19 4.89543 19 6V14C19 15.1046 18.1046 16 17 16H6Z" fill="currentColor"/>
</svg>
