<svg width="1em" height="1em" viewBox="0 0 24 24" fill="none" xmlns="http://www.w3.org/2000/svg">
<path d="M12 5.5C11.0808 5.5 10.1705 5.68106 9.32124 6.03284C8.47196 6.38463 7.70029 6.90024 7.05028 7.55025C6.40027 8.20026 5.88465 8.97194 5.53287 9.82122C5.18108 10.6705 5.00002 11.5807 5.00002 12.5C5.00002 13.0523 4.55231 13.5 4.00002 13.5C3.44774 13.5 3.00002 13.0523 3.00002 12.5C3.00002 11.3181 3.23282 10.1478 3.68511 9.05585C4.1374 7.96392 4.80033 6.97177 5.63606 6.13604C6.47179 5.30031 7.46394 4.63738 8.55587 4.18508C9.6478 3.73279 10.8181 3.5 12 3.5C13.1819 3.5 14.3522 3.73279 15.4442 4.18508C16.5361 4.63738 17.5283 5.30031 18.364 6.13604C19.1997 6.97177 19.8626 7.96392 20.3149 9.05585C20.7672 10.1478 21 11.3181 21 12.5C21 13.0523 20.5523 13.5 20 13.5C19.4477 13.5 19 13.0523 19 12.5C19 11.5807 18.819 10.6705 18.4672 9.82122C18.1154 8.97194 17.5998 8.20026 16.9498 7.55025C16.2998 6.90024 15.5281 6.38463 14.6788 6.03284C13.8295 5.68106 12.9193 5.5 12 5.5Z" fill="currentColor"/>
<path d="M20 19.5C21.1046 19.5 22 18.6046 22 17.5C22 16.3954 21.1046 15.5 20 15.5C18.8955 15.5 18 16.3954 18 17.5C18 18.6046 18.8955 19.5 20 19.5Z" fill="currentColor"/>
<path d="M2.20147 18.2015L3.29857 19.2985C3.5441 19.5441 3.66687 19.6668 3.80843 19.7128C3.93296 19.7533 4.06709 19.7533 4.19161 19.7128C4.33318 19.6668 4.45594 19.5441 4.70147 19.2985L5.79857 18.2014C6.0441 17.9559 6.16687 17.8332 6.21287 17.6916C6.25333 17.5671 6.25333 17.4329 6.21287 17.3084C6.16687 17.1668 6.0441 17.0441 5.79857 16.7985L4.70147 15.7015C4.45594 15.4559 4.33318 15.3332 4.19161 15.2872C4.06709 15.2467 3.93296 15.2467 3.80843 15.2872C3.66687 15.3332 3.5441 15.4559 3.29857 15.7015L2.20147 16.7986C1.95594 17.0441 1.83318 17.1668 1.78718 17.3084C1.74672 17.4329 1.74672 17.5671 1.78718 17.6916C1.83318 17.8332 1.95595 17.9559 2.20147 18.2015Z" fill="currentColor"/>
</svg>
