<svg width="1em" height="1em" viewBox="0 0 24 24" fill="none" xmlns="http://www.w3.org/2000/svg">
<path d="M8.7587 3H15.2413C16.0463 2.99999 16.7106 2.99998 17.2518 3.04419C17.8139 3.09012 18.3306 3.18868 18.816 3.43597C19.5686 3.81947 20.1805 4.43139 20.564 5.18404C20.8113 5.66937 20.9099 6.18608 20.9558 6.74817C21 7.28936 21 7.95372 21 8.75868L21 13.1136C21.0003 13.7486 21.0006 14.2284 20.8895 14.6911C20.7915 15.0993 20.6299 15.4895 20.4106 15.8474C20.1619 16.2531 19.8225 16.5922 19.3733 17.041L17.4142 19H19C19.5523 19 20 19.4477 20 20C20 20.5523 19.5523 21 19 21H15C14.4477 21 14 20.5523 14 20V16C14 15.4477 14.4477 15 15 15C15.5523 15 16 15.4477 16 16V17.5858L17.887 15.6988C18.4395 15.1463 18.596 14.9807 18.7053 14.8024C18.8149 14.6234 18.8957 14.4283 18.9447 14.2242C18.9936 14.0208 19 13.7931 19 13.0118V8.8C19 7.94342 18.9992 7.36113 18.9624 6.91104C18.9266 6.47262 18.8617 6.24842 18.782 6.09202C18.5903 5.7157 18.2843 5.40973 17.908 5.21799C17.7516 5.1383 17.5274 5.07337 17.089 5.03755C16.6389 5.00078 16.0566 5 15.2 5H8.8C7.94342 5 7.36113 5.00078 6.91104 5.03755C6.47262 5.07337 6.24842 5.1383 6.09202 5.21799C5.7157 5.40973 5.40973 5.7157 5.21799 6.09202C5.1383 6.24842 5.07337 6.47262 5.03755 6.91104C5.00078 7.36113 5 7.94342 5 8.8V15.2C5 16.0566 5.00078 16.6389 5.03755 17.089C5.07337 17.5274 5.1383 17.7516 5.21799 17.908C5.40973 18.2843 5.7157 18.5903 6.09202 18.782C6.24842 18.8617 6.47262 18.9266 6.91104 18.9624C7.36113 18.9992 7.94342 19 8.8 19H11C11.5523 19 12 19.4477 12 20C12 20.5523 11.5523 21 11 21H8.75868C7.95372 21 7.28936 21 6.74817 20.9558C6.18608 20.9099 5.66937 20.8113 5.18404 20.564C4.43139 20.1805 3.81947 19.5686 3.43597 18.816C3.18868 18.3306 3.09012 17.8139 3.04419 17.2518C2.99998 16.7106 2.99999 16.0463 3 15.2413V8.7587C2.99999 7.95373 2.99998 7.28937 3.04419 6.74817C3.09012 6.18608 3.18868 5.66937 3.43597 5.18404C3.81947 4.43139 4.43139 3.81947 5.18404 3.43597C5.66937 3.18868 6.18608 3.09012 6.74817 3.04419C7.28937 2.99998 7.95373 2.99999 8.7587 3Z" fill="currentColor"/>
<path d="M7 8C7 7.44772 7.44772 7 8 7H16C16.5523 7 17 7.44772 17 8C17 8.55229 16.5523 9 16 9H8C7.44772 9 7 8.55229 7 8Z" fill="currentColor"/>
<path d="M8 11C7.44772 11 7 11.4477 7 12C7 12.5523 7.44772 13 8 13H14C14.5523 13 15 12.5523 15 12C15 11.4477 14.5523 11 14 11H8Z" fill="currentColor"/>
</svg>
