<svg width="1em" height="1em" viewBox="0 0 24 24" fill="none" xmlns="http://www.w3.org/2000/svg">
<path d="M14 8C14 9.10457 13.1046 10 12 10C10.8954 10 10 9.10457 10 8C10 6.89543 10.8954 6 12 6C13.1046 6 14 6.89543 14 8Z" fill="currentColor"/>
<path d="M8.5 9.5C8.5 10.3284 7.82843 11 7 11C6.17157 11 5.5 10.3284 5.5 9.5C5.5 8.67157 6.17157 8 7 8C7.82843 8 8.5 8.67157 8.5 9.5Z" fill="currentColor"/>
<path d="M17 11C17.8284 11 18.5 10.3284 18.5 9.5C18.5 8.67157 17.8284 8 17 8C16.1716 8 15.5 8.67157 15.5 9.5C15.5 10.3284 16.1716 11 17 11Z" fill="currentColor"/>
<path fill-rule="evenodd" clip-rule="evenodd" d="M20.5 17.2704C21.4509 15.7401 22 13.9342 22 12C22 6.47715 17.5228 2 12 2C6.47715 2 2 6.47715 2 12C2 13.9342 2.54913 15.7401 3.50001 17.2704C4.01273 18.0956 4.64227 18.8406 5.3655 19.4824C5.5694 19.6633 5.78075 19.836 5.99903 20C6.51744 20.3895 7.07494 20.7298 7.66459 21.0139C8.48429 21.4089 9.36613 21.6953 10.2915 21.8546C10.8467 21.9502 11.4175 22 12 22C12.5098 22 13.0107 21.9618 13.5 21.8882C14.5642 21.7282 15.5734 21.4004 16.5 20.9327C17.0098 20.6754 17.4945 20.3757 17.9496 20.0383C17.9668 20.0256 17.9839 20.0128 18.001 20C18.1716 19.8718 18.3381 19.7382 18.5 19.5996C19.2672 18.9427 19.9338 18.1717 20.4735 17.3129C20.4823 17.2988 20.4912 17.2846 20.5 17.2704ZM18.5 16.6647C17.9528 17.4258 17.2753 18.0869 16.5 18.6153V15H17.5C18.0523 15 18.5 15.4477 18.5 16V16.6647ZM19.7453 14.0103C19.1957 13.3906 18.3935 13 17.5 13H16.5C16.2611 13 16.0286 13.0279 15.8058 13.0807C15.2555 12.4203 14.4268 12 13.5 12H10.5C9.57316 12 8.74448 12.4203 8.19418 13.0807C7.97137 13.0279 7.73895 13 7.5 13H6.5C5.60653 13 4.80429 13.3906 4.2547 14.0103C4.08845 13.368 4 12.6943 4 12C4 7.58172 7.58172 4 12 4C16.4183 4 20 7.58172 20 12C20 12.6943 19.9115 13.368 19.7453 14.0103ZM5.5 16.6647C6.04718 17.4258 6.72475 18.0869 7.5 18.6153V15H6.5C5.94772 15 5.5 15.4477 5.5 16V16.6647ZM14.5 15V19.6016C13.7135 19.8601 12.8731 20 12 20C11.1269 20 10.2865 19.8601 9.5 19.6016V15C9.5 14.4477 9.94772 14 10.5 14H13.5C14.0523 14 14.5 14.4477 14.5 15Z" fill="currentColor"/>
</svg>
