<svg width="1em" height="1em" viewBox="0 0 24 24" fill="none" xmlns="http://www.w3.org/2000/svg">
<path fill-rule="evenodd" clip-rule="evenodd" d="M11.5 3C10.1193 3 9 4.11929 9 5.5V18.5C9 19.8807 10.1193 21 11.5 21H12.5C13.8807 21 15 19.8807 15 18.5V5.5C15 4.11929 13.8807 3 12.5 3H11.5ZM11 5.5C11 5.22386 11.2239 5 11.5 5H12.5C12.7761 5 13 5.22386 13 5.5V18.5C13 18.7761 12.7761 19 12.5 19H11.5C11.2239 19 11 18.7761 11 18.5V5.5Z" fill="currentColor"/>
<path fill-rule="evenodd" clip-rule="evenodd" d="M16 10.5C16 9.11929 17.1193 8 18.5 8H19.5C20.8807 8 22 9.11929 22 10.5V18.5C22 19.8807 20.8807 21 19.5 21H18.5C17.1193 21 16 19.8807 16 18.5V10.5ZM18.5 10C18.2239 10 18 10.2239 18 10.5V18.5C18 18.7761 18.2239 19 18.5 19H19.5C19.7761 19 20 18.7761 20 18.5V10.5C20 10.2239 19.7761 10 19.5 10H18.5Z" fill="currentColor"/>
<path fill-rule="evenodd" clip-rule="evenodd" d="M2 15.5C2 14.1193 3.11929 13 4.5 13H5.5C6.88071 13 8 14.1193 8 15.5V18.5C8 19.8807 6.88071 21 5.5 21H4.5C3.11929 21 2 19.8807 2 18.5V15.5ZM4.5 15C4.22386 15 4 15.2239 4 15.5V18.5C4 18.7761 4.22386 19 4.5 19H5.5C5.77614 19 6 18.7761 6 18.5V15.5C6 15.2239 5.77614 15 5.5 15H4.5Z" fill="currentColor"/>
</svg>
