<svg width="1em" height="1em" viewBox="0 0 24 24" fill="none" xmlns="http://www.w3.org/2000/svg">
<path fill-rule="evenodd" clip-rule="evenodd" d="M13.7205 2.48362C12.6875 1.76055 11.3126 1.76055 10.2797 2.48362L2.59694 7.86154C1.4595 8.65774 1.45951 10.3423 2.59694 11.1385L10.2797 16.5164C11.3126 17.2395 12.6875 17.2395 13.7205 16.5164L21.4032 11.1385C22.5406 10.3423 22.5406 8.65774 21.4032 7.86154L13.7205 2.48362ZM11.4266 4.12208C11.7709 3.88106 12.2292 3.88106 12.5735 4.12208L20.2563 9.5L12.5735 14.8779C12.2292 15.1189 11.7709 15.1189 11.4266 14.8779L3.74387 9.5L11.4266 4.12208Z" fill="currentColor"/>
<path d="M3.07929 13.9348C2.62908 13.6149 2.00479 13.7206 1.6849 14.1708C1.36501 14.621 1.47066 15.2453 1.92087 15.5652L10.2625 21.4921C11.3029 22.2314 12.6972 22.2314 13.7377 21.4921L22.0793 15.5652C22.5295 15.2453 22.6351 14.621 22.3153 14.1708C21.9954 13.7206 21.3711 13.6149 20.9209 13.9348L12.5793 19.8617C12.2325 20.1082 11.7677 20.1082 11.4209 19.8617L3.07929 13.9348Z" fill="currentColor"/>
</svg>
