<svg width="1em" height="1em" viewBox="0 0 24 24" fill="none" xmlns="http://www.w3.org/2000/svg">
<path fill-rule="evenodd" clip-rule="evenodd" d="M10.2728 13.1414C9.56985 12.4385 8.43015 12.4385 7.72721 13.1414L7.14142 13.7272C6.43848 14.4302 6.43848 15.5698 7.14142 16.2728L7.72721 16.8586C8.43015 17.5615 9.56985 17.5615 10.2728 16.8586L10.8586 16.2728C11.5615 15.5698 11.5615 14.4301 10.8586 13.7272L10.2728 13.1414ZM8.27279 14.8586L8.85858 14.2728C8.93668 14.1947 9.06332 14.1947 9.14142 14.2728L9.72721 14.8586C9.80531 14.9367 9.80531 15.0633 9.72721 15.1414L9.14142 15.7272C9.06331 15.8053 8.93668 15.8053 8.85858 15.7272L8.27279 15.1414C8.19469 15.0633 8.19469 14.9367 8.27279 14.8586Z" fill="currentColor"/>
<path fill-rule="evenodd" clip-rule="evenodd" d="M9 21.5C12.4276 21.5 15.2356 18.847 15.4824 15.4824C18.847 15.2356 21.5 12.4276 21.5 9C21.5 5.41015 18.5898 2.5 15 2.5C11.5724 2.5 8.76444 5.15304 8.51762 8.51763C5.15304 8.76445 2.5 11.5724 2.5 15C2.5 18.5899 5.41015 21.5 9 21.5ZM10.5114 8.67665C10.6772 6.34229 12.6234 4.5 15 4.5C17.4853 4.5 19.5 6.51472 19.5 9C19.5 11.3766 17.6577 13.3228 15.3233 13.4886C14.7575 11.1126 12.8874 9.24245 10.5114 8.67665ZM4.5 15C4.5 12.5147 6.51472 10.5 9 10.5C11.4853 10.5 13.5 12.5147 13.5 15C13.5 17.4853 11.4853 19.5 9 19.5C6.51472 19.5 4.5 17.4853 4.5 15Z" fill="currentColor"/>
<path d="M7 5C5.89543 5 5 5.89543 5 7V7.5C5 8.05228 4.55228 8.5 4 8.5C3.44772 8.5 3 8.05228 3 7.5V7C3 4.79086 4.79086 3 7 3H7.5C8.05228 3 8.5 3.44772 8.5 4C8.5 4.55228 8.05228 5 7.5 5H7Z" fill="currentColor"/>
<path d="M20 15.5C20.5523 15.5 21 15.9477 21 16.5V17C21 19.2091 19.2091 21 17 21H16.5C15.9477 21 15.5 20.5523 15.5 20C15.5 19.4477 15.9477 19 16.5 19H17C18.1046 19 19 18.1046 19 17V16.5C19 15.9477 19.4477 15.5 20 15.5Z" fill="currentColor"/>
</svg>
