<svg width="1em" height="1em" viewBox="0 0 24 24" fill="none" xmlns="http://www.w3.org/2000/svg">
<path d="M7 10C7 9.44772 7.44772 9 8 9C8.55228 9 9 9.44772 9 10V11H10C10.5523 11 11 11.4477 11 12C11 12.5523 10.5523 13 10 13H9V14C9 14.5523 8.55228 15 8 15C7.44772 15 7 14.5523 7 14V13H6C5.44772 13 5 12.5523 5 12C5 11.4477 5.44772 11 6 11H7V10Z" fill="currentColor"/>
<path d="M15 10C15 9.44772 15.4477 9 16 9C16.5523 9 17 9.44772 17 10C17 10.5523 16.5523 11 16 11C15.4477 11 15 10.5523 15 10Z" fill="currentColor"/>
<path d="M18 11C17.4477 11 17 11.4477 17 12C17 12.5523 17.4477 13 18 13C18.5523 13 19 12.5523 19 12C19 11.4477 18.5523 11 18 11Z" fill="currentColor"/>
<path d="M13 12C13 11.4477 13.4477 11 14 11C14.5523 11 15 11.4477 15 12C15 12.5523 14.5523 13 14 13C13.4477 13 13 12.5523 13 12Z" fill="currentColor"/>
<path d="M16 13C15.4477 13 15 13.4477 15 14C15 14.5523 15.4477 15 16 15C16.5523 15 17 14.5523 17 14C17 13.4477 16.5523 13 16 13Z" fill="currentColor"/>
<path fill-rule="evenodd" clip-rule="evenodd" d="M23 12V16C23 18.2091 21.2091 20 19 20H5C2.79086 20 1 18.2091 1 16V12C1 7.58172 4.58172 4 9 4H15C19.4183 4 23 7.58172 23 12ZM21 12C21 8.68629 18.3137 6 15 6H9C5.68629 6 3 8.68629 3 12V16C3 17.1046 3.89543 18 5 18H19C20.1046 18 21 17.1046 21 16V12Z" fill="currentColor"/>
</svg>
