<svg width="1em" height="1em" viewBox="0 0 24 24" fill="none" xmlns="http://www.w3.org/2000/svg">
<path fill-rule="evenodd" clip-rule="evenodd" d="M21 7.5C21 10.5376 18.5376 13 15.5 13C12.4624 13 10 10.5376 10 7.5C10 4.46243 12.4624 2 15.5 2C18.5376 2 21 4.46243 21 7.5ZM19 7.5C19 9.433 17.433 11 15.5 11C13.567 11 12 9.433 12 7.5C12 5.567 13.567 4 15.5 4C17.433 4 19 5.567 19 7.5Z" fill="currentColor"/>
<path fill-rule="evenodd" clip-rule="evenodd" d="M6 20C8.20914 20 10 18.2091 10 16C10 13.7909 8.20914 12 6 12C3.79086 12 2 13.7909 2 16C2 18.2091 3.79086 20 6 20ZM6 18C7.10457 18 8 17.1046 8 16C8 14.8954 7.10457 14 6 14C4.89543 14 4 14.8954 4 16C4 17.1046 4.89543 18 6 18Z" fill="currentColor"/>
<path fill-rule="evenodd" clip-rule="evenodd" d="M17 22C18.6569 22 20 20.6569 20 19C20 17.3431 18.6569 16 17 16C15.3431 16 14 17.3431 14 19C14 20.6569 15.3431 22 17 22ZM17 20C17.5523 20 18 19.5523 18 19C18 18.4477 17.5523 18 17 18C16.4477 18 16 18.4477 16 19C16 19.5523 16.4477 20 17 20Z" fill="currentColor"/>
</svg>
