<svg width="1em" height="1em" viewBox="0 0 24 24" fill="none" xmlns="http://www.w3.org/2000/svg">
<path d="M7 7.6C7 7.03995 7 6.75992 7.10899 6.54601C7.20487 6.35785 7.35785 6.20487 7.54601 6.10899C7.75992 6 8.03995 6 8.6 6H9.4C9.96005 6 10.2401 6 10.454 6.10899C10.6422 6.20487 10.7951 6.35785 10.891 6.54601C11 6.75992 11 7.03995 11 7.6V8.4C11 8.96005 11 9.24008 10.891 9.45399C10.7951 9.64215 10.6422 9.79513 10.454 9.89101C10.2401 10 9.96005 10 9.4 10H8.6C8.03995 10 7.75992 10 7.54601 9.89101C7.35785 9.79513 7.20487 9.64215 7.10899 9.45399C7 9.24008 7 8.96005 7 8.4V7.6Z" fill="currentColor"/>
<path d="M14 7C13.4477 7 13 7.44772 13 8C13 8.55229 13.4477 9 14 9H16C16.5523 9 17 8.55229 17 8C17 7.44772 16.5523 7 16 7H14Z" fill="currentColor"/>
<path d="M7 13C7 12.4477 7.44772 12 8 12H16C16.5523 12 17 12.4477 17 13C17 13.5523 16.5523 14 16 14H8C7.44772 14 7 13.5523 7 13Z" fill="currentColor"/>
<path d="M8 16C7.44772 16 7 16.4477 7 17C7 17.5523 7.44772 18 8 18H16C16.5523 18 17 17.5523 17 17C17 16.4477 16.5523 16 16 16H8Z" fill="currentColor"/>
<path fill-rule="evenodd" clip-rule="evenodd" d="M3.43597 4.18404C3 5.03969 3 6.15979 3 8.4V15.6C3 17.8402 3 18.9603 3.43597 19.816C3.81947 20.5686 4.43139 21.1805 5.18404 21.564C6.03969 22 7.15979 22 9.4 22H14.6C16.8402 22 17.9603 22 18.816 21.564C19.5686 21.1805 20.1805 20.5686 20.564 19.816C21 18.9603 21 17.8402 21 15.6V8.4C21 6.15979 21 5.03969 20.564 4.18404C20.1805 3.43139 19.5686 2.81947 18.816 2.43597C17.9603 2 16.8402 2 14.6 2H9.4C7.15979 2 6.03969 2 5.18404 2.43597C4.43139 2.81947 3.81947 3.43139 3.43597 4.18404ZM14.6 4H9.4C8.24689 4 7.50235 4.00156 6.93567 4.04785C6.39235 4.09225 6.19091 4.1676 6.09202 4.21799C5.71569 4.40973 5.40973 4.71569 5.21799 5.09202C5.1676 5.19091 5.09225 5.39235 5.04785 5.93567C5.00156 6.50235 5 7.24689 5 8.4V15.6C5 16.7531 5.00156 17.4977 5.04785 18.0643C5.09225 18.6077 5.1676 18.8091 5.21799 18.908C5.40973 19.2843 5.71569 19.5903 6.09202 19.782C6.19091 19.8324 6.39235 19.9078 6.93567 19.9521C7.50235 19.9984 8.24689 20 9.4 20H14.6C15.7531 20 16.4977 19.9984 17.0643 19.9521C17.6077 19.9078 17.8091 19.8324 17.908 19.782C18.2843 19.5903 18.5903 19.2843 18.782 18.908C18.8324 18.8091 18.9078 18.6077 18.9521 18.0643C18.9984 17.4977 19 16.7531 19 15.6V8.4C19 7.24689 18.9984 6.50235 18.9521 5.93567C18.9078 5.39235 18.8324 5.19091 18.782 5.09202C18.5903 4.71569 18.2843 4.40973 17.908 4.21799C17.8091 4.1676 17.6077 4.09225 17.0643 4.04785C16.4977 4.00156 15.7531 4 14.6 4Z" fill="currentColor"/>
</svg>
