<svg width="1em" height="1em" viewBox="0 0 24 24" fill="none" xmlns="http://www.w3.org/2000/svg">
<path d="M6 3C6 2.44772 6.44772 2 7 2C7.55228 2 8 2.44772 8 3V4C8 4.55228 7.55228 5 7 5C6.44772 5 6 4.55228 6 4V3Z" fill="currentColor"/>
<path d="M2 7C2 6.44772 2.44772 6 3 6H4C4.55228 6 5 6.44772 5 7C5 7.55228 4.55228 8 4 8H3C2.44772 8 2 7.55228 2 7Z" fill="currentColor"/>
<path d="M3 16C2.44772 16 2 16.4477 2 17C2 17.5523 2.44772 18 3 18H4C4.55228 18 5 17.5523 5 17C5 16.4477 4.55228 16 4 16H3Z" fill="currentColor"/>
<path d="M19 7C19 6.44772 19.4477 6 20 6H21C21.5523 6 22 6.44772 22 7C22 7.55228 21.5523 8 21 8H20C19.4477 8 19 7.55228 19 7Z" fill="currentColor"/>
<path d="M20 16C19.4477 16 19 16.4477 19 17C19 17.5523 19.4477 18 20 18H21C21.5523 18 22 17.5523 22 17C22 16.4477 21.5523 16 21 16H20Z" fill="currentColor"/>
<path d="M6 20C6 19.4477 6.44772 19 7 19C7.55228 19 8 19.4477 8 20V21C8 21.5523 7.55228 22 7 22C6.44772 22 6 21.5523 6 21V20Z" fill="currentColor"/>
<path d="M17 2C16.4477 2 16 2.44772 16 3V4C16 4.55228 16.4477 5 17 5C17.5523 5 18 4.55228 18 4V3C18 2.44772 17.5523 2 17 2Z" fill="currentColor"/>
<path d="M16 20C16 19.4477 16.4477 19 17 19C17.5523 19 18 19.4477 18 20V21C18 21.5523 17.5523 22 17 22C16.4477 22 16 21.5523 16 21V20Z" fill="currentColor"/>
<path fill-rule="evenodd" clip-rule="evenodd" d="M6 9C6 7.34315 7.34315 6 9 6H15C16.6569 6 18 7.34315 18 9V15C18 16.6569 16.6569 18 15 18H9C7.34315 18 6 16.6569 6 15V9ZM9 8H15C15.5523 8 16 8.44772 16 9V15C16 15.5523 15.5523 16 15 16H9C8.44772 16 8 15.5523 8 15V9C8 8.44772 8.44772 8 9 8Z" fill="currentColor"/>
</svg>
