<svg width="1em" height="1em" viewBox="0 0 24 24" fill="none" xmlns="http://www.w3.org/2000/svg">
<path fill-rule="evenodd" clip-rule="evenodd" d="M12 11C14.4853 11 16.5 8.98528 16.5 6.5C16.5 4.01472 14.4853 2 12 2C9.51472 2 7.5 4.01472 7.5 6.5C7.5 8.98528 9.51472 11 12 11ZM12 9C13.3807 9 14.5 7.88071 14.5 6.5C14.5 5.11929 13.3807 4 12 4C10.6193 4 9.5 5.11929 9.5 6.5C9.5 7.88071 10.6193 9 12 9Z" fill="currentColor"/>
<path d="M14.0372 17.1916C14.0832 17.3331 14.2059 17.4559 14.4514 17.7014L14.7985 18.0485C15.0441 18.2941 15.1668 18.4168 15.3084 18.4628C15.4329 18.5033 15.5671 18.5033 15.6916 18.4628C15.8332 18.4168 15.9559 18.2941 16.2015 18.0485L16.5486 17.7014C16.7941 17.4559 16.9169 17.3331 16.9629 17.1916C17.0033 17.0671 17.0033 16.9329 16.9629 16.8084C16.9169 16.6668 16.7941 16.5441 16.5486 16.2985L16.2015 15.9514C15.9559 15.7059 15.8332 15.5831 15.6916 15.5371C15.5671 15.4967 15.4329 15.4967 15.3084 15.5371C15.1669 15.5831 15.0441 15.7059 14.7986 15.9514L14.4515 16.2985C14.2059 16.5441 14.0832 16.6668 14.0372 16.8084C13.9967 16.9329 13.9967 17.0671 14.0372 17.1916Z" fill="currentColor"/>
<path fill-rule="evenodd" clip-rule="evenodd" d="M21 18V19C21 20.6569 19.6569 22 18 22H6C4.34315 22 3 20.6569 3 19V18C3 14.6863 5.68629 12 9 12H15C18.3137 12 21 14.6863 21 18ZM19 19V18C19 15.7909 17.2091 14 15 14H9C6.79086 14 5 15.7909 5 18V19C5 19.5523 5.44772 20 6 20H18C18.5523 20 19 19.5523 19 19Z" fill="currentColor"/>
</svg>
