<svg width="1em" height="1em" viewBox="0 0 24 24" fill="none" xmlns="http://www.w3.org/2000/svg">
<path d="M13.5 8.50003C13.5 9.32846 12.8284 10 12 10C11.1716 10 10.5 9.32846 10.5 8.50003C10.5 7.6716 11.1716 7.00003 12 7.00003C12.8284 7.00003 13.5 7.6716 13.5 8.50003Z" fill="currentColor"/>
<path fill-rule="evenodd" clip-rule="evenodd" d="M11.3231 1.18212C11.7604 1.02311 12.2397 1.02311 12.6769 1.18212C16.1729 2.45337 18.5 5.77585 18.5 9.49574V13.2615C18.5 14.7498 19.0912 16.177 20.1435 17.2293L20.2071 17.2929C20.4931 17.5789 20.5787 18.009 20.4239 18.3827C20.2691 18.7564 19.9045 19 19.5 19H4.50003C4.09557 19 3.73093 18.7564 3.57615 18.3827C3.42137 18.009 3.50692 17.5789 3.79292 17.2929L3.85651 17.2293C4.90884 16.177 5.50003 14.7498 5.50003 13.2615V9.49574C5.50003 5.77585 7.82718 2.45337 11.3231 1.18212ZM12 3.0641C9.29813 4.04971 7.50003 6.61919 7.50003 9.49574V13.2615C7.50003 14.583 7.15641 15.8689 6.51865 17H17.4814C16.8437 15.8689 16.5 14.583 16.5 13.2615V9.49574C16.5 6.61919 14.7019 4.04971 12 3.0641Z" fill="currentColor"/>
<path d="M14.6 21.8C15.0418 21.4687 15.1314 20.8419 14.8 20.4C14.4686 19.9582 13.8418 19.8687 13.4 20.2L13.2 20.35C12.4889 20.8834 11.5111 20.8834 10.8 20.35L10.6 20.2C10.1582 19.8687 9.53137 19.9582 9.2 20.4C8.86863 20.8419 8.95817 21.4687 9.4 21.8L9.6 21.95C11.0222 23.0167 12.9778 23.0167 14.4 21.95L14.6 21.8Z" fill="currentColor"/>
</svg>
