<svg width="1em" height="1em" viewBox="0 0 24 24" fill="none" xmlns="http://www.w3.org/2000/svg">
<path d="M14.4997 12C15.6043 12 16.4997 11.1046 16.4997 10C16.4997 8.89544 15.6043 8.00001 14.4997 8.00001C13.3951 8.00001 12.4997 8.89544 12.4997 10C12.4997 11.1046 13.3951 12 14.4997 12Z" fill="currentColor"/>
<path fill-rule="evenodd" clip-rule="evenodd" d="M9.9997 2.50001C11.2373 1.78548 12.7621 1.78548 13.9997 2.50001L19.2269 5.51796C20.4645 6.23249 21.2269 7.553 21.2269 8.98206V15.018C21.2269 16.447 20.4645 17.7675 19.2269 18.4821L13.9997 21.5C12.7621 22.2145 11.2373 22.2145 9.9997 21.5L4.77246 18.4821C3.53486 17.7675 2.77246 16.447 2.77246 15.018V8.98206C2.77246 7.553 3.53486 6.23249 4.77246 5.51796L9.9997 2.50001ZM12.9997 4.23206C12.3809 3.87479 11.6185 3.87479 10.9997 4.23206L5.77246 7.25001C5.15366 7.60728 4.77246 8.26753 4.77246 8.98206V14.2859L6.9997 13C8.2373 12.2855 9.76209 12.2855 10.9997 13L16.2269 16.018C16.7363 16.312 17.1652 16.7088 17.4935 17.1735L18.2269 16.75C18.8457 16.3927 19.2269 15.7325 19.2269 15.018V8.98206C19.2269 8.26753 18.8457 7.60728 18.2269 7.25001L12.9997 4.23206ZM5.77246 16.75C5.57286 16.6348 5.39798 16.488 5.25264 16.3181L7.9997 14.7321C8.6185 14.3748 9.38089 14.3748 9.9997 14.7321L15.2269 17.75C15.4265 17.8652 15.6014 18.012 15.7468 18.1819L12.9997 19.768C12.3809 20.1252 11.6185 20.1252 10.9997 19.768L5.77246 16.75Z" fill="currentColor"/>
</svg>
