<svg width="1em" height="1em" viewBox="0 0 24 24" fill="none" xmlns="http://www.w3.org/2000/svg">
<path fill-rule="evenodd" clip-rule="evenodd" d="M11 4C7.68629 4 5 6.68629 5 10C5 10.8863 5.19152 11.7251 5.53448 12.4796L5.53586 12.4827C6.23193 14.0141 6.75579 15.1666 7.11615 15.9706C7.45763 16.7324 7.6908 17.2634 7.75657 17.4771C7.79592 17.6049 7.81973 17.6759 7.83458 17.7196C7.83515 17.7213 7.836 17.7237 7.83711 17.7269C7.84702 17.7553 7.87705 17.8414 7.8955 17.9266C7.91396 18.0118 7.92223 18.1025 7.92496 18.1325C7.92526 18.1358 7.9255 18.1384 7.92567 18.1402C7.93026 18.1861 7.93794 18.2606 7.95502 18.3932C8.00008 18.7434 8.00005 19.0343 8 19.4609L8 20H13V18C13 17.4477 13.4477 17 14 17H17V13.5C17 13.1212 17.214 12.775 17.5528 12.6056L18.5691 12.0974L17.1105 9.76365C17.0307 9.63587 16.9807 9.49169 16.9644 9.3419C16.6374 6.33828 14.0911 4 11 4ZM3 10C3 5.58172 6.58172 2 11 2C15.0422 2 18.3831 4.99717 18.9236 8.89102L20.848 11.97C20.9973 12.2089 21.0389 12.4997 20.9626 12.7708C20.8863 13.042 20.6992 13.2684 20.4472 13.3944L19 14.118V18C19 18.5523 18.5523 19 18 19H15V21C15 21.5523 14.5523 22 14 22H7C6.44772 22 6 21.5523 6 21V19.5017C6 19.0244 5.9985 18.8593 5.97137 18.6485C5.95277 18.504 5.94301 18.4127 5.93677 18.3508C5.91684 18.2919 5.88796 18.2048 5.84509 18.0655C5.84594 18.0683 5.84591 18.0682 5.84462 18.0647C5.84172 18.0568 5.83249 18.0315 5.81245 17.9818C5.78664 17.9176 5.75039 17.8311 5.70233 17.7192C5.60636 17.496 5.4702 17.1882 5.2911 16.7886C4.93319 15.9901 4.41157 14.8425 3.71374 13.3072C3.255 12.298 3 11.1774 3 10Z" fill="currentColor"/>
</svg>
