<svg width="1em" height="1em" viewBox="0 0 24 24" fill="none" xmlns="http://www.w3.org/2000/svg">
<path fill-rule="evenodd" clip-rule="evenodd" d="M3 19V7.1013C3 5.83978 3.7892 4.71304 4.97477 4.28192L9.97477 2.46374C11.9313 1.75227 14 3.20123 14 5.28312V7.66669L18.9487 9.31625C20.1737 9.72459 21 10.871 21 12.1623V19C21.5523 19 22 19.4477 22 20C22 20.5523 21.5523 21 21 21H8.5L3 21C2.44772 21 2 20.5523 2 20C2 19.4477 2.44772 19 3 19ZM12 5.28312V19H9.5V13.5C9.5 12.9477 9.05229 12.5 8.5 12.5C7.94772 12.5 7.5 12.9477 7.5 13.5V19H5V7.1013C5 6.6808 5.26307 6.30521 5.65826 6.16151L10.6583 4.34333C11.3104 4.10617 12 4.58915 12 5.28312ZM19 19V12.1623C19 11.7319 18.7246 11.3497 18.3162 11.2136L14 9.77487V19H19Z" fill="currentColor"/>
</svg>
