<svg width="1em" height="1em" viewBox="0 0 24 24" fill="none" xmlns="http://www.w3.org/2000/svg">
<path fill-rule="evenodd" clip-rule="evenodd" d="M12 22C17.5228 22 22 17.5228 22 12C22 6.47715 17.5228 2 12 2C6.47715 2 2 6.47715 2 12C2 17.5228 6.47715 22 12 22ZM4 12C4 7.58172 7.58172 4 12 4C16.4183 4 20 7.58172 20 12C20 13.4577 19.6101 14.8244 18.9289 16.0014C18.9758 15.6744 19 15.34 19 15C19 11.134 15.866 8 12 8C8.13401 8 5 11.134 5 15C5 15.34 5.02424 15.6744 5.0711 16.0015C4.3899 14.8244 4 13.4577 4 12ZM12 20C14.7614 20 17 17.7614 17 15C17 12.2386 14.7614 10 12 10C9.23858 10 7 12.2386 7 15C7 17.7614 9.23858 20 12 20Z" fill="currentColor"/>
</svg>
