<svg width="1em" height="1em" viewBox="0 0 24 24" fill="none" xmlns="http://www.w3.org/2000/svg">
<path fill-rule="evenodd" clip-rule="evenodd" d="M12.1321 3.12363C12.0445 3.11195 11.9556 3.11195 11.868 3.12363C11.792 3.13375 11.7077 3.15793 11.2849 3.30328L7.56475 4.58207C6.31917 5.01024 5.95934 5.15142 5.70702 5.36525C5.45352 5.58008 5.25753 5.85469 5.13678 6.16426C5.01659 6.47239 5.00005 6.85857 5.00005 8.17568V12.8C5.00005 14.0313 5.00909 14.4516 5.11539 14.8238C5.21754 15.1815 5.38532 15.5171 5.61018 15.8134C5.84417 16.1218 6.17502 16.3812 7.16005 17.12L10.68 19.76C11.4397 20.3298 11.6024 20.4294 11.7455 20.4671C11.9123 20.511 12.0877 20.511 12.2546 20.4671C12.3977 20.4294 12.5603 20.3298 13.32 19.76L16.84 17.12C17.8251 16.3812 18.1559 16.1218 18.3899 15.8134C18.6148 15.5171 18.7825 15.1815 18.8847 14.8238C18.991 14.4516 19 14.0313 19 12.8V8.17568C19 6.85857 18.9835 6.47239 18.8633 6.16426C18.7426 5.85469 18.5466 5.58008 18.2931 5.36525C18.0407 5.15142 17.6809 5.01024 16.4353 4.58207L12.7152 3.30328C12.2924 3.15793 12.2081 3.13375 12.1321 3.12363ZM11.6039 1.14114C11.8668 1.10611 12.1333 1.10611 12.3962 1.14114C12.6953 1.18098 12.9787 1.27866 13.3 1.3894C13.3216 1.39685 13.3434 1.40435 13.3654 1.4119L17.0855 2.6907C17.1418 2.71006 17.1974 2.72912 17.2523 2.74793C18.2545 3.09159 19.0089 3.35027 19.5861 3.83944C20.0931 4.2691 20.4851 4.81832 20.7266 5.43747C21.0015 6.14237 21.0009 6.93988 21.0001 7.99936C21.0001 8.05734 21 8.1161 21 8.17568V12.8C21 12.8466 21.0001 12.8925 21.0001 12.9378C21.0004 13.9781 21.0007 14.6978 20.8078 15.3731C20.6376 15.9692 20.3579 16.5285 19.9832 17.0224C19.5586 17.5819 18.9828 18.0134 18.1503 18.6374C18.114 18.6645 18.0773 18.6921 18.04 18.72L14.52 21.36C14.4794 21.3905 14.4392 21.4207 14.3994 21.4507C13.8332 21.8767 13.3365 22.2504 12.7637 22.4012C12.2631 22.5329 11.7369 22.5329 11.2363 22.4012C10.6635 22.2504 10.1669 21.8767 9.60071 21.4507C9.56085 21.4207 9.52064 21.3905 9.48004 21.36L5.96005 18.72C5.92281 18.6921 5.88606 18.6645 5.84981 18.6374C5.01731 18.0134 4.44145 17.5819 4.01693 17.0224C3.64217 16.5285 3.36253 15.9692 3.19228 15.3731C2.99942 14.6978 2.99966 13.9781 3.00002 12.9378C3.00004 12.8925 3.00005 12.8466 3.00005 12.8V8.17568C3.00005 8.11611 3.00001 8.05734 2.99996 7.99937C2.99916 6.93988 2.99856 6.14237 3.27351 5.43747C3.51502 4.81832 3.90698 4.2691 4.414 3.83944C4.99123 3.35027 5.74562 3.09159 6.74782 2.74793C6.80267 2.72912 6.85825 2.71006 6.91459 2.6907L10.6347 1.4119C10.6567 1.40435 10.6785 1.39685 10.7001 1.3894C11.0214 1.27866 11.3048 1.18098 11.6039 1.14114Z" fill="currentColor"/>
</svg>
