<svg width="1em" height="1em" viewBox="0 0 24 24" fill="none" xmlns="http://www.w3.org/2000/svg">
<path d="M16.9497 14.4497C17.3403 14.0592 17.3403 13.4261 16.9497 13.0355C16.5592 12.645 15.9261 12.645 15.5355 13.0355C15.0712 13.4998 14.52 13.8681 13.9134 14.1194C13.3068 14.3707 12.6566 14.5 12 14.5C11.3434 14.5 10.6932 14.3707 10.0866 14.1194C9.47995 13.8681 8.92875 13.4998 8.46446 13.0355C8.07394 12.645 7.44077 12.645 7.05025 13.0355C6.65972 13.4261 6.65972 14.0592 7.05025 14.4497C7.70026 15.0998 8.47193 15.6154 9.32121 15.9672C10.1705 16.3189 11.0807 16.5 12 16.5C12.9192 16.5 13.8295 16.3189 14.6788 15.9672C15.5281 15.6154 16.2997 15.0998 16.9497 14.4497Z" fill="currentColor"/>
<path d="M10 10C10 10.8284 9.32843 11.5 8.5 11.5C7.67157 11.5 7 10.8284 7 10C7 9.17157 7.67157 8.5 8.5 8.5C9.32843 8.5 10 9.17157 10 10Z" fill="currentColor"/>
<path d="M15.5 11.5C16.3284 11.5 17 10.8284 17 10C17 9.17157 16.3284 8.5 15.5 8.5C14.6716 8.5 14 9.17157 14 10C14 10.8284 14.6716 11.5 15.5 11.5Z" fill="currentColor"/>
<path fill-rule="evenodd" clip-rule="evenodd" d="M12 2C6.47715 2 2 6.47715 2 12C2 17.5228 6.47715 22 12 22C17.5228 22 22 17.5228 22 12C22 6.47715 17.5228 2 12 2ZM4 12C4 7.58172 7.58172 4 12 4C16.4183 4 20 7.58172 20 12C20 16.4183 16.4183 20 12 20C7.58172 20 4 16.4183 4 12Z" fill="currentColor"/>
</svg>
