<svg width="1em" height="1em" viewBox="0 0 24 24" fill="none" xmlns="http://www.w3.org/2000/svg">
<path d="M14.5 9.5C15.0523 9.5 15.5 9.05229 15.5 8.50001C15.5 7.94772 15.0523 7.5 14.5 7.5L13 7.5V6.5C13 5.94772 12.5523 5.5 12 5.5C11.4477 5.5 11 5.94772 11 6.5V7.49999L10.25 7.49998C8.73122 7.49998 7.49999 8.73119 7.49999 10.25C7.49999 11.7688 8.73121 13 10.25 13H13.75C14.1642 13 14.5 13.3358 14.5 13.75C14.5 14.1642 14.1642 14.5 13.75 14.5L9.49999 14.5C8.94771 14.5 8.49999 14.9477 8.49999 15.5C8.49999 16.0522 8.9477 16.5 9.49999 16.5L11 16.5V17.5C11 18.0523 11.4477 18.5 12 18.5C12.5523 18.5 13 18.0523 13 17.5V16.5L13.75 16.5C15.2688 16.5 16.5 15.2688 16.5 13.75C16.5 12.2312 15.2688 11 13.75 11L10.25 11C9.83578 11 9.49999 10.6642 9.49999 10.25C9.49999 9.83577 9.83578 9.49998 10.25 9.49998L11.9958 9.49999L12 9.5L12.0042 9.49999L14.5 9.5Z" fill="currentColor"/>
<path fill-rule="evenodd" clip-rule="evenodd" d="M22 12C22 17.5228 17.5228 22 12 22C6.47715 22 2 17.5228 2 12C2 6.47715 6.47715 2 12 2C17.5228 2 22 6.47715 22 12ZM20 12C20 16.4183 16.4183 20 12 20C7.58172 20 4 16.4183 4 12C4 7.58172 7.58172 4 12 4C16.4183 4 20 7.58172 20 12Z" fill="currentColor"/>
</svg>
