<svg width="1em" height="1em" viewBox="0 0 24 24" fill="none" xmlns="http://www.w3.org/2000/svg">
<path d="M3 6.5C3 6.08738 3.0714 5.69143 3.20253 5.32385L5.43934 7.56066C6.02513 8.14645 6.97487 8.14645 7.56066 7.56066C8.14645 6.97487 8.14645 6.02513 7.56066 5.43934L5.32385 3.20253C5.69143 3.0714 6.08738 3 6.5 3C8.433 3 10 4.567 10 6.5C10 7.10276 9.84763 7.66993 9.57931 8.1651L20.7071 19.2929C21.0976 19.6834 21.0976 20.3166 20.7071 20.7071C20.3166 21.0976 19.6834 21.0976 19.2929 20.7071L8.1651 9.57931C7.66993 9.84763 7.10276 10 6.5 10C4.567 10 3 8.433 3 6.5Z" fill="currentColor"/>
<path d="M19.4595 7.31071L20.2155 6.1767C20.6716 5.4925 20.5814 4.58146 20 4C19.4185 3.41854 18.5075 3.32833 17.8233 3.78447L16.6893 4.54047C16.2479 4.8347 15.9415 5.29221 15.8375 5.81234L15.6387 6.80663C15.6278 6.86071 15.6205 6.91503 15.6165 6.96928L13.4142 9.17157L14.8284 10.5858L17.0307 8.38347C17.085 8.37949 17.1393 8.37214 17.1934 8.36133L18.1876 8.16247C18.7078 8.05844 19.1653 7.75206 19.4595 7.31071Z" fill="currentColor"/>
<path d="M3.29289 19.2929L9.17157 13.4142L10.5858 14.8284L4.70711 20.7071C4.31658 21.0976 3.68342 21.0976 3.29289 20.7071C2.90237 20.3166 2.90237 19.6834 3.29289 19.2929Z" fill="currentColor"/>
</svg>
