<svg width="1em" height="1em" viewBox="0 0 24 24" fill="none" xmlns="http://www.w3.org/2000/svg">
<path fill-rule="evenodd" clip-rule="evenodd" d="M13.5257 1.64935C13.8205 1.83156 14 2.15342 14 2.5V10.382L19.5528 7.60557C19.8628 7.45058 20.2309 7.46714 20.5257 7.64935C20.8205 7.83156 21 8.15342 21 8.5V18C21 20.2091 19.2091 22 17 22H7C4.79086 22 3 20.2091 3 18V7C3 6.62123 3.214 6.27497 3.55279 6.10557L12.5528 1.60557C12.8628 1.45058 13.2309 1.46714 13.5257 1.64935ZM5 7.61803V18C5 19.1046 5.89543 20 7 20H17C18.1046 20 19 19.1046 19 18V10.118L13.4472 12.8944C13.1372 13.0494 12.7691 13.0329 12.4743 12.8507C12.1795 12.6684 12 12.3466 12 12V4.11803L5 7.61803Z" fill="currentColor"/>
</svg>
