<svg width="1em" height="1em" viewBox="0 0 24 24" fill="none" xmlns="http://www.w3.org/2000/svg">
<path d="M15.5 15.5C16.3284 15.5 17 14.8284 17 14C17 13.1715 16.3284 12.5 15.5 12.5C14.6715 12.5 14 13.1715 14 14C14 14.8284 14.6715 15.5 15.5 15.5Z" fill="currentColor"/>
<path fill-rule="evenodd" clip-rule="evenodd" d="M4.50984 6.99997C4.51902 6.7424 4.53629 6.60113 4.56812 6.48234C4.75306 5.79215 5.29215 5.25306 5.98234 5.06812C6.20461 5.00856 6.50562 4.99997 7.49997 4.99997H15.5C16.0523 4.99997 16.5 4.55226 16.5 3.99997C16.5 3.44769 16.0523 2.99997 15.5 2.99997L7.36239 2.99993C6.56701 2.99949 5.97635 2.99917 5.4647 3.13627C4.08433 3.50614 3.00614 4.58433 2.63627 5.9647C2.55389 6.27217 2.52112 6.60816 2.50819 6.99998H2.49997V7.60683C2.49983 7.68965 2.49988 7.77478 2.49993 7.86239L2.49997 15.2413C2.49996 16.0462 2.49995 16.7106 2.54416 17.2518C2.59009 17.8139 2.68865 18.3306 2.93594 18.8159C3.31944 19.5686 3.93136 20.1805 4.68401 20.564C5.16934 20.8113 5.68605 20.9099 6.24814 20.9558C6.78933 21 7.45369 21 8.25865 21H15.7413C16.5463 21 17.2106 21 17.7518 20.9558C18.3139 20.9099 18.8306 20.8113 19.3159 20.564C20.0686 20.1805 20.6805 19.5686 21.064 18.8159C21.3113 18.3306 21.4099 17.8139 21.4558 17.2518C21.5 16.7106 21.5 16.0463 21.5 15.2413V12.7587C21.5 11.9537 21.5 11.2893 21.4558 10.7482C21.4099 10.1861 21.3113 9.66935 21.064 9.18401C20.6805 8.43137 20.0686 7.81944 19.3159 7.43595C18.8306 7.18866 18.3139 7.0901 17.7518 7.04417C17.2106 6.99995 16.5462 6.99996 15.7413 6.99998L4.50984 6.99997ZM17.5889 9.03753C17.1388 9.00075 16.5565 8.99998 15.7 8.99998H4.49997V15.2C4.49997 16.0566 4.50075 16.6388 4.53752 17.0889C4.57334 17.5274 4.63827 17.7516 4.71796 17.908C4.9097 18.2843 5.21567 18.5902 5.59199 18.782C5.74839 18.8617 5.97259 18.9266 6.41101 18.9624C6.8611 18.9992 7.44339 19 8.29997 19H15.7C16.5565 19 17.1388 18.9992 17.5889 18.9624C18.0273 18.9266 18.2516 18.8617 18.408 18.782C18.7843 18.5902 19.0902 18.2843 19.282 17.908C19.3617 17.7516 19.4266 17.5274 19.4624 17.0889C19.4992 16.6388 19.5 16.0566 19.5 15.2V12.8C19.5 11.9434 19.4992 11.3611 19.4624 10.911C19.4266 10.4726 19.3617 10.2484 19.282 10.092C19.0902 9.71567 18.7843 9.40971 18.408 9.21796C18.2516 9.13827 18.0273 9.07335 17.5889 9.03753Z" fill="currentColor"/>
</svg>
