<svg width="1em" height="1em" viewBox="0 0 24 24" fill="none" xmlns="http://www.w3.org/2000/svg">
<path fill-rule="evenodd" clip-rule="evenodd" d="M5.14683 5.07295C5 5.52485 5 6.08323 5 7.2V10C5 13.5265 7.60771 16.4439 11 16.9291V19H7C6.44772 19 6 19.4477 6 20C6 20.5523 6.44771 21 7 21H17C17.5523 21 18 20.5523 18 20C18 19.4477 17.5523 19 17 19H13V16.9291C16.3923 16.4439 19 13.5265 19 10V7.2C19 6.08323 19 5.52485 18.8532 5.07295C18.5564 4.15964 17.8404 3.44358 16.9271 3.14683C16.4752 3 15.9168 3 14.8 3H9.2C8.08323 3 7.52485 3 7.07295 3.14683C6.15964 3.44358 5.44358 4.15964 5.14683 5.07295ZM14.8 5H9.2C8.61981 5 8.26476 5.00069 7.99634 5.01537C7.74133 5.02931 7.68274 5.05162 7.69098 5.04894C7.38655 5.14786 7.14786 5.38655 7.04894 5.69098C7.05162 5.68274 7.02931 5.74133 7.01537 5.99634C7.00069 6.26476 7 6.61981 7 7.2V10C7 12.7614 9.23858 15 12 15C14.7614 15 17 12.7614 17 10V7.2C17 6.61981 16.9993 6.26476 16.9846 5.99634C16.9707 5.74133 16.9484 5.68274 16.9511 5.69098C16.8521 5.38655 16.6135 5.14786 16.309 5.04894C16.31 5.04925 16.31 5.04924 16.309 5.04894C16.3012 5.04663 16.2294 5.02772 16.0037 5.01537C15.7352 5.00069 15.3802 5 14.8 5Z" fill="currentColor"/>
<path d="M3 5C2.44772 5 2 5.44772 2 6V8C2 8.55228 2.44772 9 3 9C3.55228 9 4 8.55228 4 8V6C4 5.44772 3.55228 5 3 5Z" fill="currentColor"/>
<path d="M20 6C20 5.44772 20.4477 5 21 5C21.5523 5 22 5.44772 22 6V8C22 8.55228 21.5523 9 21 9C20.4477 9 20 8.55228 20 8V6Z" fill="currentColor"/>
</svg>
