<svg width="1em" height="1em" viewBox="0 0 48 48"  xmlns="http://www.w3.org/2000/svg">
<path fill-rule="evenodd" clip-rule="evenodd" d="M19.5174 4H28.4826C30.0925 3.99998 31.4213 3.99995 32.5037 4.08839C33.6278 4.18024 34.6613 4.37737 35.6319 4.87195C37.1372 5.63894 38.3611 6.86278 39.1281 8.36808C39.6226 9.33875 39.8198 10.3722 39.9116 11.4963C40 12.5788 40 13.9075 40 15.5175V42C40 42.7492 39.5813 43.4355 38.9152 43.7783C38.249 44.1211 37.4472 44.0629 36.8375 43.6275L24 34.4578L11.1625 43.6275C10.5528 44.0629 9.75098 44.1211 9.08484 43.7783C8.4187 43.4355 8 42.7492 8 42L8 15.5174C7.99998 13.9075 7.99995 12.5787 8.08839 11.4963C8.18024 10.3722 8.37737 9.33875 8.87195 8.36808C9.63894 6.86278 10.8628 5.63894 12.3681 4.87195C13.3387 4.37737 14.3722 4.18024 15.4963 4.08839C16.5787 3.99995 17.9075 3.99998 19.5174 4Z" fill="currentColor"/>
</svg>
