<svg width="1em" height="1em" viewBox="0 0 48 48"  xmlns="http://www.w3.org/2000/svg">
<path fill-rule="evenodd" clip-rule="evenodd" d="M19.5174 4H28.4826C30.0925 3.99998 31.4213 3.99995 32.5037 4.08839C33.6278 4.18024 34.6613 4.37737 35.6319 4.87195C37.1372 5.63894 38.3611 6.86278 39.1281 8.36808C39.6226 9.33875 39.8198 10.3722 39.9116 11.4963C40 12.5788 40 13.9075 40 15.5175V42C40 42.7492 39.5813 43.4355 38.9152 43.7783C38.249 44.1211 37.4472 44.0629 36.8375 43.6275L24 34.4578L11.1625 43.6275C10.5528 44.0629 9.75098 44.1211 9.08484 43.7783C8.4187 43.4355 8 42.7492 8 42L8 15.5174C7.99998 13.9075 7.99995 12.5787 8.08839 11.4963C8.18024 10.3722 8.37737 9.33875 8.87195 8.36808C9.63894 6.86278 10.8628 5.63894 12.3681 4.87195C13.3387 4.37737 14.3722 4.18024 15.4963 4.08839C16.5787 3.99995 17.9075 3.99998 19.5174 4ZM15.8221 8.0751C14.9452 8.14674 14.4968 8.2766 14.184 8.43598C13.4314 8.81947 12.8195 9.43139 12.436 10.184C12.2766 10.4968 12.1467 10.9452 12.0751 11.8221C12.0016 12.7223 12 13.8868 12 15.6V38.1136L22.8375 30.3725C23.5329 29.8758 24.4671 29.8758 25.1625 30.3725L36 38.1136V15.6C36 13.8868 35.9984 12.7223 35.9249 11.8221C35.8533 10.9452 35.7234 10.4968 35.564 10.184C35.1805 9.43139 34.5686 8.81947 33.816 8.43598C33.5032 8.2766 33.0548 8.14674 32.1779 8.0751C31.2777 8.00156 30.1132 8 28.4 8H19.6C17.8868 8 16.7223 8.00156 15.8221 8.0751Z" fill="currentColor"/>
</svg>
