<svg width="48" height="48" viewBox="0 0 48 48" fill="none" xmlns="http://www.w3.org/2000/svg">
<path d="M18.4142 13.4142C19.1953 12.6332 19.1953 11.3668 18.4142 10.5858C17.6332 9.80474 16.3668 9.80474 15.5858 10.5858L3.58579 22.5858C2.80474 23.3668 2.80474 24.6332 3.58579 25.4142L15.5858 37.4142C16.3668 38.1953 17.6332 38.1953 18.4142 37.4142C19.1953 36.6332 19.1953 35.3668 18.4142 34.5858L7.82843 24L18.4142 13.4142Z" fill="black"/>
<path d="M29.5858 13.4142C28.8047 12.6332 28.8047 11.3668 29.5858 10.5858C30.3668 9.80474 31.6332 9.80474 32.4142 10.5858L44.4142 22.5858C45.1953 23.3668 45.1953 24.6332 44.4142 25.4142L32.4142 37.4142C31.6332 38.1953 30.3668 38.1953 29.5858 37.4142C28.8047 36.6332 28.8047 35.3668 29.5858 34.5858L40.1716 24L29.5858 13.4142Z" fill="black"/>
</svg>
