<svg width="48" height="48" viewBox="0 0 48 48" fill="none" xmlns="http://www.w3.org/2000/svg">
<path d="M17.5174 6H30.4826C32.0925 5.99998 33.4213 5.99995 34.5037 6.08839C35.6278 6.18024 36.6613 6.37737 37.6319 6.87195C39.1372 7.63894 40.3611 8.86278 41.1281 10.3681C41.6226 11.3387 41.8198 12.3722 41.9116 13.4963C42 14.5787 42 15.9074 42 17.5174L42.0001 26.2273C42.0007 27.4973 42.0011 28.4569 41.779 29.3823C41.583 30.1986 41.2598 30.9789 40.8211 31.6947C40.3239 32.5061 39.645 33.1844 38.7466 34.082L34.8284 38H38C39.1046 38 40 38.8954 40 40C40 41.1046 39.1046 42 38 42H30C28.8954 42 28 41.1046 28 40V32C28 30.8954 28.8954 30 30 30C31.1046 30 32 30.8954 32 32V35.1716L35.774 31.3976C36.879 30.2925 37.192 29.9614 37.4106 29.6047C37.6299 29.2468 37.7915 28.8566 37.8895 28.4485C37.9871 28.0417 38 27.5863 38 26.0236V17.6C38 15.8868 37.9984 14.7223 37.9249 13.8221C37.8533 12.9452 37.7234 12.4968 37.564 12.184C37.1805 11.4314 36.5686 10.8195 35.816 10.436C35.5032 10.2766 35.0548 10.1467 34.1779 10.0751C33.2777 10.0016 32.1132 10 30.4 10H17.6C15.8868 10 14.7223 10.0016 13.8221 10.0751C12.9452 10.1467 12.4968 10.2766 12.184 10.436C11.4314 10.8195 10.8195 11.4314 10.436 12.184C10.2766 12.4968 10.1467 12.9452 10.0751 13.8221C10.0016 14.7223 10 15.8868 10 17.6V30.4C10 32.1132 10.0016 33.2777 10.0751 34.1779C10.1467 35.0548 10.2766 35.5032 10.436 35.816C10.8195 36.5686 11.4314 37.1805 12.184 37.564C12.4968 37.7234 12.9452 37.8533 13.8221 37.9249C14.7223 37.9984 15.8868 38 17.6 38H22C23.1046 38 24 38.8954 24 40C24 41.1046 23.1046 42 22 42H17.5174C15.9074 42 14.5787 42 13.4963 41.9116C12.3722 41.8198 11.3387 41.6226 10.3681 41.1281C8.86278 40.3611 7.63894 39.1372 6.87195 37.6319C6.37737 36.6613 6.18024 35.6278 6.08839 34.5037C5.99995 33.4213 5.99998 32.0925 6 30.4826V17.5174C5.99998 15.9075 5.99995 14.5787 6.08839 13.4963C6.18024 12.3722 6.37737 11.3387 6.87195 10.3681C7.63894 8.86278 8.86278 7.63894 10.3681 6.87195C11.3387 6.37737 12.3722 6.18024 13.4963 6.08839C14.5787 5.99995 15.9075 5.99998 17.5174 6Z" fill="black"/>
<path d="M14 16C14 14.8954 14.8954 14 16 14H32C33.1046 14 34 14.8954 34 16C34 17.1046 33.1046 18 32 18H16C14.8954 18 14 17.1046 14 16Z" fill="black"/>
<path d="M16 22C14.8954 22 14 22.8954 14 24C14 25.1046 14.8954 26 16 26H28C29.1046 26 30 25.1046 30 24C30 22.8954 29.1046 22 28 22H16Z" fill="black"/>
</svg>
