<svg width="1em" height="1em" viewBox="0 0 48 48" fill="currentColor" xmlns="http://www.w3.org/2000/svg">
<path fill-rule="evenodd" clip-rule="evenodd" d="M11.3825 6.82366C11.7589 6.30617 12.3601 6 13 6H35C35.6399 6 36.2411 6.30617 36.6175 6.82366L44.6175 17.8237C45.1544 18.5619 45.1233 19.57 44.5419 20.2738L25.5419 43.2738C25.162 43.7337 24.5966 44 24 44C23.4034 44 22.838 43.7337 22.4581 43.2738L3.45808 20.2738C2.87671 19.57 2.84563 18.5619 3.38253 17.8237L11.3825 6.82366ZM14.0185 10L7.52973 18.922L24 38.8597L40.4703 18.922L33.9816 10H14.0185Z" />
</svg>
