<svg width="1em" height="1em" viewBox="0 0 48 48"  xmlns="http://www.w3.org/2000/svg">
<path d="M16 13C14.8954 13 14 13.8954 14 15C14 16.1046 14.8954 17 16 17H32C33.1046 17 34 16.1046 34 15C34 13.8954 33.1046 13 32 13H16Z" fill="currentColor"/>
<path d="M16 21C14.8954 21 14 21.8954 14 23C14 24.1046 14.8954 25 16 25H28C29.1046 25 30 24.1046 30 23C30 21.8954 29.1046 21 28 21H16Z" fill="currentColor"/>
<path d="M14 31C14 29.8954 14.8954 29 16 29H24C25.1046 29 26 29.8954 26 31C26 32.1046 25.1046 33 24 33H16C14.8954 33 14 32.1046 14 31Z" fill="currentColor"/>
<path fill-rule="evenodd" clip-rule="evenodd" d="M6 17.8C6 13.3196 6 11.0794 6.87195 9.36808C7.63893 7.86278 8.86278 6.63893 10.3681 5.87195C12.0794 5 14.3196 5 18.8 5H29.2C33.6804 5 35.9206 5 37.6319 5.87195C39.1372 6.63893 40.3611 7.86278 41.1281 9.36808C42 11.0794 42 13.3196 42 17.8V27.6981C42 29.6548 42 30.6332 41.779 31.5539C41.583 32.3701 41.2598 33.1505 40.8211 33.8663C40.3264 34.6736 39.6346 35.3654 38.251 36.749L35.749 39.251C34.3654 40.6346 33.6736 41.3264 32.8663 41.8211C32.1505 42.2598 31.3701 42.583 30.5539 42.779C29.6332 43 28.6548 43 26.6981 43H18.8C14.3196 43 12.0794 43 10.3681 42.1281C8.86278 41.3611 7.63893 40.1372 6.87195 38.6319C6 36.9206 6 34.6804 6 30.2V17.8ZM18.8 9H29.2C31.5062 9 32.9953 9.00311 34.1287 9.09571C35.2153 9.18449 35.6182 9.3352 35.816 9.43597C36.5686 9.81947 37.1805 10.4314 37.564 11.184C37.6648 11.3818 37.8155 11.7847 37.9043 12.8713C37.9969 14.0047 38 15.4938 38 17.8V27.6981C38 29.8452 37.9743 30.2668 37.8895 30.6201C37.7915 31.0282 37.6299 31.4184 37.4106 31.7763C37.2207 32.0861 36.9408 32.4024 35.4225 33.9206L32.9206 36.4225C31.4024 37.9408 31.0861 38.2207 30.7763 38.4106C30.4184 38.6299 30.0282 38.7915 29.6201 38.8895C29.2668 38.9743 28.8452 39 26.6981 39H18.8C16.4938 39 15.0047 38.9969 13.8713 38.9043C12.7847 38.8155 12.3818 38.6648 12.184 38.564C11.4314 38.1805 10.8195 37.5686 10.436 36.816C10.3352 36.6182 10.1845 36.2153 10.0957 35.1287C10.0031 33.9953 10 32.5062 10 30.2V17.8C10 15.4938 10.0031 14.0047 10.0957 12.8713C10.1845 11.7847 10.3352 11.3818 10.436 11.184C10.8195 10.4314 11.4314 9.81947 12.184 9.43597C12.3818 9.3352 12.7847 9.18449 13.8713 9.09571C15.0047 9.00311 16.4938 9 18.8 9Z" fill="currentColor"/>
</svg>
