<svg width="48" height="48" viewBox="0 0 48 48" fill="none" xmlns="http://www.w3.org/2000/svg">
<path fill-rule="evenodd" clip-rule="evenodd" d="M6 14C6 11.1997 6 9.79961 6.54497 8.73005C7.02433 7.78924 7.78924 7.02433 8.73005 6.54497C9.79961 6 11.1997 6 14 6C16.8003 6 18.2004 6 19.27 6.54497C20.2108 7.02433 20.9757 7.78924 21.455 8.73005C22 9.79961 22 11.1997 22 14C22 16.8003 22 18.2004 21.455 19.27C20.9757 20.2108 20.2108 20.9757 19.27 21.455C18.2004 22 16.8003 22 14 22C11.1997 22 9.79961 22 8.73005 21.455C7.78924 20.9757 7.02433 20.2108 6.54497 19.27C6 18.2004 6 16.8003 6 14ZM10 11.6C10 11.0399 10 10.7599 10.109 10.546C10.2049 10.3578 10.3578 10.2049 10.546 10.109C10.7599 10 11.0399 10 11.6 10H16.4C16.9601 10 17.2401 10 17.454 10.109C17.6422 10.2049 17.7951 10.3578 17.891 10.546C18 10.7599 18 11.0399 18 11.6V16.4C18 16.9601 18 17.2401 17.891 17.454C17.7951 17.6422 17.6422 17.7951 17.454 17.891C17.2401 18 16.9601 18 16.4 18H11.6C11.0399 18 10.7599 18 10.546 17.891C10.3578 17.7951 10.2049 17.6422 10.109 17.454C10 17.2401 10 16.9601 10 16.4V11.6Z" fill="black"/>
<path fill-rule="evenodd" clip-rule="evenodd" d="M6 34C6 31.1997 6 29.7996 6.54497 28.73C7.02433 27.7892 7.78924 27.0243 8.73005 26.545C9.79961 26 11.1997 26 14 26C16.8003 26 18.2004 26 19.27 26.545C20.2108 27.0243 20.9757 27.7892 21.455 28.73C22 29.7996 22 31.1997 22 34C22 36.8003 22 38.2004 21.455 39.27C20.9757 40.2108 20.2108 40.9757 19.27 41.455C18.2004 42 16.8003 42 14 42C11.1997 42 9.79961 42 8.73005 41.455C7.78924 40.9757 7.02433 40.2108 6.54497 39.27C6 38.2004 6 36.8003 6 34ZM10 31.6C10 31.0399 10 30.7599 10.109 30.546C10.2049 30.3578 10.3578 30.2049 10.546 30.109C10.7599 30 11.0399 30 11.6 30H16.4C16.9601 30 17.2401 30 17.454 30.109C17.6422 30.2049 17.7951 30.3578 17.891 30.546C18 30.7599 18 31.0399 18 31.6V36.4C18 36.9601 18 37.2401 17.891 37.454C17.7951 37.6422 17.6422 37.7951 17.454 37.891C17.2401 38 16.9601 38 16.4 38H11.6C11.0399 38 10.7599 38 10.546 37.891C10.3578 37.7951 10.2049 37.6422 10.109 37.454C10 37.2401 10 36.9601 10 36.4V31.6Z" fill="black"/>
<path fill-rule="evenodd" clip-rule="evenodd" d="M26.545 8.73005C26 9.79961 26 11.1997 26 14C26 16.8003 26 18.2004 26.545 19.27C27.0243 20.2108 27.7892 20.9757 28.73 21.455C29.7996 22 31.1997 22 34 22C36.8003 22 38.2004 22 39.27 21.455C40.2108 20.9757 40.9757 20.2108 41.455 19.27C42 18.2004 42 16.8003 42 14C42 11.1997 42 9.79961 41.455 8.73005C40.9757 7.78924 40.2108 7.02433 39.27 6.54497C38.2004 6 36.8003 6 34 6C31.1997 6 29.7996 6 28.73 6.54497C27.7892 7.02433 27.0243 7.78924 26.545 8.73005ZM30.109 10.546C30 10.7599 30 11.0399 30 11.6V16.4C30 16.9601 30 17.2401 30.109 17.454C30.2049 17.6422 30.3578 17.7951 30.546 17.891C30.7599 18 31.0399 18 31.6 18H36.4C36.9601 18 37.2401 18 37.454 17.891C37.6422 17.7951 37.7951 17.6422 37.891 17.454C38 17.2401 38 16.9601 38 16.4V11.6C38 11.0399 38 10.7599 37.891 10.546C37.7951 10.3578 37.6422 10.2049 37.454 10.109C37.2401 10 36.9601 10 36.4 10H31.6C31.0399 10 30.7599 10 30.546 10.109C30.3578 10.2049 30.2049 10.3578 30.109 10.546Z" fill="black"/>
<path fill-rule="evenodd" clip-rule="evenodd" d="M26 34C26 31.1997 26 29.7996 26.545 28.73C27.0243 27.7892 27.7892 27.0243 28.73 26.545C29.7996 26 31.1997 26 34 26C36.8003 26 38.2004 26 39.27 26.545C40.2108 27.0243 40.9757 27.7892 41.455 28.73C42 29.7996 42 31.1997 42 34C42 36.8003 42 38.2004 41.455 39.27C40.9757 40.2108 40.2108 40.9757 39.27 41.455C38.2004 42 36.8003 42 34 42C31.1997 42 29.7996 42 28.73 41.455C27.7892 40.9757 27.0243 40.2108 26.545 39.27C26 38.2004 26 36.8003 26 34ZM30 31.6C30 31.0399 30 30.7599 30.109 30.546C30.2049 30.3578 30.3578 30.2049 30.546 30.109C30.7599 30 31.0399 30 31.6 30H36.4C36.9601 30 37.2401 30 37.454 30.109C37.6422 30.2049 37.7951 30.3578 37.891 30.546C38 30.7599 38 31.0399 38 31.6V36.4C38 36.9601 38 37.2401 37.891 37.454C37.7951 37.6422 37.6422 37.7951 37.454 37.891C37.2401 38 36.9601 38 36.4 38H31.6C31.0399 38 30.7599 38 30.546 37.891C30.3578 37.7951 30.2049 37.6422 30.109 37.454C30 37.2401 30 36.9601 30 36.4V31.6Z" fill="black"/>
</svg>
