<svg width="48" height="48" viewBox="0 0 48 48" fill="none" xmlns="http://www.w3.org/2000/svg">
<path fill-rule="evenodd" clip-rule="evenodd" d="M6 4C3.79086 4 2 5.79086 2 8V13C2 15.2091 3.79086 17 6 17H11.2747C11.7543 17 12.23 17.0863 12.6792 17.2547L18.6489 19.4933C19.3026 19.7385 20 19.2552 20 18.557V8C20 5.79086 18.2091 4 16 4H6ZM16 7H6C5.44772 7 5 7.44772 5 8V13C5 13.5523 5.44772 14 6 14H11.2747C12.114 14 12.9466 14.151 13.7325 14.4457L17 15.671V8C17 7.44772 16.5523 7 16 7Z" fill="black"/>
<path fill-rule="evenodd" clip-rule="evenodd" d="M14.0648 22.0463L18.0045 23.5237C18.0015 23.6821 18 23.8409 18 24C18 25.4527 18.1239 26.8766 18.3618 28.2614C20.2179 28.0884 22.0986 28 24 28C24.3557 28 24.7107 28.0031 25.0649 28.0093C24.3875 29.1839 24 30.5467 24 32C22.4416 32 20.8981 32.0636 19.3719 32.1885C20.3692 35.0668 21.8777 37.7064 23.7887 39.9986C23.859 39.9995 23.9295 40 24 40V44C16.853 44 10.5816 40.2512 7.04483 34.6127C6.99448 34.5324 6.9447 34.4518 6.89547 34.3707C6.41442 33.579 5.9868 32.7513 5.61759 31.8925C5.48933 31.5942 5.3681 31.2921 5.25415 30.9865C4.44323 28.8116 4 26.4575 4 24C4 22.9138 4.08658 21.8479 4.25322 20.8087C4.81547 20.934 5.40002 21 6 21H8.28079C8.09646 21.9718 8 22.9746 8 24C8 26.0694 8.39288 28.0471 9.10813 29.8625C10.8398 29.4203 12.6015 29.0534 14.3897 28.7655C14.1334 27.2151 14 25.6231 14 24C14 23.3434 14.0218 22.692 14.0648 22.0463ZM11.1163 33.4892C12.8815 35.8817 15.2971 37.765 18.1021 38.8779C16.9435 36.9431 16.004 34.862 15.3179 32.669C13.8991 32.8898 12.4978 33.1639 11.1163 33.4892Z" fill="black"/>
<path fill-rule="evenodd" clip-rule="evenodd" d="M43.9985 24.2516C43.9995 24.1679 44 24.084 44 24C44 21.5424 43.5567 19.1884 42.7458 17.0135C42.3039 15.8282 41.7527 14.696 41.1045 13.6293C37.5968 7.8563 31.2487 4 24 4C23.6463 4 23.2947 4.00918 22.9455 4.02733C23.6164 5.19782 24 6.55412 24 8C24.0706 8 24.141 8.00046 24.2113 8.00137C26.1223 10.2936 27.6308 12.9332 28.6281 15.8115C27.1019 15.9363 25.5584 16 24 16V20C25.9014 20 27.7821 19.9116 29.6383 19.7386C29.8761 21.1234 30 22.5472 30 24C30 24.0842 29.9996 24.1683 29.9988 24.2524C30.6384 24.0876 31.309 24 32 24L34 24C34 22.3769 33.8667 20.7849 33.6103 19.2345C35.3985 18.9466 37.1603 18.5797 38.8919 18.1375C39.6071 19.9529 40 21.9305 40 24H42C42.69 24 43.3597 24.0874 43.9985 24.2516ZM36.8837 14.5108C35.5022 14.8361 34.101 15.1102 32.6821 15.331C31.996 13.138 31.0565 11.0569 29.8979 9.12212C32.7029 10.235 35.1185 12.1183 36.8837 14.5108Z" fill="black"/>
<path fill-rule="evenodd" clip-rule="evenodd" d="M28 32C28 29.7909 29.7909 28 32 28H42C44.2091 28 46 29.7909 46 32V37C46 39.2091 44.2091 41 42 41H36.7253C36.2457 41 35.77 41.0863 35.3208 41.2547L29.3511 43.4933C28.6974 43.7385 28 43.2552 28 42.557V32ZM32 31H42C42.5523 31 43 31.4477 43 32V37C43 37.5523 42.5523 38 42 38H36.7253C35.886 38 35.0534 38.151 34.2675 38.4457L31 39.671V32C31 31.4477 31.4477 31 32 31Z" fill="black"/>
</svg>
