<svg width="48" height="48" viewBox="0 0 48 48" fill="none" xmlns="http://www.w3.org/2000/svg">
<path d="M10 8C10 6.89543 9.10457 6 8 6C6.89543 6 6 6.89543 6 8V30.4826C5.99998 32.0925 5.99996 33.4213 6.08839 34.5037C6.18024 35.6278 6.37737 36.6613 6.87195 37.6319C7.63894 39.1372 8.86278 40.3611 10.3681 41.1281C11.3387 41.6226 12.3722 41.8198 13.4964 41.9116C14.5787 42 15.9074 42 17.5174 42H40C41.1046 42 42 41.1046 42 40C42 38.8954 41.1046 38 40 38H17.6C15.8868 38 14.7223 37.9984 13.8221 37.9249C12.9452 37.8533 12.4968 37.7234 12.184 37.564C11.4314 37.1805 10.8195 36.5686 10.436 35.816C10.2766 35.5032 10.1467 35.0548 10.0751 34.1779C10.0016 33.2777 10 32.1132 10 30.4V8Z" fill="black"/>
<path d="M42.4142 16.4142C43.1953 15.6332 43.1953 14.3668 42.4142 13.5858C41.6332 12.8047 40.3668 12.8047 39.5858 13.5858L32 21.1716L27.4142 16.5858C26.6332 15.8047 25.3668 15.8047 24.5858 16.5858L15.5858 25.5858C14.8047 26.3668 14.8047 27.6332 15.5858 28.4142C16.3668 29.1953 17.6332 29.1953 18.4142 28.4142L26 20.8284L30.5858 25.4142C31.3668 26.1953 32.6332 26.1953 33.4142 25.4142L42.4142 16.4142Z" fill="black"/>
</svg>
