<svg width="1em" height="1em" viewBox="0 0 48 48" fill="none" xmlns="http://www.w3.org/2000/svg">
<path fill-rule="evenodd" clip-rule="evenodd" d="M40.7574 9.75736L38.2427 7.24265C35.8996 4.8995 32.1006 4.89951 29.7574 7.24265L27.2427 9.75737C24.8996 12.1005 24.8996 15.8995 27.2427 18.2427L29.7574 20.7574C32.1006 23.1005 35.8996 23.1005 38.2427 20.7574L40.7574 18.2426C43.1006 15.8995 43.1006 12.1005 40.7574 9.75736ZM35.4143 10.0711L37.929 12.5858C38.71 13.3668 38.71 14.6332 37.929 15.4142L35.4143 17.9289C34.6332 18.71 33.3669 18.71 32.5859 17.9289L30.0711 15.4142C29.2901 14.6332 29.2901 13.3668 30.0711 12.5858L32.5859 10.0711C33.3669 9.29003 34.6332 9.29003 35.4143 10.0711Z" fill="currentColor"/>
<path fill-rule="evenodd" clip-rule="evenodd" d="M6 12C6 8.68629 8.68629 6 12 6H16C19.3137 6 22 8.68629 22 12V16C22 19.3137 19.3137 22 16 22H12C8.68629 22 6 19.3137 6 16V12ZM12 10H16C17.1046 10 18 10.8954 18 12V16C18 17.1046 17.1046 18 16 18H12C10.8954 18 10 17.1046 10 16V12C10 10.8954 10.8954 10 12 10Z" fill="currentColor"/>
<path fill-rule="evenodd" clip-rule="evenodd" d="M12 26C8.68629 26 6 28.6863 6 32V36C6 39.3137 8.68629 42 12 42H16C19.3137 42 22 39.3137 22 36V32C22 28.6863 19.3137 26 16 26H12ZM16 30H12C10.8954 30 10 30.8954 10 32V36C10 37.1046 10.8954 38 12 38H16C17.1046 38 18 37.1046 18 36V32C18 30.8954 17.1046 30 16 30Z" fill="currentColor"/>
<path fill-rule="evenodd" clip-rule="evenodd" d="M26 32C26 28.6863 28.6863 26 32 26H36C39.3137 26 42 28.6863 42 32V36C42 39.3137 39.3137 42 36 42H32C28.6863 42 26 39.3137 26 36V32ZM32 30H36C37.1046 30 38 30.8954 38 32V36C38 37.1046 37.1046 38 36 38H32C30.8954 38 30 37.1046 30 36V32C30 30.8954 30.8954 30 32 30Z" fill="currentColor"/>
</svg>
