<svg width="48" height="48" viewBox="0 0 48 48" fill="none" xmlns="http://www.w3.org/2000/svg">
<path d="M16 25C17.6569 25 19 23.6569 19 22C19 20.3431 17.6569 19 16 19C14.3431 19 13 20.3431 13 22C13 23.6569 14.3431 25 16 25Z" fill="black"/>
<path d="M27 22C27 23.6569 25.6569 25 24 25C22.3431 25 21 23.6569 21 22C21 20.3431 22.3431 19 24 19C25.6569 19 27 20.3431 27 22Z" fill="black"/>
<path d="M32 25C33.6569 25 35 23.6569 35 22C35 20.3431 33.6569 19 32 19C30.3431 19 29 20.3431 29 22C29 23.6569 30.3431 25 32 25Z" fill="black"/>
<path fill-rule="evenodd" clip-rule="evenodd" d="M31.2 38H30.7241L26.3037 42.6018C25.5004 43.4381 25.0987 43.8562 24.6318 44.0124C24.2212 44.1497 23.7773 44.15 23.3665 44.0135C22.8993 43.8582 22.4969 43.4407 21.6921 42.6059L17.2521 38H16.8C12.3196 38 10.0794 38 8.36808 37.1281C6.86278 36.3611 5.63894 35.1372 4.87195 33.6319C4 31.9206 4 29.6804 4 25.2V18.8C4 14.3196 4 12.0794 4.87195 10.3681C5.63894 8.86278 6.86278 7.63894 8.36808 6.87195C10.0794 6 12.3196 6 16.8 6H31.2C35.6804 6 37.9206 6 39.6319 6.87195C41.1372 7.63894 42.3611 8.86278 43.1281 10.3681C44 12.0794 44 14.3196 44 18.8V25.2C44 29.6804 44 31.9206 43.1281 33.6319C42.3611 35.1372 41.1372 36.3611 39.6319 37.1281C37.9206 38 35.6804 38 31.2 38ZM20.1319 35.2239C19.378 34.4418 18.3384 34 17.2521 34H16.8C14.4938 34 13.0047 33.9969 11.8713 33.9043C10.7847 33.8155 10.3818 33.6648 10.184 33.564C9.43139 33.1805 8.81947 32.5686 8.43597 31.816C8.3352 31.6182 8.18449 31.2153 8.09571 30.1287C8.00311 28.9953 8 27.5062 8 25.2V18.8C8 16.4938 8.00311 15.0047 8.09571 13.8713C8.18449 12.7847 8.3352 12.3818 8.43597 12.184C8.81947 11.4314 9.43139 10.8195 10.184 10.436C10.3818 10.3352 10.7847 10.1845 11.8713 10.0957C13.0047 10.0031 14.4938 10 16.8 10H31.2C33.5062 10 34.9953 10.0031 36.1287 10.0957C37.2153 10.1845 37.6182 10.3352 37.816 10.436C38.5686 10.8195 39.1805 11.4314 39.564 12.184C39.6648 12.3818 39.8155 12.7847 39.9043 13.8713C39.9969 15.0047 40 16.4938 40 18.8V25.2C40 27.5062 39.9969 28.9953 39.9043 30.1287C39.8155 31.2153 39.6648 31.6182 39.564 31.816C39.1805 32.5686 38.5686 33.1805 37.816 33.564C37.6182 33.6648 37.2153 33.8155 36.1287 33.9043C34.9953 33.9969 33.5062 34 31.2 34H30.7241C29.6354 34 28.5936 34.4438 27.8394 35.229L23.9949 39.2312L20.1319 35.2239Z" fill="black"/>
</svg>
