<svg width="48" height="48" viewBox="0 0 48 48" fill="none" xmlns="http://www.w3.org/2000/svg">
<path d="M14 15.2C14 14.0799 14 13.5198 14.218 13.092C14.4097 12.7157 14.7157 12.4097 15.092 12.218C15.5198 12 16.0799 12 17.2 12H18.8C19.9201 12 20.4802 12 20.908 12.218C21.2843 12.4097 21.5903 12.7157 21.782 13.092C22 13.5198 22 14.0799 22 15.2V16.8C22 17.9201 22 18.4802 21.782 18.908C21.5903 19.2843 21.2843 19.5903 20.908 19.782C20.4802 20 19.9201 20 18.8 20H17.2C16.0799 20 15.5198 20 15.092 19.782C14.7157 19.5903 14.4097 19.2843 14.218 18.908C14 18.4802 14 17.9201 14 16.8V15.2Z" fill="black"/>
<path d="M28 14C26.8954 14 26 14.8954 26 16C26 17.1046 26.8954 18 28 18H32C33.1046 18 34 17.1046 34 16C34 14.8954 33.1046 14 32 14H28Z" fill="black"/>
<path d="M14 26C14 24.8954 14.8954 24 16 24H32C33.1046 24 34 24.8954 34 26C34 27.1046 33.1046 28 32 28H16C14.8954 28 14 27.1046 14 26Z" fill="black"/>
<path d="M16 32C14.8954 32 14 32.8954 14 34C14 35.1046 14.8954 36 16 36H32C33.1046 36 34 35.1046 34 34C34 32.8954 33.1046 32 32 32H16Z" fill="black"/>
<path fill-rule="evenodd" clip-rule="evenodd" d="M6.87195 8.36808C6 10.0794 6 12.3196 6 16.8V31.2C6 35.6804 6 37.9206 6.87195 39.6319C7.63894 41.1372 8.86278 42.3611 10.3681 43.1281C12.0794 44 14.3196 44 18.8 44H29.2C33.6804 44 35.9206 44 37.6319 43.1281C39.1372 42.3611 40.3611 41.1372 41.1281 39.6319C42 37.9206 42 35.6804 42 31.2V16.8C42 12.3196 42 10.0794 41.1281 8.36808C40.3611 6.86278 39.1372 5.63894 37.6319 4.87195C35.9206 4 33.6804 4 29.2 4H18.8C14.3196 4 12.0794 4 10.3681 4.87195C8.86278 5.63894 7.63894 6.86278 6.87195 8.36808ZM29.2 8H18.8C16.4938 8 15.0047 8.00311 13.8713 8.09571C12.7847 8.18449 12.3818 8.3352 12.184 8.43597C11.4314 8.81947 10.8195 9.43139 10.436 10.184C10.3352 10.3818 10.1845 10.7847 10.0957 11.8713C10.0031 13.0047 10 14.4938 10 16.8V31.2C10 33.5062 10.0031 34.9953 10.0957 36.1287C10.1845 37.2153 10.3352 37.6182 10.436 37.816C10.8195 38.5686 11.4314 39.1805 12.184 39.564C12.3818 39.6648 12.7847 39.8155 13.8713 39.9043C15.0047 39.9969 16.4938 40 18.8 40H29.2C31.5062 40 32.9953 39.9969 34.1287 39.9043C35.2153 39.8155 35.6182 39.6648 35.816 39.564C36.5686 39.1805 37.1805 38.5686 37.564 37.816C37.6648 37.6182 37.8155 37.2153 37.9043 36.1287C37.9969 34.9953 38 33.5062 38 31.2V16.8C38 14.4938 37.9969 13.0047 37.9043 11.8713C37.8155 10.7847 37.6648 10.3818 37.564 10.184C37.1805 9.43139 36.5686 8.81947 35.816 8.43597C35.6182 8.3352 35.2153 8.18449 34.1287 8.09571C32.9953 8.00311 31.5062 8 29.2 8Z" fill="black"/>
</svg>
