<svg width="1em" height="1em" viewBox="0 0 48 48" fill="none" xmlns="http://www.w3.org/2000/svg">
<path d="M24 44C35.0457 44 44 35.0457 44 24C44 12.9543 35.0457 4 24 4C12.9543 4 4 12.9543 4 24C4 35.0457 12.9543 44 24 44ZM24.4311 39.9943C24.2879 39.9981 24.1442 40 24 40C23.946 40 23.8302 39.999 23.7887 39.9986C21.8777 37.7064 20.3692 35.0668 19.3719 32.1885C20.8981 32.0636 22.4416 32 24 32C25.5584 32 27.1019 32.0636 28.6281 32.1885C27.6308 35.0668 26.1223 37.7064 24.2113 39.9986C24.2847 39.9977 24.358 39.9962 24.4311 39.9943ZM36.8837 33.4892C35.1153 35.8861 32.694 37.7719 29.8824 38.884L29.8979 38.8779C31.0565 36.9431 31.996 34.862 32.6821 32.669C34.101 32.8898 35.5022 33.1639 36.8837 33.4892ZM15.3179 15.331C13.8991 15.1102 12.4978 14.836 11.1164 14.5108C12.8815 12.1183 15.2971 10.235 18.1021 9.12212C16.9435 11.0569 16.004 13.1379 15.3179 15.331ZM19.3719 15.8115C20.3692 12.9332 21.8777 10.2936 23.7887 8.00137C23.859 8.00046 23.9294 8 24 8C24.0706 8 24.141 8.00046 24.2114 8.00137C26.1223 10.2936 27.6308 12.9332 28.6281 15.8115C27.1019 15.9363 25.5584 16 24 16C22.4416 16 20.8981 15.9363 19.3719 15.8115ZM40 24C40 26.0694 39.6071 28.0471 38.8919 29.8625C37.1603 29.4203 35.3985 29.0534 33.6103 28.7655C33.8667 27.215 34 25.6231 34 24C34 22.3769 33.8667 20.7849 33.6103 19.2344C35.3985 18.9466 37.1603 18.5797 38.8919 18.1374C39.6071 19.9528 40 21.9305 40 24ZM36.8836 14.5108C35.5022 14.836 34.1009 15.1102 32.6821 15.331C31.996 13.138 31.0565 11.0569 29.8979 9.12212C32.7029 10.235 35.1185 12.1183 36.8836 14.5108ZM24 20C25.9014 20 27.7821 19.9115 29.6383 19.7385C29.8761 21.1234 30 22.5472 30 24C30 25.4527 29.8761 26.8765 29.6383 28.2614C27.7821 28.0884 25.9014 28 24 28C22.0986 28 20.2179 28.0884 18.3618 28.2614C18.1239 26.8765 18 25.4527 18 24C18 22.5472 18.1239 21.1234 18.3618 19.7385C20.2179 19.9115 22.0986 20 24 20ZM14.3897 28.7655C12.6096 29.0521 10.8558 29.417 9.13174 29.8565C8.39882 28.0195 8 26.0368 8 24C8 21.9289 8.3935 19.9498 9.10981 18.1332L9.10815 18.1374C10.8398 18.5797 12.6015 18.9466 14.3897 19.2344C14.1334 20.7849 14 22.3769 14 24C14 25.6231 14.1333 27.215 14.3897 28.7655ZM15.3179 32.669C16.004 34.862 16.9435 36.9431 18.1021 38.8779C15.2852 37.7499 12.8959 35.8496 11.1492 33.4814C12.5201 33.1596 13.9103 32.888 15.3179 32.669Z" fill="currentColor"/>
</svg>
