<svg width="1em" height="1em" viewBox="0 0 48 48" fill="currentColor" xmlns="http://www.w3.org/2000/svg">
<path fill-rule="evenodd" clip-rule="evenodd" d="M22 8C15.3726 8 10 13.3726 10 20C10 21.7726 10.383 23.4502 11.069 24.9593L11.0717 24.9654C12.4639 28.0282 13.5116 30.3332 14.2323 31.9411C14.9153 33.4648 15.3816 34.5269 15.5131 34.9541C15.5918 35.2098 15.6395 35.3517 15.6692 35.4392C15.6703 35.4426 15.672 35.4475 15.6742 35.4538C15.694 35.5106 15.7541 35.6827 15.791 35.8531C15.8279 36.0235 15.8445 36.205 15.8499 36.265C15.8505 36.2717 15.851 36.2768 15.8513 36.2803C15.8605 36.3723 15.8759 36.5212 15.91 36.7865C16.0002 37.4868 16.0001 38.0685 16 38.9217L16 40H26V36C26 34.8954 26.8954 34 28 34H34V27C34 26.2425 34.428 25.5499 35.1056 25.2111L37.1383 24.1948L34.2211 19.5273C34.0613 19.2717 33.9614 18.9834 33.9288 18.6838C33.2747 12.6766 28.1821 8 22 8ZM6 20C6 11.1634 13.1634 4 22 4C30.0845 4 36.7663 9.99434 37.8473 17.782L41.696 23.94C41.9946 24.4178 42.0778 24.9993 41.9252 25.5417C41.7726 26.0841 41.3984 26.5369 40.8944 26.7889L38 28.2361V36C38 37.1046 37.1046 38 36 38H30V42C30 43.1046 29.1046 44 28 44H14C12.8954 44 12 43.1046 12 42V39.0033C12 38.0488 11.997 37.7187 11.9427 37.297C11.9056 37.008 11.886 36.8254 11.8735 36.7017C11.8337 36.5838 11.7759 36.4095 11.6902 36.131C11.6919 36.1365 11.6918 36.1364 11.6892 36.1293C11.6834 36.1135 11.665 36.0631 11.6249 35.9635C11.5733 35.8353 11.5008 35.6621 11.4047 35.4385C11.2127 34.992 10.9404 34.3763 10.5822 33.5772C9.86638 31.9802 8.82313 29.685 7.42748 26.6145C6.51 24.596 6 22.3548 6 20Z"/>
</svg>
