<svg width="1em" height="1em" viewBox="0 0 512 512" fill="none" xmlns="http://www.w3.org/2000/svg">
<g clip-path="url(#clip0_1766_31289)">
<rect width="1em" height="1em" fill="#7E7E8F" fill-opacity="0.12"/>
<path opacity="0.4" fill-rule="evenodd" clip-rule="evenodd" d="M129 153.6C129 132.834 145.834 116 166.6 116H307.4C322.608 116 336.318 125.161 342.138 139.211C347.957 153.261 344.741 169.434 333.987 180.187L295.774 218.4H345.8C361.008 218.4 374.718 227.561 380.538 241.611C386.357 255.661 383.141 271.834 372.387 282.587L269.987 384.987C255.303 399.671 231.496 399.671 216.813 384.987C202.129 370.304 202.129 346.497 216.813 331.813L255.025 293.6H205C199.923 293.6 195.053 292.587 190.603 290.742C186.155 288.9 181.999 286.174 178.413 282.587C174.822 278.997 172.094 274.836 170.252 270.383C168.41 265.936 167.4 261.071 167.4 256C167.4 245.616 171.625 236.194 178.424 229.402C178.425 229.401 178.425 229.4 178.426 229.399C178.427 229.398 178.428 229.397 178.429 229.396L216.625 191.2H166.6C145.834 191.2 129 174.366 129 153.6ZM245.596 179.2H166.6C152.461 179.2 141 167.738 141 153.6C141 139.462 152.461 128 166.6 128H307.4C317.754 128 327.089 134.237 331.051 143.803C335.014 153.369 332.823 164.38 325.502 171.702L266.804 230.4H345.8C356.154 230.4 365.489 236.637 369.451 246.203C373.413 255.769 371.223 266.78 363.902 274.102L261.502 376.502C251.504 386.499 235.295 386.499 225.298 376.502C215.301 366.505 215.301 350.296 225.298 340.298L283.996 281.6H205C201.529 281.6 198.219 280.909 195.2 279.657C192.181 278.408 189.352 276.556 186.898 274.102C184.443 271.647 182.591 268.817 181.341 265.796C180.09 262.779 179.4 259.47 179.4 256C179.4 248.925 182.269 242.52 186.909 237.887L245.596 179.2Z" fill="#A3ABC2"/>
</g>
<defs>
<clipPath id="clip0_1766_31289">
<rect width="1em" height="1em" fill="white"/>
</clipPath>
</defs>
</svg>
