<svg width="48" height="48" viewBox="0 0 48 48" fill="none" xmlns="http://www.w3.org/2000/svg">
<path fill-rule="evenodd" clip-rule="evenodd" d="M26.7727 4.99994C26.8397 4.99997 26.9076 5 26.9765 5L31.4826 5C33.0925 4.99998 34.4213 4.99996 35.5037 5.08839C36.6279 5.18024 37.6613 5.37737 38.6319 5.87195C40.1372 6.63894 41.3611 7.86278 42.1281 9.36808C42.6226 10.3388 42.8198 11.3722 42.9116 12.4964C43.0001 13.5787 43 14.9074 43 16.5174V21.0236C43 21.0924 43 21.1603 43.0001 21.2273C43.0007 22.4973 43.0011 23.4569 42.779 24.3823C42.583 25.1986 42.2598 25.9789 41.8211 26.6947C41.3239 27.5061 40.645 28.1844 39.7466 29.0819C39.6992 29.1293 39.6511 29.1773 39.6024 29.226L30.144 38.6844C29.0056 39.8228 28.0661 40.7624 27.2382 41.4652C26.3784 42.1952 25.5082 42.7865 24.4721 43.1232C22.8654 43.6452 21.1346 43.6452 19.5279 43.1232C18.4918 42.7865 17.6217 42.1952 16.7618 41.4652C15.9339 40.7624 14.9944 39.8228 13.856 38.6844L9.31564 34.1441C8.17721 33.0057 7.23764 32.0661 6.5348 31.2382C5.80482 30.3783 5.21348 29.5082 4.87684 28.4721C4.35477 26.8654 4.35477 25.1346 4.87684 23.5279C5.21348 22.4918 5.80482 21.6217 6.5348 20.7618C7.23763 19.9339 8.17719 18.9944 9.3156 17.856L18.774 8.39757C18.8227 8.34891 18.8707 8.30086 18.9181 8.25344C19.8157 7.35499 20.4939 6.67614 21.3053 6.17888C22.0211 5.74025 22.8014 5.41702 23.6177 5.22104C24.5431 4.99888 25.5027 4.99934 26.7727 4.99994ZM26.9765 9C25.4137 9 24.9583 9.01286 24.5515 9.11052C24.1434 9.20851 23.7532 9.37013 23.3953 9.58944C23.0386 9.80804 22.7075 10.121 21.6024 11.226L12.2024 20.626C10.9911 21.8374 10.1687 22.662 9.58416 23.3505C9.0148 24.0212 8.78955 24.4301 8.68106 24.7639C8.42003 25.5673 8.42003 26.4327 8.68106 27.2361C8.78955 27.57 9.0148 27.9788 9.58416 28.6495C10.1687 29.338 10.9911 30.1626 12.2024 31.374L16.626 35.7976C17.8374 37.0089 18.662 37.8313 19.3505 38.4159C20.0212 38.9852 20.4301 39.2105 20.7639 39.3189C21.5673 39.58 22.4327 39.58 23.2361 39.3189C23.57 39.2105 23.9788 38.9852 24.6495 38.4159C25.338 37.8313 26.1626 37.0089 27.374 35.7976L36.774 26.3976C37.879 25.2925 38.192 24.9614 38.4106 24.6047C38.6299 24.2468 38.7915 23.8566 38.8895 23.4485C38.9872 23.0417 39 22.5863 39 21.0236V16.6C39 14.8868 38.9985 13.7223 38.9249 12.8221C38.8533 11.9452 38.7234 11.4968 38.564 11.184C38.1805 10.4314 37.5686 9.81947 36.816 9.43598C36.5032 9.2766 36.0548 9.14675 35.1779 9.07511C34.2778 9.00156 33.1132 9 31.4 9H26.9765Z" fill="black"/>
<path fill-rule="evenodd" clip-rule="evenodd" d="M29 17C27.8954 17 27 17.8954 27 19C27 20.1046 27.8954 21 29 21C30.1046 21 31 20.1046 31 19C31 17.8954 30.1046 17 29 17ZM23 19C23 15.6863 25.6863 13 29 13C32.3137 13 35 15.6863 35 19C35 22.3137 32.3137 25 29 25C25.6863 25 23 22.3137 23 19Z" fill="black"/>
</svg>
