<svg width="48" height="48" viewBox="0 0 48 48" fill="none" xmlns="http://www.w3.org/2000/svg">
<path d="M26 4C26 2.89543 25.1046 2 24 2C22.8954 2 22 2.89543 22 4V25.1716L17.4142 20.5858C16.6332 19.8047 15.3668 19.8047 14.5858 20.5858C13.8047 21.3668 13.8047 22.6332 14.5858 23.4142L22.5858 31.4142C23.3668 32.1953 24.6332 32.1953 25.4142 31.4142L33.4142 23.4142C34.1953 22.6332 34.1953 21.3668 33.4142 20.5858C32.6332 19.8047 31.3668 19.8047 30.5858 20.5858L26 25.1716V4Z" fill="black"/>
<path d="M37.9097 16.0874C37.8913 16.059 37.8735 16.0299 37.8564 16.0002C37.3041 15.0436 37.6319 13.8204 38.5884 13.2681C39.521 12.7297 40.7071 13.0277 41.2777 13.9294L41.2819 13.9268C43.0098 16.885 44 20.3268 44 23.9999C44 35.0456 35.0457 43.9999 24 43.9999C12.9543 43.9999 4 35.0456 4 23.9999C4 20.3268 4.99017 16.885 6.71813 13.9268L6.72227 13.9294C7.29293 13.0277 8.47892 12.7297 9.41152 13.2681C10.3681 13.8204 10.6959 15.0436 10.1436 16.0002C10.1265 16.0298 10.1088 16.0588 10.0904 16.0871C8.76006 18.4207 8 21.1216 8 23.9999C8 32.8365 15.1634 39.9999 24 39.9999C32.8366 39.9999 40 32.8365 40 23.9999C40 21.1217 39.24 18.4209 37.9097 16.0874Z" fill="black"/>
</svg>
