<svg width="48" height="48" viewBox="0 0 48 48" fill="none" xmlns="http://www.w3.org/2000/svg">
<path d="M14 18C14 16.8954 14.8954 16 16 16H32C33.1046 16 34 16.8954 34 18C34 19.1046 33.1046 20 32 20H16C14.8954 20 14 19.1046 14 18Z" fill="black"/>
<path d="M16 24C14.8954 24 14 24.8954 14 26C14 27.1046 14.8954 28 16 28H22C23.1046 28 24 27.1046 24 26C24 24.8954 23.1046 24 22 24H16Z" fill="black"/>
<path fill-rule="evenodd" clip-rule="evenodd" d="M6 18.8C6 14.3196 6 12.0794 6.87195 10.3681C7.63894 8.86278 8.86278 7.63894 10.3681 6.87195C12.0794 6 14.3196 6 18.8 6H29.2C33.6804 6 35.9206 6 37.6319 6.87195C39.1372 7.63894 40.3611 8.86278 41.1281 10.3681C42 12.0794 42 14.3196 42 18.8V31.2C42 35.6804 42 37.9206 41.1281 39.6319C40.3611 41.1372 39.1372 42.3611 37.6319 43.1281C35.9206 44 33.6804 44 29.2 44H18.8C14.3196 44 12.0794 44 10.3681 43.1281C8.86278 42.3611 7.63894 41.1372 6.87195 39.6319C6 37.9206 6 35.6804 6 31.2V18.8ZM18.8 10H29.2C31.5062 10 32.9953 10.0031 34.1287 10.0957C35.2153 10.1845 35.6182 10.3352 35.816 10.436C36.5686 10.8195 37.1805 11.4314 37.564 12.184C37.6648 12.3818 37.8155 12.7847 37.9043 13.8713C37.9969 15.0047 38 16.4938 38 18.8V25.1716L23.1716 40H18.8C16.4938 40 15.0047 39.9969 13.8713 39.9043C12.7847 39.8155 12.3818 39.6648 12.184 39.564C11.4314 39.1805 10.8195 38.5686 10.436 37.816C10.3352 37.6182 10.1845 37.2153 10.0957 36.1287C10.0031 34.9953 10 33.5062 10 31.2V18.8C10 16.4938 10.0031 15.0047 10.0957 13.8713C10.1845 12.7847 10.3352 12.3818 10.436 12.184C10.8195 11.4314 11.4314 10.8195 12.184 10.436C12.3818 10.3352 12.7847 10.1845 13.8713 10.0957C15.0047 10.0031 16.4938 10 18.8 10ZM28.8285 40H29.2C31.5062 40 32.9953 39.9969 34.1287 39.9043C35.2153 39.8155 35.6182 39.6648 35.816 39.564C36.5686 39.1805 37.1805 38.5686 37.564 37.816C37.6648 37.6182 37.8155 37.2153 37.9043 36.1287C37.9969 34.9953 38 33.5062 38 31.2V30.8285L28.8285 40Z" fill="black"/>
</svg>
