<svg width="48" height="48" viewBox="0 0 48 48" fill="none" xmlns="http://www.w3.org/2000/svg">
<path d="M37.88 26H37.8582C36.8878 32.7846 31.0529 38 24 38C19.2425 38 15.0393 35.627 12.5094 32H16C17.1046 32 18 31.1046 18 30C18 28.8954 17.1046 28 16 28H9C7.34315 28 6 29.3431 6 31V38C6 39.1046 6.89543 40 8 40C9.10457 40 10 39.1046 10 38V35.3147C13.2999 39.3927 18.3455 42 24 42C33.1349 42 40.6805 35.1953 41.8443 26.3783C41.8604 26.294 41.8713 26.2079 41.8765 26.1202C41.8811 26.0802 41.8857 26.0401 41.8901 26H41.88C41.88 24.8954 40.9846 24 39.88 24C38.7754 24 37.88 24.8954 37.88 26Z" fill="black"/>
<path d="M38 10V12.6853C34.7001 8.60733 29.6545 6 24 6C14.7349 6 7.10475 13.0001 6.10986 22H6.13C6.13 23.1046 7.02544 24 8.13 24C9.23457 24 10.13 23.1046 10.13 22H10.1418C11.1122 15.2154 16.9471 10 24 10C28.7575 10 32.9607 12.373 35.4906 16H32C30.8954 16 30 16.8954 30 18C30 19.1046 30.8954 20 32 20H39C40.6569 20 42 18.6569 42 17V10C42 8.89543 41.1046 8 40 8C38.8954 8 38 8.89543 38 10Z" fill="black"/>
</svg>
