<svg width="48" height="48" viewBox="0 0 48 48" fill="none" xmlns="http://www.w3.org/2000/svg">
<path d="M25.4142 2.58579C24.6332 1.80474 23.3668 1.80474 22.5858 2.58579L14.5858 10.5858C13.8047 11.3668 13.8047 12.6332 14.5858 13.4142C15.3668 14.1953 16.6332 14.1953 17.4142 13.4142L22 8.82843V28C22 29.1046 22.8954 30 24 30C25.1046 30 26 29.1046 26 28V8.82843L30.5858 13.4142C31.3668 14.1953 32.6332 14.1953 33.4142 13.4142C34.1953 12.6332 34.1953 11.3668 33.4142 10.5858L25.4142 2.58579Z" fill="black"/>
<path d="M8.69844 14.3119C9.69122 14.7961 10.1035 15.9935 9.61929 16.9862C9.60058 17.0246 9.58081 17.0621 9.56003 17.0987C8.55964 19.1881 8 21.5287 8 23.9999C8 32.8365 15.1634 39.9999 24 39.9999C32.8366 39.9999 40 32.8365 40 23.9999C40 21.5287 39.4398 19.1884 38.4394 17.099C38.4186 17.0624 38.3994 17.0246 38.3807 16.9863C37.8965 15.9935 38.3088 14.7961 39.3015 14.3119C40.289 13.8303 41.4789 14.2356 41.9681 15.217L41.9723 15.2148C43.2709 17.8666 44 20.8481 44 23.9999C44 35.0456 35.0457 43.9999 24 43.9999C12.9543 43.9999 4 35.0456 4 23.9999C4 20.8481 4.72906 17.8666 6.02774 15.2148L6.03188 15.217C6.52102 14.2356 7.71093 13.8303 8.69844 14.3119Z" fill="black"/>
</svg>
