<svg width="48" height="48" viewBox="0 0 48 48" fill="none" xmlns="http://www.w3.org/2000/svg">
<path fill-rule="evenodd" clip-rule="evenodd" d="M27.4408 4.96724C25.3749 3.52109 22.6252 3.52109 20.5592 4.96724L5.19376 15.7231C2.91889 17.3155 2.9189 20.6845 5.19376 22.2769L20.5592 33.0328C22.6252 34.4789 25.3749 34.4789 27.4408 33.0328L42.8063 22.2769C45.0812 20.6845 45.0811 17.3155 42.8063 15.7231L27.4408 4.96724ZM22.8531 8.24417C23.5417 7.76212 24.4583 7.76212 25.1469 8.24416L40.5124 19L25.1469 29.7558C24.4583 30.2379 23.5417 30.2379 22.8531 29.7558L7.48761 19L22.8531 8.24417Z" fill="black"/>
<path d="M6.15845 27.8696C5.25803 27.2298 4.00945 27.4411 3.36968 28.3416C2.7299 29.242 2.9412 30.4906 3.84162 31.1303L20.5248 42.9842C22.6057 44.4627 25.3943 44.4627 27.4753 42.9842L44.1585 31.1303C45.0589 30.4906 45.2702 29.242 44.6304 28.3416C43.9906 27.4411 42.742 27.2298 41.8416 27.8696L25.1585 39.7234C24.4648 40.2163 23.5353 40.2163 22.8416 39.7234L6.15845 27.8696Z" fill="black"/>
</svg>
