<svg width="48" height="48" viewBox="0 0 48 48" fill="none" xmlns="http://www.w3.org/2000/svg">
<path d="M37.4142 4.58579C36.6332 3.80474 35.3668 3.80474 34.5858 4.58579C33.8047 5.36684 33.8047 6.63317 34.5858 7.41421L37.1716 10H18C13.5817 10 10 13.5817 10 18V20C10 21.1046 10.8954 22 12 22C13.1046 22 14 21.1046 14 20V18C14 15.7909 15.7909 14 18 14H37.1716L34.5858 16.5858C33.8047 17.3668 33.8047 18.6332 34.5858 19.4142C35.3668 20.1953 36.6332 20.1953 37.4142 19.4142L43.4142 13.4142C44.1953 12.6332 44.1953 11.3668 43.4142 10.5858L37.4142 4.58579Z" fill="black"/>
<path d="M13.4142 31.4142C14.1953 30.6332 14.1953 29.3668 13.4142 28.5858C12.6332 27.8047 11.3668 27.8047 10.5858 28.5858L4.58579 34.5858C3.80474 35.3668 3.80474 36.6332 4.58579 37.4142L10.5858 43.4142C11.3668 44.1953 12.6332 44.1953 13.4142 43.4142C14.1953 42.6332 14.1953 41.3668 13.4142 40.5858L10.8284 38H30C34.4183 38 38 34.4183 38 30V28C38 26.8954 37.1046 26 36 26C34.8954 26 34 26.8954 34 28V30C34 32.2091 32.2091 34 30 34H10.8284L13.4142 31.4142Z" fill="black"/>
</svg>
