<svg width="48" height="48" viewBox="0 0 48 48" fill="none" xmlns="http://www.w3.org/2000/svg">
<path d="M6 13C6 12.1748 6.14281 11.3829 6.40505 10.6477L10.8787 15.1213C12.0503 16.2929 13.9497 16.2929 15.1213 15.1213C16.2929 13.9497 16.2929 12.0503 15.1213 10.8787L10.6477 6.40505C11.3829 6.14281 12.1748 6 13 6C16.866 6 20 9.13401 20 13C20 14.2055 19.6953 15.3399 19.1586 16.3302L41.4142 38.5858C42.1953 39.3668 42.1953 40.6332 41.4142 41.4142C40.6332 42.1953 39.3668 42.1953 38.5858 41.4142L16.3302 19.1586C15.3399 19.6953 14.2055 20 13 20C9.13401 20 6 16.866 6 13Z" fill="black"/>
<path d="M38.919 14.6214L40.431 12.3534C41.3433 10.985 41.1629 9.16292 40 8C38.837 6.83709 37.015 6.65667 35.6466 7.56893L33.3785 9.08095C32.4959 9.66941 31.8831 10.5844 31.675 11.6247L31.2773 13.6133C31.2557 13.7214 31.241 13.8301 31.233 13.9386L26.8284 18.3431L29.6569 21.1716L34.0615 16.7669C34.17 16.759 34.2786 16.7443 34.3867 16.7227L36.3753 16.3249C37.4155 16.1169 38.3306 15.5041 38.919 14.6214Z" fill="black"/>
<path d="M6.58579 38.5858L18.3431 26.8284L21.1716 29.6569L9.41421 41.4142C8.63317 42.1953 7.36683 42.1953 6.58579 41.4142C5.80474 40.6332 5.80474 39.3668 6.58579 38.5858Z" fill="black"/>
</svg>
