<svg width="48" height="48" viewBox="0 0 48 48" fill="none" xmlns="http://www.w3.org/2000/svg">
<path fill-rule="evenodd" clip-rule="evenodd" d="M12 6C8.68629 6 6 8.68629 6 12C6 15.3137 8.68629 18 12 18C15.3137 18 18 15.3137 18 12C18 8.68629 15.3137 6 12 6ZM10 12C10 10.8954 10.8954 10 12 10C13.1046 10 14 10.8954 14 12C14 13.1046 13.1046 14 12 14C10.8954 14 10 13.1046 10 12Z" fill="black"/>
<path fill-rule="evenodd" clip-rule="evenodd" d="M31.7586 15.0474C31.4206 14.4235 30.7773 14.0253 30.0681 14.0012C29.3589 13.977 28.69 14.3304 28.3104 14.9299L22.5213 24.0705L19.7524 19.0362C19.4009 18.3971 18.7294 18 18 18C17.2706 18 16.5991 18.3971 16.2476 19.0362L5.24757 39.0362C4.90679 39.6558 4.91852 40.4092 5.27842 41.0179C5.63832 41.6266 6.29288 42 7 42H43C43.7048 42 44.3576 41.629 44.7183 41.0234C45.079 40.4179 45.0943 39.6672 44.7586 39.0474L31.7586 15.0474ZM30.1825 38L24.722 28.0717L29.8653 19.9506L39.6421 38H30.1825ZM18 24.1501L25.6175 38H10.3825L18 24.1501Z" fill="black"/>
</svg>
