<svg width="1em" height="1em" viewBox="0 0 48 48" fill="currentColor" xmlns="http://www.w3.org/2000/svg">
<path d="M31 31C32.6569 31 34 29.6569 34 28C34 26.3431 32.6569 25 31 25C29.3431 25 28 26.3431 28 28C28 29.6569 29.3431 31 31 31Z" />
<path fill-rule="evenodd" clip-rule="evenodd" d="M9.01974 14C9.0381 13.4848 9.07265 13.2023 9.13631 12.9647C9.50618 11.5844 10.5844 10.5062 11.9647 10.1363C12.4093 10.0172 13.0113 10 15 10H31C32.1046 10 33 9.10456 33 7.99999C33 6.89542 32.1046 6 31 6L14.7248 5.9999C13.1341 5.99903 11.9528 5.99839 10.9295 6.27259C8.16872 7.01232 6.01234 9.16871 5.2726 11.9294C5.10783 12.5444 5.04231 13.2164 5.01644 14H5V15.2137C4.99972 15.3793 4.99982 15.5496 4.99991 15.7248L5 30.4826C4.99998 32.0925 4.99995 33.4213 5.08839 34.5037C5.18024 35.6278 5.37737 36.6613 5.87195 37.6319C6.63894 39.1372 7.86278 40.3611 9.36808 41.1281C10.3387 41.6226 11.3722 41.8198 12.4963 41.9116C13.5787 42 14.9074 42 16.5174 42H31.4827C33.0926 42 34.4213 42 35.5037 41.9116C36.6278 41.8198 37.6613 41.6226 38.6319 41.1281C40.1372 40.3611 41.3611 39.1372 42.1281 37.6319C42.6226 36.6613 42.8198 35.6278 42.9116 34.5037C43 33.4213 43 32.0926 43 30.4826V25.5174C43 23.9074 43 22.5787 42.9116 21.4963C42.8198 20.3722 42.6226 19.3387 42.1281 18.3681C41.3611 16.8628 40.1372 15.6389 38.6319 14.8719C37.6613 14.3774 36.6278 14.1802 35.5037 14.0884C34.4213 14 33.0925 14 31.4826 14L9.01974 14ZM35.1779 18.0751C34.2777 18.0016 33.1132 18 31.4 18H9V30.4C9 32.1132 9.00156 33.2777 9.0751 34.1779C9.14674 35.0548 9.2766 35.5032 9.43598 35.816C9.81947 36.5686 10.4314 37.1805 11.184 37.564C11.4968 37.7234 11.9452 37.8533 12.8221 37.9249C13.7223 37.9984 14.8868 38 16.6 38H31.4C33.1132 38 34.2777 37.9984 35.1779 37.9249C36.0548 37.8533 36.5032 37.7234 36.816 37.564C37.5686 37.1805 38.1805 36.5686 38.564 35.816C38.7234 35.5032 38.8533 35.0548 38.9249 34.1779C38.9984 33.2777 39 32.1132 39 30.4V25.6C39 23.8868 38.9984 22.7223 38.9249 21.8221C38.8533 20.9452 38.7234 20.4968 38.564 20.184C38.1805 19.4314 37.5686 18.8195 36.816 18.436C36.5032 18.2766 36.0548 18.1467 35.1779 18.0751Z" />
</svg>
