<svg width="1em" height="1em" viewBox="0 0 48 48" fill="none" xmlns="http://www.w3.org/2000/svg">
<path d="M24 44C35.0457 44 44 35.0457 44 24C44 12.9543 35.0457 4 24 4C12.9543 4 4 12.9543 4 24C4 35.0457 12.9543 44 24 44ZM34.5539 18.2591L23.2102 32.2591C22.8302 32.7281 22.2586 33.0004 21.6549 33C21.0513 32.9996 20.4801 32.7265 20.1007 32.257L14.4444 25.257C13.7502 24.3979 13.8839 23.1386 14.743 22.4444C15.6021 21.7502 16.8614 21.8839 17.5556 22.743L21.6584 27.8205L31.4461 15.7409C32.1415 14.8827 33.4009 14.7507 34.2591 15.4461C35.1173 16.1415 35.2493 17.4009 34.5539 18.2591Z" fill="currentColor"/>
</svg>
