<svg width="48" height="48" viewBox="0 0 48 48" fill="none" xmlns="http://www.w3.org/2000/svg">
<path d="M34.4142 13.5858C35.1953 14.3668 35.1953 15.6332 34.4142 16.4142L26 24.8284L23.1716 22L31.5858 13.5858C32.3668 12.8047 33.6332 12.8047 34.4142 13.5858Z" fill="black"/>
<path d="M44.4142 14.5858C45.1953 15.3668 45.1953 16.6332 44.4142 17.4142L27.4142 34.4142C26.6332 35.1953 25.3668 35.1953 24.5858 34.4142L14.5858 24.4142C13.8047 23.6332 13.8047 22.3668 14.5858 21.5858C15.3668 20.8047 16.6332 20.8047 17.4142 21.5858L26 30.1716L41.5858 14.5858C42.3668 13.8047 43.6332 13.8047 44.4142 14.5858Z" fill="black"/>
<path d="M6.41421 21.5858C5.63317 20.8047 4.36684 20.8047 3.58579 21.5858C2.80474 22.3668 2.80474 23.6332 3.58579 24.4142L13.5858 34.4142C14.3668 35.1953 15.6332 35.1953 16.4142 34.4142C17.1953 33.6332 17.1953 32.3668 16.4142 31.5858L6.41421 21.5858Z" fill="black"/>
</svg>
