<svg width="48" height="48" viewBox="0 0 48 48" fill="none" xmlns="http://www.w3.org/2000/svg">
<path d="M24 48C37.2548 48 48 37.2548 48 24C48 10.7452 37.2548 0 24 0C10.7452 0 0 10.7452 0 24C0 37.2548 10.7452 48 24 48ZM37.5162 15.3043L21.1725 34.3043C20.7913 34.7474 20.2353 35.0016 19.6508 35C19.0663 34.9984 18.5117 34.7411 18.1329 34.2959L10.4767 25.2959C9.76094 24.4546 9.86277 23.1924 10.7041 22.4767C11.5454 21.7609 12.8077 21.8628 13.5234 22.7041L19.6647 29.9233L34.4838 12.6958C35.2041 11.8584 36.4669 11.7635 37.3043 12.4838C38.1416 13.2041 38.2365 14.4669 37.5162 15.3043Z" fill="black"/>
</svg>
