<svg width="1em" height="1em" viewBox="0 0 48 48" fill="none" xmlns="http://www.w3.org/2000/svg">
<path d="M26 14C26 12.8954 25.1046 12 24 12C22.8954 12 22 12.8954 22 14V24C22 24.5304 22.2107 25.0391 22.5858 25.4142L28.5858 31.4142C29.3668 32.1953 30.6332 32.1953 31.4142 31.4142C32.1953 30.6332 32.1953 29.3668 31.4142 28.5858L26 23.1716V14Z" fill="currentColor"/>
<path d="M44 24C44 35.0457 35.0457 44 24 44C12.9543 44 4 35.0457 4 24C4 12.9543 12.9543 4 24 4C35.0457 4 44 12.9543 44 24ZM40 24C40 15.1634 32.8366 8 24 8C15.1634 8 8 15.1634 8 24C8 32.8366 15.1634 40 24 40C32.8366 40 40 32.8366 40 24Z" fill="currentColor"/>
</svg>
