<svg width="1em" height="1em" viewBox="0 0 48 48" fill="none" xmlns="http://www.w3.org/2000/svg">
<path fill-rule="evenodd" clip-rule="evenodd" d="M9.41421 6.58579C8.63317 5.80474 7.36684 5.80474 6.58579 6.58579C5.80474 7.36683 5.80474 8.63317 6.58579 9.41421L9.81237 12.6408C6.16744 15.3168 3.30646 18.997 1.63678 23.2725C1.45408 23.7403 1.45408 24.2597 1.63678 24.7276C5.12665 33.6638 13.8209 40 24 40C27.8348 40 31.4589 39.1007 34.6734 37.5019L38.5858 41.4142C39.3668 42.1953 40.6332 42.1953 41.4142 41.4142C42.1953 40.6332 42.1953 39.3668 41.4142 38.5858L9.41421 6.58579ZM31.6545 34.4829L27.3302 30.1586C26.3399 30.6953 25.2055 31 24 31C20.134 31 17 27.866 17 24C17 22.7945 17.3047 21.6601 17.8414 20.6698L12.6806 15.509C9.61693 17.6157 7.16914 20.5543 5.6636 24C8.75118 31.0666 15.8018 36 24 36C26.7109 36 29.2963 35.4606 31.6545 34.4829Z" fill="currentColor"/>
<path d="M46.3632 24.7275C45.4518 27.0613 44.1854 29.2178 42.6303 31.1303L39.7844 28.2844C40.8036 26.9767 41.664 25.5389 42.3364 24C39.2488 16.9334 32.1982 12 24 12C23.8349 12 23.6702 12.002 23.506 12.006L19.8564 8.35636C21.2023 8.12212 22.5868 8 24 8C34.1791 8 42.8733 14.3362 46.3632 23.2724C46.5459 23.7403 46.5459 24.2597 46.3632 24.7275Z" fill="currentColor"/>
</svg>
