<svg width="1em" height="1em" viewBox="0 0 48 48" fill="none" xmlns="http://www.w3.org/2000/svg">
<path d="M24 31C27.866 31 31 27.866 31 24C31 20.134 27.866 17 24 17C20.134 17 17 20.134 17 24C17 27.866 20.134 31 24 31Z" fill="currentColor"/>
<path fill-rule="evenodd" clip-rule="evenodd" d="M24 8C13.8209 8 5.12665 14.3362 1.63678 23.2725C1.45408 23.7403 1.45408 24.2597 1.63678 24.7276C5.12666 33.6638 13.8209 40 24 40C34.1791 40 42.8733 33.6638 46.3632 24.7275C46.5459 24.2597 46.5459 23.7403 46.3632 23.2724C42.8733 14.3362 34.1791 8 24 8ZM24 36C15.8018 36 8.75118 31.0666 5.6636 24C8.75118 16.9335 15.8018 12 24 12C32.1982 12 39.2488 16.9334 42.3364 24C39.2488 31.0665 32.1982 36 24 36Z" fill="currentColor"/>
</svg>
