<svg width="48" height="48" viewBox="0 0 48 48" fill="none" xmlns="http://www.w3.org/2000/svg">
<path d="M32 20C33.6569 20 35 18.6569 35 17C35 15.3431 33.6569 14 32 14C30.3431 14 29 15.3431 29 17C29 18.6569 30.3431 20 32 20Z" fill="black"/>
<path fill-rule="evenodd" clip-rule="evenodd" d="M43.1281 37.6319C43.535 36.8333 43.752 35.9196 43.8677 34.7167C44.0116 34.3412 44.0381 33.9311 43.9473 33.5428C44 32.3712 44 30.958 44 29.2V18.8C44 14.3196 44 12.0794 43.1281 10.3681C42.3611 8.86278 41.1372 7.63894 39.6319 6.87195C37.9206 6 35.6804 6 31.2 6H16.8C12.3196 6 10.0794 6 8.36808 6.87195C6.86278 7.63894 5.63894 8.86278 4.87195 10.3681C4 12.0794 4 14.3196 4 18.8V29.2C4 33.6804 4 35.9206 4.87195 37.6319C5.63894 39.1372 6.86278 40.3611 8.36808 41.1281C10.0794 42 12.3196 42 16.8 42H31.2C35.6804 42 37.9206 42 39.6319 41.1281C41.1372 40.3611 42.3611 39.1372 43.1281 37.6319ZM31.2 10H16.8C14.4938 10 13.0047 10.0031 11.8713 10.0957C10.7847 10.1845 10.3818 10.3352 10.184 10.436C9.43139 10.8195 8.81947 11.4314 8.43597 12.184C8.3352 12.3818 8.18449 12.7847 8.09571 13.8713C8.00311 15.0047 8 16.4938 8 18.8V25.1716L14.5858 18.5858C15.3668 17.8047 16.6332 17.8047 17.4142 18.5858L26 27.1716L30.5858 22.5858C31.3668 21.8047 32.6332 21.8047 33.4142 22.5858L40 29.1716V18.8C40 16.4938 39.9969 15.0047 39.9043 13.8713C39.8155 12.7847 39.6648 12.3818 39.564 12.184C39.1805 11.4314 38.5686 10.8195 37.816 10.436C37.6182 10.3352 37.2153 10.1845 36.1287 10.0957C34.9953 10.0031 33.5062 10 31.2 10ZM8.09571 34.1287C8.02543 33.2685 8.0067 32.2034 8.00175 30.7316C8.14918 30.6462 8.28803 30.5404 8.41421 30.4142L16 22.8284L24.5858 31.4142C24.9609 31.7893 25.4696 32 26 32C26.5304 32 27.0391 31.7893 27.4142 31.4142L32 26.8284L39.8479 34.6763C39.7602 35.3607 39.6457 35.6557 39.564 35.816C39.1805 36.5686 38.5686 37.1805 37.816 37.564C37.6182 37.6648 37.2153 37.8155 36.1287 37.9043C34.9953 37.9969 33.5062 38 31.2 38H16.8C14.4938 38 13.0047 37.9969 11.8713 37.9043C10.7847 37.8155 10.3818 37.6648 10.184 37.564C9.43139 37.1805 8.81947 36.5686 8.43597 35.816C8.3352 35.6182 8.18449 35.2153 8.09571 34.1287Z" fill="black"/>
</svg>
