<svg width="1em" height="1em" viewBox="0 0 48 48" fill="none" xmlns="http://www.w3.org/2000/svg">
<path d="M18 21C18 19.8954 18.8954 19 20 19H24C25.1046 19 26 19.8954 26 21V31H28C29.1046 31 30 31.8954 30 33C30 34.1046 29.1046 35 28 35H20C18.8954 35 18 34.1046 18 33C18 31.8954 18.8954 31 20 31H22V23H20C18.8954 23 18 22.1046 18 21Z" fill="currentColor"/>
<path d="M24 17C25.6569 17 27 15.6569 27 14C27 12.3431 25.6569 11 24 11C22.3431 11 21 12.3431 21 14C21 15.6569 22.3431 17 24 17Z" fill="currentColor"/>
<path fill-rule="evenodd" clip-rule="evenodd" d="M24 44C35.0457 44 44 35.0457 44 24C44 12.9543 35.0457 4 24 4C12.9543 4 4 12.9543 4 24C4 35.0457 12.9543 44 24 44ZM24 40C32.8366 40 40 32.8366 40 24C40 15.1634 32.8366 8 24 8C15.1634 8 8 15.1634 8 24C8 32.8366 15.1634 40 24 40Z" fill="currentColor"/>
</svg>
