<svg width="48" height="48" viewBox="0 0 48 48" fill="none" xmlns="http://www.w3.org/2000/svg">
<path d="M26.5985 3.09167C27.4325 3.35322 28 4.126 28 5.00002V18H38C38.7447 18 39.4277 18.4138 39.7726 19.0738C40.1175 19.7338 40.0671 20.5308 39.6418 21.1422L23.6418 44.1422C23.1427 44.8596 22.2355 45.1699 21.4015 44.9084C20.5675 44.6468 20 43.874 20 43V30H10C9.25531 30 8.57228 29.5863 8.2274 28.9262C7.88252 28.2662 7.93292 27.4692 8.3582 26.8579L24.3582 3.8579C24.8573 3.14041 25.7645 2.83013 26.5985 3.09167ZM13.8276 26H22C23.1046 26 24 26.8955 24 28V36.6228L34.1724 22H26C24.8954 22 24 21.1046 24 20V11.3773L13.8276 26Z" fill="black"/>
</svg>
