<svg width="48" height="48" viewBox="0 0 48 48" fill="none" xmlns="http://www.w3.org/2000/svg">
<path d="M15.9403 5.51491C15.6724 4.44332 14.5865 3.7918 13.5149 4.0597C12.4433 4.3276 11.7918 5.41347 12.0597 6.48506L13.0597 10.4851C13.3276 11.5566 14.4135 12.2082 15.4851 11.9403C16.5567 11.6724 17.2082 10.5865 16.9403 9.51491L15.9403 5.51491Z" fill="black"/>
<path d="M38.4143 26.4142L36.6569 28.1715C36.2922 28.5589 35.774 28.8 35.2 28.8C34.0954 28.8 33.2 27.9045 33.2 26.8C33.2 26.226 33.4418 25.7084 33.8291 25.3437L35.5859 23.5858C38.6708 20.5008 38.6708 15.4991 35.5859 12.4142C32.5009 9.32924 27.4992 9.32924 24.4143 12.4142L22.6569 14.1715L22.6562 14.1708C22.2915 14.5582 21.774 14.8 21.2 14.8C20.0954 14.8 19.2 13.9045 19.2 12.8C19.2 12.226 19.4418 11.7084 19.8291 11.3437L21.5859 9.58576C26.2329 4.93872 33.7673 4.93871 38.4143 9.58576C43.0613 14.2328 43.0613 21.7671 38.4143 26.4142Z" fill="black"/>
<path d="M12.4143 24.4142L14.1717 22.6568C14.5589 22.2921 14.8 21.774 14.8 21.2C14.8 20.0954 13.9046 19.2 12.8 19.2C12.2261 19.2 11.7086 19.4418 11.3439 19.829L9.58587 21.5858C4.93883 26.2328 4.93883 33.7671 9.58587 38.4142C14.2329 43.0612 21.7673 43.0612 26.4143 38.4142L28.1717 36.6568C28.5589 36.2921 28.8 35.774 28.8 35.2C28.8 34.0954 27.9046 33.2 26.8 33.2C26.2261 33.2 25.7086 33.4418 25.3439 33.829L23.5859 35.5858C20.5009 38.6707 15.4992 38.6707 12.4143 35.5858C9.32935 32.5008 9.32935 27.4991 12.4143 24.4142Z" fill="black"/>
<path d="M30.4142 20.4142C31.1953 19.6332 31.1953 18.3668 30.4142 17.5858C29.6332 16.8047 28.3668 16.8047 27.5858 17.5858L17.5858 27.5858C16.8047 28.3668 16.8047 29.6332 17.5858 30.4142C18.3668 31.1952 19.6332 31.1952 20.4142 30.4142L30.4142 20.4142Z" fill="black"/>
<path d="M4.05972 13.5149C4.32761 12.4433 5.41348 11.7918 6.48507 12.0597L10.4851 13.0597C11.5567 13.3276 12.2082 14.4135 11.9403 15.4851C11.6724 16.5566 10.5865 17.2082 9.51493 16.9403L5.51493 15.9403C4.44334 15.6724 3.79182 14.5865 4.05972 13.5149Z" fill="black"/>
<path d="M32.5149 36.0597C33.5865 35.7918 34.6724 36.4433 34.9403 37.5149L35.9403 41.5149C36.2082 42.5865 35.5567 43.6724 34.4851 43.9403C33.4135 44.2082 32.3276 43.5566 32.0597 42.4851L31.0597 38.4851C30.7918 37.4135 31.4433 36.3276 32.5149 36.0597Z" fill="black"/>
<path d="M38.4851 31.0597C37.4135 30.7918 36.3276 31.4433 36.0597 32.5149C35.7918 33.5865 36.4433 34.6724 37.5149 34.9403L41.5149 35.9403C42.5865 36.2082 43.6724 35.5566 43.9403 34.4851C44.2082 33.4135 43.5567 32.3276 42.4851 32.0597L38.4851 31.0597Z" fill="black"/>
</svg>
