<svg width="48" height="48" viewBox="0 0 48 48" fill="none" xmlns="http://www.w3.org/2000/svg">
<path d="M38.4143 26.4142L37.364 27.4644L37.3631 27.4635C37.0059 27.7963 36.5267 28 36 28C34.8954 28 34 27.1045 34 26C34 25.4732 34.2036 24.994 34.5365 24.6368L34.5356 24.636L35.5859 23.5857C38.6708 20.5008 38.6708 15.4991 35.5859 12.4142C32.5009 9.32923 27.4992 9.32923 24.4143 12.4142L23.364 13.4644L23.3631 13.4635C23.0059 13.7963 22.5267 14 22 14C20.8954 14 20 13.1045 20 12C20 11.4732 20.2036 10.994 20.5365 10.6368L20.5356 10.636L21.5859 9.58575C26.2329 4.93871 33.7673 4.9387 38.4143 9.58574C43.0613 14.2328 43.0613 21.7671 38.4143 26.4142Z" fill="black"/>
<path d="M12.4143 24.4142L13.4645 23.3639L13.4636 23.363C13.7964 23.0058 14 22.5267 14 22C14 20.8954 13.1046 20 12 20C11.4733 20 10.9942 20.2036 10.637 20.5363L10.6361 20.5355L9.58587 21.5857C4.93883 26.2328 4.93883 33.7671 9.58587 38.4142C14.2329 43.0612 21.7673 43.0612 26.4143 38.4142L27.4645 37.3639L27.4636 37.363C27.7964 37.0058 28 36.5267 28 36C28 34.8954 27.1046 34 26 34C25.4733 34 24.9942 34.2036 24.637 34.5363L24.6361 34.5355L23.5859 35.5857C20.5009 38.6707 15.4992 38.6707 12.4143 35.5857C9.32935 32.5008 9.32935 27.4991 12.4143 24.4142Z" fill="black"/>
<path d="M12.4142 9.58576C11.6332 8.80471 10.3668 8.80471 9.58579 9.58576C8.80474 10.3668 8.80474 11.6331 9.58579 12.4142L35.5858 38.4142C36.3668 39.1952 37.6332 39.1952 38.4142 38.4142C39.1953 37.6331 39.1953 36.3668 38.4142 35.5858L12.4142 9.58576Z" fill="black"/>
</svg>
