<svg width="48" height="48" viewBox="0 0 48 48" fill="none" xmlns="http://www.w3.org/2000/svg">
<path d="M38.4143 26.4142L36.6569 28.1715C36.2922 28.5588 35.774 28.8 35.2 28.8C34.0954 28.8 33.2 27.9045 33.2 26.8C33.2 26.2259 33.4418 25.7084 33.8291 25.3437L35.5859 23.5857C38.6708 20.5008 38.6708 15.4991 35.5859 12.4142C32.5009 9.32923 27.4992 9.32923 24.4143 12.4142L22.6569 14.1715L22.6562 14.1708C22.2915 14.5581 21.774 14.8 21.2 14.8C20.0954 14.8 19.2 13.9045 19.2 12.8C19.2 12.2259 19.4418 11.7084 19.8291 11.3437L21.5859 9.58575C26.2329 4.93871 33.7673 4.9387 38.4143 9.58574C43.0613 14.2328 43.0613 21.7671 38.4143 26.4142Z" fill="black"/>
<path d="M12.4143 24.4142L14.1717 22.6568C14.5589 22.2921 14.8 21.7739 14.8 21.2C14.8 20.0954 13.9046 19.2 12.8 19.2C12.2261 19.2 11.7086 19.4418 11.3439 19.829L9.58587 21.5857C4.93883 26.2328 4.93883 33.7671 9.58587 38.4142C14.2329 43.0612 21.7673 43.0612 26.4143 38.4142L28.1717 36.6568C28.5589 36.2921 28.8 35.7739 28.8 35.2C28.8 34.0954 27.9046 33.2 26.8 33.2C26.2261 33.2 25.7086 33.4418 25.3439 33.829L23.5859 35.5857C20.5009 38.6707 15.4992 38.6707 12.4143 35.5857C9.32935 32.5008 9.32935 27.4991 12.4143 24.4142Z" fill="black"/>
<path d="M30.4142 20.4142C31.1953 19.6331 31.1953 18.3668 30.4142 17.5858C29.6332 16.8047 28.3668 16.8047 27.5858 17.5858L17.5858 27.5858C16.8047 28.3668 16.8047 29.6331 17.5858 30.4142C18.3668 31.1952 19.6332 31.1952 20.4142 30.4142L30.4142 20.4142Z" fill="black"/>
</svg>
