<svg width="48" height="48" viewBox="0 0 48 48" fill="none" xmlns="http://www.w3.org/2000/svg">
<path d="M41.38 14.0968C41.3594 14.0653 41.3395 14.033 41.3204 14C40.7681 13.0434 41.0959 11.8202 42.0525 11.2679C42.9779 10.7336 44.1528 11.0229 44.7284 11.9084L44.7341 11.9051C46.8102 15.4566 48 19.5893 48 24C48 28.4107 46.8102 32.5434 44.7341 36.0949L44.7284 36.0916C44.1528 36.977 42.9779 37.2663 42.0525 36.7321C41.096 36.1798 40.7682 34.9566 41.3205 34C41.3394 33.9672 41.3591 33.9352 41.3796 33.9039C43.0471 30.984 44 27.6033 44 24C44 20.397 43.0473 17.0166 41.38 14.0968Z" fill="black"/>
<path d="M5.94742 11.268C6.90401 11.8202 7.23176 13.0434 6.67947 14C6.66059 14.0327 6.64092 14.0647 6.62051 14.0959C4.95292 17.0159 4 20.3966 4 24C4 27.6037 4.9531 30.9848 6.62098 33.9049C6.6412 33.9359 6.66069 33.9676 6.67941 34C7.23169 34.9566 6.90394 36.1797 5.94736 36.732C5.02199 37.2663 3.84715 36.977 3.27149 36.0916L3.26594 36.0949C1.18979 32.5434 0 28.4107 0 24C0 19.5893 1.1898 15.4566 3.26594 11.9051L3.27154 11.9084C3.84719 11.023 5.02205 10.7337 5.94742 11.268Z" fill="black"/>
<path d="M34.4364 29.9272C34.4212 29.9511 34.4065 29.9753 34.3923 30C33.84 30.9566 34.1678 32.1798 35.1243 32.7321C36.0602 33.2724 37.2512 32.9704 37.8195 32.0614L37.8227 32.0632C39.2068 29.6956 40 26.9404 40 24C40 21.0595 39.2068 18.3044 37.8227 15.9367L37.8195 15.9386C37.2511 15.0296 36.0601 14.7276 35.1243 15.2679C34.1677 15.8202 33.8399 17.0434 34.3922 18C34.4067 18.025 34.4216 18.0496 34.437 18.0738C35.4318 19.8221 36 21.8447 36 24C36 26.1557 35.4315 28.1787 34.4364 29.9272Z" fill="black"/>
<path d="M12.8756 15.268C13.8322 15.8202 14.16 17.0434 13.6077 18C13.5935 18.0246 13.5788 18.0489 13.5637 18.0727C12.5685 19.8212 12 21.8442 12 24C12 26.1562 12.5687 28.1796 13.5642 29.9283C13.5791 29.9518 13.5936 29.9757 13.6076 30C14.1599 30.9566 13.8321 32.1797 12.8756 32.732C11.9398 33.2723 10.7488 32.9704 10.1804 32.0614L10.1773 32.0632C8.7932 29.6956 8 26.9404 8 24C8 21.0595 8.7932 18.3044 10.1773 15.9367L10.1805 15.9386C10.7488 15.0296 11.9398 14.7277 12.8756 15.268Z" fill="black"/>
<path d="M24.8099 14H23.1901C22.014 14 21.0918 15.0098 21.1983 16.1811L21.8189 23.0082C21.9215 24.1363 22.8673 25 24 25C25.1327 25 26.0785 24.1363 26.1811 23.0082L26.8017 16.1811C26.9082 15.0098 25.986 14 24.8099 14Z" fill="black"/>
<path d="M23.2929 28.2071L21.2071 30.2929C20.8166 30.6834 20.8166 31.3166 21.2071 31.7071L23.2929 33.7929C23.6834 34.1834 24.3166 34.1834 24.7071 33.7929L26.7929 31.7071C27.1834 31.3166 27.1834 30.6834 26.7929 30.2929L24.7071 28.2071C24.3166 27.8166 23.6834 27.8166 23.2929 28.2071Z" fill="black"/>
</svg>
