<svg width="48" height="48" viewBox="0 0 48 48" fill="none" xmlns="http://www.w3.org/2000/svg">
<path fill-rule="evenodd" clip-rule="evenodd" d="M14 20.0576V14C14 8.47715 18.4772 4 24 4C29.5228 4 34 8.47715 34 14V20.0576C35.1766 20.1294 36.0114 20.2909 36.7239 20.654C37.8529 21.2292 38.7708 22.1471 39.346 23.2761C40 24.5595 40 26.2397 40 29.6V34.4C40 37.7603 40 39.4405 39.346 40.7239C38.7708 41.8529 37.8529 42.7708 36.7239 43.346C35.4405 44 33.7603 44 30.4 44H17.6C14.2397 44 12.5595 44 11.2761 43.346C10.1471 42.7708 9.2292 41.8529 8.65396 40.7239C8 39.4405 8 37.7603 8 34.4V29.6C8 26.2397 8 24.5595 8.65396 23.2761C9.2292 22.1471 10.1471 21.2292 11.2761 20.654C11.9886 20.2909 12.8234 20.1294 14 20.0576ZM30 14V20H18V14C18 10.6863 20.6863 8 24 8C27.3137 8 30 10.6863 30 14ZM17.6 24C15.8538 24 14.7848 24.0031 13.9849 24.0685C13.6123 24.0989 13.3869 24.1371 13.25 24.1694C13.1849 24.1847 13.1448 24.1976 13.1232 24.2053C13.1024 24.2127 13.092 24.218 13.092 24.218C12.7157 24.4097 12.4097 24.7157 12.218 25.092C12.218 25.092 12.2127 25.1024 12.2053 25.1232C12.1976 25.1448 12.1847 25.1849 12.1694 25.25C12.1371 25.3869 12.0989 25.6123 12.0685 25.9849C12.0031 26.7848 12 27.8538 12 29.6V34.4C12 36.1462 12.0031 37.2152 12.0685 38.0151C12.0989 38.3877 12.1371 38.6131 12.1694 38.75C12.1847 38.8151 12.1976 38.8552 12.2053 38.8768C12.2127 38.8976 12.218 38.908 12.218 38.908C12.4097 39.2843 12.7157 39.5903 13.092 39.782C13.092 39.782 13.1024 39.7873 13.1232 39.7947C13.1448 39.8024 13.1849 39.8153 13.25 39.8306C13.3869 39.8629 13.6123 39.9011 13.9849 39.9315C14.7848 39.9969 15.8538 40 17.6 40H30.4C32.1462 40 33.2152 39.9969 34.0151 39.9315C34.3877 39.9011 34.6131 39.8629 34.75 39.8306C34.8151 39.8153 34.8552 39.8024 34.8768 39.7947C34.8976 39.7873 34.908 39.782 34.908 39.782C35.2843 39.5903 35.5903 39.2843 35.782 38.908C35.782 38.908 35.7873 38.8976 35.7947 38.8768C35.8024 38.8552 35.8153 38.8151 35.8306 38.75C35.8629 38.6131 35.9011 38.3877 35.9315 38.0151C35.9969 37.2152 36 36.1462 36 34.4V29.6C36 27.8538 35.9969 26.7848 35.9315 25.9849C35.9011 25.6123 35.8629 25.3869 35.8306 25.25C35.8153 25.1849 35.8024 25.1448 35.7947 25.1232C35.7873 25.1024 35.782 25.092 35.782 25.092C35.5903 24.7157 35.2843 24.4097 34.908 24.218C34.908 24.218 34.905 24.2165 34.9007 24.2146C34.8957 24.2124 34.888 24.2093 34.8768 24.2053C34.8552 24.1976 34.8151 24.1847 34.75 24.1694C34.6131 24.1371 34.3877 24.0989 34.0151 24.0685C33.2152 24.0031 32.1462 24 30.4 24H17.6Z" fill="black"/>
</svg>
