<svg width="48" height="48" viewBox="0 0 48 48" fill="none" xmlns="http://www.w3.org/2000/svg">
<path fill-rule="evenodd" clip-rule="evenodd" d="M14 20.0576V14C14 8.47715 18.4772 4 24 4C29.5228 4 34 8.47715 34 14V20.0576C35.1766 20.1294 36.0114 20.2909 36.7239 20.654C37.8529 21.2292 38.7708 22.1471 39.346 23.2761C40 24.5595 40 26.2397 40 29.6V34.4C40 37.7603 40 39.4405 39.346 40.7239C38.7708 41.8529 37.8529 42.7708 36.7239 43.346C35.4405 44 33.7603 44 30.4 44H17.6C14.2397 44 12.5595 44 11.2761 43.346C10.1471 42.7708 9.2292 41.8529 8.65396 40.7239C8 39.4405 8 37.7603 8 34.4V29.6C8 26.2397 8 24.5595 8.65396 23.2761C9.2292 22.1471 10.1471 21.2292 11.2761 20.654C11.9886 20.2909 12.8234 20.1294 14 20.0576ZM30 14V20H18V14C18 10.6863 20.6863 8 24 8C27.3137 8 30 10.6863 30 14Z" fill="black"/>
</svg>
