<svg width="1em" height="1em" viewBox="0 0 48 48" fill="currentColor" xmlns="http://www.w3.org/2000/svg">
<path fill-rule="evenodd" clip-rule="evenodd" d="M35.5076 32.9937C35.3389 32.9979 35.1696 33 35 33C23.9543 33 15 24.0457 15 13C15 12.8303 15.0021 12.6611 15.0063 12.4924C12.5215 15.0971 11 18.6224 11 22.5C11 30.5081 17.4919 37 25.5 37C29.3776 37 32.9029 35.4785 35.5076 32.9937ZM39.1714 28.4508C40.8901 27.9879 42.7418 29.4524 41.9198 31.0313C38.8357 36.9549 32.6403 41 25.5 41C15.2827 41 7 32.7173 7 22.5C7 15.3597 11.0451 9.16428 16.9687 6.08024C18.5476 5.25825 20.0121 7.10986 19.5492 8.82862C19.191 10.1585 19 11.5569 19 13C19 21.8365 26.1634 29 35 29C36.4431 29 37.8415 28.809 39.1714 28.4508Z" />
</svg>
