<svg width="48" height="48" viewBox="0 0 48 48" fill="none" xmlns="http://www.w3.org/2000/svg">
<path d="M26.4142 4.58579C25.6332 3.80474 24.3668 3.80474 23.5858 4.58579C22.8047 5.36684 22.8047 6.63317 23.5858 7.41421L26.1716 10H23C13.6112 10 6 17.6112 6 27C6 36.3888 13.6112 44 23 44C32.3888 44 40 36.3888 40 27C40 25.8954 39.1046 25 38 25C36.8954 25 36 25.8954 36 27C36 34.1797 30.1797 40 23 40C15.8203 40 10 34.1797 10 27C10 19.8203 15.8203 14 23 14H26.1716L23.5858 16.5858C22.8047 17.3668 22.8047 18.6332 23.5858 19.4142C24.3668 20.1953 25.6332 20.1953 26.4142 19.4142L32.4142 13.4142C33.1953 12.6332 33.1953 11.3668 32.4142 10.5858L26.4142 4.58579Z" fill="black"/>
</svg>
