<svg width="48" height="48" viewBox="0 0 48 48" fill="none" xmlns="http://www.w3.org/2000/svg">
<path fill-rule="evenodd" clip-rule="evenodd" d="M24.2642 6.24725C24.0889 6.2239 23.9113 6.2239 23.736 6.24725C23.584 6.26749 23.4154 6.31587 22.5697 6.60655L15.1295 9.16414C12.6383 10.0205 11.9187 10.3028 11.414 10.7305C10.907 11.1602 10.5151 11.7094 10.2736 12.3285C10.0332 12.9448 10.0001 13.7171 10.0001 16.3514V25.6C10.0001 28.0626 10.0182 28.9033 10.2308 29.6477C10.4351 30.3631 10.7706 31.0342 11.2204 31.6269C11.6883 32.2436 12.35 32.7625 14.3201 34.24L21.3601 39.52C22.8795 40.6596 23.2048 40.8588 23.4909 40.9341C23.8247 41.022 24.1755 41.022 24.5092 40.9341C24.7953 40.8588 25.1207 40.6596 26.6401 39.52L33.6801 34.24C35.6501 32.7625 36.3118 32.2436 36.7798 31.6269C37.2295 31.0342 37.5651 30.3631 37.7694 29.6477C37.982 28.9033 38.0001 28.0626 38.0001 25.6V16.3514C38.0001 13.7171 37.967 12.9448 37.7266 12.3285C37.4851 11.7094 37.0931 11.1602 36.5861 10.7305C36.0815 10.3028 35.3618 10.0205 32.8707 9.16414L25.4305 6.60656C24.5848 6.31587 24.4162 6.2675 24.2642 6.24725ZM23.2078 2.28228C23.7337 2.21222 24.2665 2.21222 24.7924 2.28228C25.3905 2.36196 25.9574 2.55733 26.6001 2.7788C26.6433 2.79369 26.6868 2.80871 26.7308 2.82381L34.171 5.38139C34.2837 5.42013 34.3948 5.45825 34.5045 5.49586C36.5089 6.18318 38.0177 6.70054 39.1722 7.67888C40.1862 8.53821 40.9701 9.63664 41.4532 10.8749C42.0031 12.2847 42.0019 13.8798 42.0002 15.9987C42.0002 16.1147 42.0001 16.2322 42.0001 16.3514V25.6C42.0001 25.6931 42.0001 25.785 42.0001 25.8756C42.0009 27.9563 42.0013 29.3955 41.6156 30.7462C41.2751 31.9384 40.7158 33.057 39.9663 34.0448C39.1173 35.1637 37.9655 36.0269 36.3006 37.2747C36.228 37.3291 36.1546 37.3841 36.0801 37.44L29.0401 42.72C28.9589 42.7809 28.8785 42.8414 28.7987 42.9014C27.6663 43.7534 26.6731 44.5008 25.5275 44.8023C24.5263 45.0659 23.4739 45.0659 22.4727 44.8023C21.3271 44.5008 20.3338 43.7534 19.2014 42.9014C19.1217 42.8414 19.0413 42.7809 18.9601 42.72L11.9201 37.44C11.8456 37.3841 11.7721 37.3291 11.6996 37.2747C10.0346 36.0269 8.88291 35.1637 8.03386 34.0448C7.28434 33.057 6.72506 31.9384 6.38456 30.7462C5.99883 29.3956 5.99933 27.9563 6.00004 25.8756C6.00007 25.785 6.0001 25.6931 6.0001 25.6V16.3514C6.0001 16.2322 6.00001 16.1147 5.99993 15.9987C5.99832 13.8798 5.99711 12.2847 6.54702 10.8749C7.03004 9.63664 7.81397 8.53821 8.82799 7.67888C9.98246 6.70054 11.4912 6.18318 13.4956 5.49586C13.6053 5.45825 13.7165 5.42013 13.8292 5.38139L21.2694 2.82381C21.3134 2.80871 21.3569 2.79369 21.4001 2.7788C22.0428 2.55733 22.6097 2.36196 23.2078 2.28228Z" fill="black"/>
</svg>
