<svg width="48" height="48" viewBox="0 0 48 48" fill="none" xmlns="http://www.w3.org/2000/svg">
<path fill-rule="evenodd" clip-rule="evenodd" d="M23.4585 2.0747C23.8126 1.9751 24.1874 1.9751 24.5415 2.0747L40.5415 6.5747C41.404 6.81729 42 7.60397 42 8.5V28C42 31.1476 40.518 34.1115 38 36L25.2 45.6C24.4889 46.1333 23.5111 46.1333 22.8 45.6L10.0268 36.0201C7.49038 34.1178 6.00896 31.1321 6.01489 27.9671C6.02206 24.148 6.01834 19.283 6.01283 15.3714C6.01007 13.4158 6.00686 11.6991 6.00435 10.4713L6.00001 8.50547C5.99779 7.60762 6.59418 6.81779 7.45851 6.5747L23.4585 2.0747ZM25.905 13H22.095C21.507 13 21.0459 13.5049 21.0991 14.0905L21.8189 22.0082C21.9215 23.1363 22.8673 24 24 24C25.1327 24 26.0785 23.1363 26.1811 22.0082L26.9009 14.0905C26.9541 13.5049 26.493 13 25.905 13ZM23.2929 27.2071L21.2071 29.2929C20.8166 29.6834 20.8166 30.3166 21.2071 30.7071L23.2929 32.7929C23.6834 33.1834 24.3166 33.1834 24.7071 32.7929L26.7929 30.7071C27.1834 30.3166 27.1834 29.6834 26.7929 29.2929L24.7071 27.2071C24.3166 26.8166 23.6834 26.8166 23.2929 27.2071Z" fill="black"/>
</svg>
