<svg width="48" height="48" viewBox="0 0 48 48" fill="none" xmlns="http://www.w3.org/2000/svg">
<circle cx="24" cy="24" r="24" fill="black"/>
<path fill-rule="evenodd" clip-rule="evenodd" d="M23.4719 9.52154C23.8224 9.47483 24.1777 9.47484 24.5283 9.52154C24.927 9.57466 25.3049 9.70491 25.7334 9.85255C25.7622 9.86248 25.7912 9.87249 25.8205 9.88256L30.7807 11.5876C30.8558 11.6134 30.9299 11.6389 31.003 11.6639C32.3393 12.1221 33.3451 12.467 34.1148 13.1193C34.7908 13.6922 35.3134 14.4244 35.6354 15.25C36.002 16.1898 36.0012 17.2532 36.0002 18.6658C36.0001 18.7431 36 18.8215 36 18.9009V25.0667C36 25.1288 36.0001 25.19 36.0001 25.2504C36.0006 26.6375 36.0009 27.5971 35.7437 28.4975C35.5167 29.2923 35.1439 30.038 34.6442 30.6965C34.0782 31.4425 33.3104 32.0179 32.2004 32.8498C32.152 32.8861 32.103 32.9228 32.0534 32.96L27.36 36.48C27.3059 36.5206 27.2523 36.561 27.1991 36.601C26.4442 37.169 25.782 37.6672 25.0183 37.8682C24.3508 38.044 23.6493 38.044 22.9818 37.8682C22.2181 37.6672 21.5559 37.169 20.8009 36.601C20.7478 36.561 20.6942 36.5206 20.64 36.48L15.9467 32.96C15.8971 32.9228 15.8481 32.8861 15.7997 32.8498C14.6897 32.0179 13.9219 31.4425 13.3559 30.6965C12.8562 30.038 12.4834 29.2923 12.2564 28.4975C11.9992 27.5971 11.9995 26.6375 12 25.2504C12 25.19 12.0001 25.1288 12.0001 25.0667V18.9009C12.0001 18.8215 12 18.7431 11.9999 18.6658C11.9989 17.2532 11.9981 16.1898 12.3647 15.25C12.6867 14.4244 13.2093 13.6922 13.8853 13.1193C14.655 12.467 15.6608 12.1221 16.9971 11.6639C17.0702 11.6389 17.1443 11.6134 17.2194 11.5876L22.1796 9.88256C22.2089 9.87249 22.2379 9.86248 22.2668 9.85255C22.6952 9.70491 23.0731 9.57466 23.4719 9.52154Z" fill="white"/>
</svg>
