<svg width="1em" height="1em" viewBox="0 0 48 48" fill="none" xmlns="http://www.w3.org/2000/svg">
<path d="M22 4C22 2.89543 22.8954 2 24 2C25.1046 2 26 2.89543 26 4V12C26 13.1046 25.1046 14 24 14C22.8954 14 22 13.1046 22 12V4Z" fill="currentColor"/>
<path d="M22 36C22 34.8954 22.8954 34 24 34C25.1046 34 26 34.8954 26 36V44C26 45.1046 25.1046 46 24 46C22.8954 46 22 45.1046 22 44V36Z" fill="currentColor"/>
<path d="M4 26C2.89543 26 2 25.1046 2 24C2 22.8954 2.89543 22 4 22H12C13.1046 22 14 22.8954 14 24C14 25.1046 13.1046 26 12 26H4Z" fill="currentColor"/>
<path d="M36 26C34.8954 26 34 25.1046 34 24C34 22.8954 34.8954 22 36 22H44C45.1046 22 46 22.8954 46 24C46 25.1046 45.1046 26 44 26H36Z" fill="currentColor"/>
<path d="M39.5563 8.44363C38.7753 7.66258 37.5089 7.66258 36.7279 8.44363L31.071 14.1005C30.29 14.8815 30.29 16.1479 31.071 16.9289C31.8521 17.71 33.1184 17.71 33.8994 16.9289L39.5563 11.2721C40.3374 10.491 40.3374 9.22468 39.5563 8.44363Z" fill="currentColor"/>
<path d="M16.9289 31.071C16.1478 30.29 14.8815 30.29 14.1005 31.071L8.44361 36.7279C7.66256 37.5089 7.66256 38.7753 8.44361 39.5563C9.22465 40.3374 10.491 40.3374 11.272 39.5563L16.9289 33.8995C17.7099 33.1184 17.7099 31.8521 16.9289 31.071Z" fill="currentColor"/>
<path d="M8.44376 11.2721C7.66271 10.4911 7.66271 9.22474 8.44375 8.4437C9.2248 7.66265 10.4911 7.66265 11.2722 8.4437L16.929 14.1006C17.7101 14.8816 17.7101 16.1479 16.929 16.929C16.148 17.71 14.8817 17.71 14.1006 16.929L8.44376 11.2721Z" fill="currentColor"/>
<path d="M31.0712 33.8995C30.2901 33.1185 30.2901 31.8522 31.0712 31.0711C31.8522 30.2901 33.1185 30.2901 33.8996 31.0711L39.5565 36.728C40.3375 37.509 40.3375 38.7753 39.5565 39.5564C38.7754 40.3374 37.5091 40.3374 36.728 39.5564L31.0712 33.8995Z" fill="currentColor"/>
</svg>
