<svg width="48" height="48" viewBox="0 0 48 48" fill="none" xmlns="http://www.w3.org/2000/svg">
<path d="M36 7C36 8.65685 34.6569 10 33 10V13.8027C33.8825 13.2922 34.9071 13 36 13C36.7013 13 37.3744 13.1203 38 13.3414V7C38 5.34315 39.3431 4 41 4C42.6569 4 44 5.34315 44 7C44 8.65685 42.6569 10 41 10V15.6822C41.6318 16.6325 42 17.7733 42 19V28C42 36.8366 34.8366 44 26 44H6C4.89543 44 4 43.1046 4 42V39.7041C4 37.7009 4.98542 35.9135 6.51238 34.8212C4.96554 33.3625 4 31.294 4 29V25C4 18.3726 9.37258 13 16 13C22.6274 13 28 18.3726 28 25V27.5C28 29.2891 27.5054 30.9627 26.6455 32.3916C28.5626 32.0799 30 30.4192 30 28.4438V7C30 5.34315 31.3431 4 33 4C34.6569 4 36 5.34315 36 7ZM34 19V28.4438C34 32.6241 30.7815 36.0996 26.6136 36.4202L9.84661 37.71C8.80461 37.7902 8 38.6591 8 39.7041V40H26C32.6274 40 38 34.6274 38 28V19C38 17.8954 37.1046 17 36 17C34.8954 17 34 17.8954 34 19ZM8 25V29C8 31.2091 9.79086 33 12 33H13C14.6569 33 16 31.6569 16 30C16 28.3431 14.6569 27 13 27H12C10.8954 27 10 26.1046 10 25C10 23.8954 10.8954 23 12 23H13C16.866 23 20 26.134 20 30C20 31.0475 19.7699 32.0413 19.3575 32.9335C21.9878 32.5218 24 30.2459 24 27.5V25C24 20.5817 20.4183 17 16 17C11.5817 17 8 20.5817 8 25Z" fill="black"/>
</svg>
