<svg width="48" height="48" viewBox="0 0 48 48" fill="none" xmlns="http://www.w3.org/2000/svg">
<path fill-rule="evenodd" clip-rule="evenodd" d="M30.0284 20.2499C28.5332 20.13 27.2308 19.1837 26.6548 17.7988L24 11.4159L21.3452 17.7988C20.7692 19.1837 19.4667 20.13 17.9716 20.2499L11.0807 20.8023L16.3308 25.2996C17.47 26.2754 17.9674 27.8065 17.6194 29.2655L16.0154 35.9898L21.915 32.3864C23.195 31.6046 24.8049 31.6046 26.085 32.3864L31.9846 35.9898L30.3806 29.2655C30.0325 27.8065 30.53 26.2754 31.6692 25.2996L36.9193 20.8023L30.0284 20.2499ZM25.8466 5.43989C25.1634 3.7973 22.8365 3.7973 22.1533 5.43988L17.6519 16.2626L5.96782 17.1994C4.19451 17.3415 3.47546 19.5545 4.82653 20.7119L13.7286 28.3374L11.0089 39.7391C10.5961 41.4695 12.4786 42.8373 13.9968 41.91L24 35.8L34.0032 41.9099C35.5214 42.8373 37.4039 41.4695 36.9911 39.7391L34.2714 28.3374L43.1734 20.7119C44.5245 19.5545 43.8055 17.3415 42.0321 17.1994L30.3481 16.2626L25.8466 5.43989Z" fill="black"/>
</svg>
