<svg width="1em" height="1em" viewBox="0 0 48 48" fill="currentColor" xmlns="http://www.w3.org/2000/svg">
<path d="M24 3C22.8954 3 22 3.89543 22 5V7C22 8.10457 22.8954 9 24 9C25.1046 9 26 8.10457 26 7V5C26 3.89543 25.1046 3 24 3Z" />
<path d="M24 39C22.8954 39 22 39.8954 22 41V43C22 44.1046 22.8954 45 24 45C25.1046 45 26 44.1046 26 43V41C26 39.8954 25.1046 39 24 39Z" />
<path d="M3 24C3 25.1046 3.89543 26 5 26H7C8.10457 26 9 25.1046 9 24C9 22.8954 8.10457 22 7 22H5C3.89543 22 3 22.8954 3 24Z" />
<path d="M39 24C39 25.1046 39.8954 26 41 26H43C44.1046 26 45 25.1046 45 24C45 22.8954 44.1046 22 43 22H41C39.8954 22 39 22.8954 39 24Z" />
<path d="M36.0208 9.15079C36.8019 8.36974 38.0682 8.36974 38.8493 9.15079C39.6303 9.93183 39.6303 11.1982 38.8493 11.9792L37.4351 13.3934C36.654 14.1745 35.3877 14.1745 34.6066 13.3934C33.8256 12.6124 33.8256 11.346 34.6066 10.565L36.0208 9.15079Z" />
<path d="M10.565 34.6066C11.346 33.8256 12.6124 33.8256 13.3934 34.6066C14.1745 35.3877 14.1745 36.654 13.3934 37.4351L11.9792 38.8493C11.1982 39.6303 9.93184 39.6303 9.15079 38.8493C8.36974 38.0682 8.36974 36.8019 9.15079 36.0208L10.565 34.6066Z" />
<path d="M9.15079 9.15073C8.36974 9.93178 8.36974 11.1981 9.15079 11.9792L10.565 13.3934C11.346 14.1744 12.6124 14.1744 13.3934 13.3934C14.1745 12.6123 14.1745 11.346 13.3934 10.5649L11.9792 9.15073C11.1982 8.36968 9.93183 8.36968 9.15079 9.15073Z" />
<path d="M34.6066 34.6066C33.8256 35.3876 33.8256 36.6539 34.6066 37.435L36.0208 38.8492C36.8019 39.6303 38.0682 39.6303 38.8493 38.8492C39.6303 38.0682 39.6303 36.8018 38.8493 36.0208L37.4351 34.6066C36.654 33.8255 35.3877 33.8255 34.6066 34.6066Z" />
<path fill-rule="evenodd" clip-rule="evenodd" d="M35 24C35 30.0751 30.0751 35 24 35C17.9249 35 13 30.0751 13 24C13 17.9249 17.9249 13 24 13C30.0751 13 35 17.9249 35 24ZM31 24C31 27.866 27.866 31 24 31C20.134 31 17 27.866 17 24C17 20.134 20.134 17 24 17C27.866 17 31 20.134 31 24Z" />
</svg>
