<svg width="1em" height="1em" viewBox="0 0 48 48" fill="none" xmlns="http://www.w3.org/2000/svg">
<path d="M22 17V23C22 24.1045 22.8954 25 24 25C25.1046 25 26 24.1045 26 23L26 17C26 15.8954 25.1046 15 24 15C22.8954 15 22 15.8954 22 17Z" fill="currentColor"/>
<path d="M20.9276 30.809C21.0018 31.0373 21.1998 31.2353 21.5958 31.6313L22.8686 32.9041C23.2647 33.3001 23.4627 33.4982 23.691 33.5723C23.8918 33.6376 24.1082 33.6376 24.309 33.5723C24.5374 33.4982 24.7354 33.3001 25.1314 32.9041L26.4042 31.6313C26.8002 31.2353 26.9982 31.0373 27.0724 30.809C27.1376 30.6081 27.1376 30.3918 27.0724 30.191C26.9982 29.9626 26.8002 29.7646 26.4042 29.3686L25.1314 28.0958C24.7354 27.6998 24.5374 27.5018 24.309 27.4276C24.1082 27.3623 23.8918 27.3623 23.691 27.4276C23.4627 27.5018 23.2647 27.6998 22.8686 28.0958L21.5958 29.3686C21.1998 29.7646 21.0018 29.9626 20.9276 30.191C20.8624 30.3918 20.8624 30.6081 20.9276 30.809Z" fill="currentColor"/>
<path fill-rule="evenodd" clip-rule="evenodd" d="M16.971 8.93332L5.42391 30.1799C2.5268 35.5106 6.38583 42 12.4529 42H35.547C41.6141 42 45.4731 35.5106 42.576 30.1799L31.0289 8.9333C28 3.36011 19.9999 3.36013 16.971 8.93332ZM20.4855 10.8434L8.93841 32.0899C7.48986 34.7553 9.41936 38 12.4529 38H35.547C38.5805 38 40.51 34.7553 39.0615 32.0899L27.5144 10.8434C26 8.05677 21.9999 8.05676 20.4855 10.8434Z" fill="currentColor"/>
</svg>
