<svg width="1em" height="1em" viewBox="0 0 48 48" fill="none" xmlns="http://www.w3.org/2000/svg">
<path fill-rule="evenodd" clip-rule="evenodd" d="M44 24C44 35.0457 35.0457 44 24 44C12.9543 44 4 35.0457 4 24C4 12.9543 12.9543 4 24 4C35.0457 4 44 12.9543 44 24ZM21.2301 15.9912L21.8466 24.0059C21.9332 25.1311 22.8715 26 24 26C25.1286 26 26.0668 25.1311 26.1534 24.0059L26.7699 15.9912C26.894 14.3777 25.6183 13 24 13C22.3817 13 21.106 14.3777 21.2301 15.9912ZM24 35C25.6569 35 27 33.6569 27 32C27 30.3431 25.6569 29 24 29C22.3431 29 21 30.3431 21 32C21 33.6569 22.3431 35 24 35Z" fill="currentColor"/>
</svg>
