<svg width="48" height="48" viewBox="0 0 48 48" fill="none" xmlns="http://www.w3.org/2000/svg">
<path d="M7.63726 14.8507L24 36.6703L31.5287 26.6308L31.8144 32.9169L25.6 41.2038C25.2223 41.7075 24.6295 42.0039 24 42.0039C23.3704 42.0039 22.7776 41.7075 22.3999 41.2038L3.19839 15.5987C2.53609 14.7155 2.71459 13.4628 3.59721 12.7997C9.28016 8.53057 16.3474 6 24 6C31.6525 6 38.7198 8.53057 44.4027 12.7997C45.2853 13.4628 45.4638 14.7155 44.8015 15.5987L43.5607 17.2534C42.5509 16.3842 41.4826 15.5812 40.3625 14.8509C35.6571 11.7827 30.0391 10 24 10C17.9608 10 12.3427 11.7825 7.63726 14.8507Z" fill="black"/>
<path d="M39.926 19H36.074C35.4936 19 35.0352 19.4924 35.0765 20.0712L35.8575 31.0051C35.9378 32.1291 36.8731 33 38 33C39.1269 33 40.0622 32.1291 40.1425 31.0051L40.9235 20.0712C40.9648 19.4924 40.5064 19 39.926 19Z" fill="black"/>
<path d="M37.2929 36.2071L35.2071 38.2929C34.8166 38.6834 34.8166 39.3166 35.2071 39.7071L37.2929 41.7929C37.6834 42.1834 38.3166 42.1834 38.7071 41.7929L40.7929 39.7071C41.1834 39.3166 41.1834 38.6834 40.7929 38.2929L38.7071 36.2071C38.3166 35.8166 37.6834 35.8166 37.2929 36.2071Z" fill="black"/>
</svg>
