<svg width="48" height="48" viewBox="0 0 48 48" fill="none" xmlns="http://www.w3.org/2000/svg">
<path fill-rule="evenodd" clip-rule="evenodd" d="M16.3209 8.0591C17.1276 5.6979 19.3655 4 22 4H26C28.6345 4 30.8724 5.6979 31.6791 8.0591C33.4193 8.14495 34.6184 8.35551 35.6319 8.87194C37.1372 9.63893 38.3611 10.8628 39.1281 12.3681C40 14.0794 40 16.3196 40 20.8V31.2C40 35.6804 40 37.9206 39.1281 39.6319C38.3611 41.1372 37.1372 42.3611 35.6319 43.128C33.9206 44 31.6804 44 27.2 44H20.8C16.3196 44 14.0794 44 12.3681 43.128C10.8628 42.3611 9.63893 41.1372 8.87195 39.6319C8 37.9206 8 35.6804 8 31.2V20.8C8 16.3196 8 14.0794 8.87195 12.3681C9.63893 10.8628 10.8628 9.63893 12.3681 8.87194C13.3816 8.35551 14.5807 8.14495 16.3209 8.0591ZM22 8H26C27.1046 8 28 8.89543 28 10C28 11.1046 27.1046 12 26 12H22C20.8954 12 20 11.1046 20 10C20 8.89543 20.8954 8 22 8ZM16.3638 12.0622C16.192 12.0718 16.0283 12.0829 15.8713 12.0957C14.7847 12.1845 14.3818 12.3352 14.184 12.436C13.4314 12.8195 12.8195 13.4314 12.436 14.184C12.3352 14.3818 12.1845 14.7847 12.0957 15.8713C12.0031 17.0047 12 18.4938 12 20.8V31.2C12 33.5062 12.0031 34.9953 12.0957 36.1287C12.1845 37.2153 12.3352 37.6182 12.436 37.816C12.8195 38.5686 13.4314 39.1805 14.184 39.564C14.3818 39.6648 14.7847 39.8155 15.8713 39.9043C17.0047 39.9969 18.4938 40 20.8 40H27.2C29.5062 40 30.9953 39.9969 32.1287 39.9043C33.2153 39.8155 33.6182 39.6648 33.816 39.564C34.5686 39.1805 35.1805 38.5686 35.564 37.816C35.6648 37.6182 35.8155 37.2153 35.9043 36.1287C35.9969 34.9953 36 33.5062 36 31.2V20.8C36 18.4938 35.9969 17.0047 35.9043 15.8713C35.8155 14.7847 35.6648 14.3818 35.564 14.184C35.1805 13.4314 34.5686 12.8195 33.816 12.436C33.6182 12.3352 33.2153 12.1845 32.1287 12.0957C31.9717 12.0829 31.808 12.0718 31.6362 12.0622C30.7953 14.36 28.5891 16 26 16H22C19.4109 16 17.2047 14.36 16.3638 12.0622Z" fill="black"/>
</svg>
