<svg width="48" height="48" viewBox="0 0 48 48" fill="none" xmlns="http://www.w3.org/2000/svg">
<path fill-rule="evenodd" clip-rule="evenodd" d="M28 38C36.8366 38 44 30.8366 44 22C44 13.1634 36.8366 6 28 6H20C11.1634 6 4 13.1634 4 22C4 31.1054 12.3821 39.1957 25.3635 44.3094C26.6433 44.8136 28 43.8492 28 42.4737V38ZM24 39.3875C23.1942 39.0198 22.4129 38.6397 21.6575 38.248C12.3626 33.4284 8 27.4769 8 22C8 15.3726 13.3726 10 20 10H28C34.6274 10 40 15.3726 40 22C40 28.6274 34.6274 34 28 34H24V39.3875Z" fill="black"/>
</svg>
