<svg width="1em" height="1em" viewBox="0 0 48 48" fill="none" xmlns="http://www.w3.org/2000/svg">
<path d="M30.4 8C32.1132 8 33.2777 8.00156 34.1779 8.07511C35.0548 8.14675 35.5032 8.2766 35.816 8.43598C36.5686 8.81947 37.1805 9.43139 37.564 10.184C37.7234 10.4968 37.8533 10.9452 37.9249 11.8221C37.9984 12.7223 38 13.8868 38 15.6V28C38 29.1046 38.8954 30 40 30C41.1046 30 42 29.1046 42 28V15.5175C42 13.9075 42 12.5788 41.9116 11.4964C41.8198 10.3722 41.6226 9.33875 41.1281 8.36808C40.3611 6.86278 39.1372 5.63894 37.6319 4.87195C36.6613 4.37737 35.6278 4.18024 34.5037 4.08839C33.4213 3.99996 32.0926 3.99998 30.4826 4H22C20.8954 4 20 4.89543 20 6C20 7.10457 20.8954 8 22 8H30.4Z" fill="currentColor"/>
<path fill-rule="evenodd" clip-rule="evenodd" d="M6 24.8C6 20.3196 6 18.0794 6.87195 16.3681C7.63893 14.8628 8.86278 13.6389 10.3681 12.8719C12.0794 12 14.3196 12 18.8 12H21.2C25.6804 12 27.9206 12 29.6319 12.8719C31.1372 13.6389 32.3611 14.8628 33.1281 16.3681C34 18.0794 34 20.3196 34 24.8V31.2C34 35.6804 34 37.9206 33.1281 39.6319C32.3611 41.1372 31.1372 42.3611 29.6319 43.1281C27.9206 44 25.6804 44 21.2 44H18.8C14.3196 44 12.0794 44 10.3681 43.1281C8.86278 42.3611 7.63893 41.1372 6.87195 39.6319C6 37.9206 6 35.6804 6 31.2V24.8ZM13.8713 16.0957C15.0047 16.0031 16.4938 16 18.8 16H21.2C23.5062 16 24.9953 16.0031 26.1287 16.0957C27.2153 16.1845 27.6182 16.3352 27.816 16.436C28.5686 16.8195 29.1805 17.4314 29.564 18.184C29.6648 18.3818 29.8155 18.7847 29.9043 19.8713C29.9969 21.0047 30 22.4938 30 24.8V31.2C30 33.5062 29.9969 34.9953 29.9043 36.1287C29.8155 37.2153 29.6648 37.6182 29.564 37.816C29.1805 38.5686 28.5686 39.1805 27.816 39.564C27.6182 39.6648 27.2153 39.8155 26.1287 39.9043C24.9953 39.9969 23.5062 40 21.2 40H18.8C16.4938 40 15.0047 39.9969 13.8713 39.9043C12.7847 39.8155 12.3818 39.6648 12.184 39.564C11.4314 39.1805 10.8195 38.5686 10.436 37.816C10.3352 37.6182 10.1845 37.2153 10.0957 36.1287C10.0031 34.9953 10 33.5062 10 31.2V24.8C10 22.4938 10.0031 21.0047 10.0957 19.8713C10.1845 18.7847 10.3352 18.3818 10.436 18.184C10.8195 17.4314 11.4314 16.8195 12.184 16.436C12.3818 16.3352 12.7847 16.1845 13.8713 16.0957Z" fill="currentColor"/>
</svg>
