<svg width="1em" height="1em" viewBox="0 0 48 48" fill="none" xmlns="http://www.w3.org/2000/svg">
<path fill-rule="evenodd" clip-rule="evenodd" d="M29.5858 5.58578C32.0237 3.14788 35.9763 3.14788 38.4142 5.58578C40.8521 8.02368 40.8521 11.9763 38.4142 14.4142L20.9289 31.8995C18.3034 34.525 14.7425 36 11.0294 36H10C8.89543 36 8 35.1046 8 34V32.9706C8 29.2575 9.475 25.6966 12.1005 23.0711L29.5858 5.58578ZM35.5858 8.41421C34.71 7.5384 33.29 7.5384 32.4142 8.41421L30.8284 9.99998L34 13.1716L35.5858 11.5858C36.4616 10.71 36.4616 9.29001 35.5858 8.41421ZM31.1716 16L28 12.8284L14.9289 25.8995C13.2963 27.5322 12.2865 29.6713 12.0524 31.9476C14.3287 31.7135 16.4678 30.7037 18.1005 29.0711L31.1716 16Z" fill="currentColor"/>
<path d="M6 42C6 40.8954 6.89543 40 8 40H40C41.1046 40 42 40.8954 42 42C42 43.1046 41.1046 44 40 44H8C6.89543 44 6 43.1046 6 42Z" fill="currentColor"/>
</svg>
