<svg width="1em" height="1em" viewBox="0 0 48 48" fill="none" xmlns="http://www.w3.org/2000/svg">
<path fill-rule="evenodd" clip-rule="evenodd" d="M25.748 12H42C43.1046 12 44 12.8954 44 14C44 15.1046 43.1046 16 42 16H25.748C24.8599 19.4505 21.7277 22 18 22C14.2723 22 11.1401 19.4505 10.252 16H6C4.89543 16 4 15.1046 4 14C4 12.8954 4.89543 12 6 12H10.252C11.1401 8.54955 14.2723 6 18 6C21.7277 6 24.8599 8.54955 25.748 12ZM14.5351 16C14.5173 15.9691 14.4998 15.938 14.4828 15.9066C14.1749 15.3399 14 14.6904 14 14C14 13.2714 14.1948 12.5883 14.5351 12C15.2267 10.8044 16.5194 10 18 10C19.4806 10 20.7733 10.8044 21.4649 12C21.4827 12.0309 21.5002 12.062 21.5172 12.0934C21.8251 12.6601 22 13.3096 22 14C22 14.7286 21.8052 15.4117 21.4649 16C20.7733 17.1956 19.4806 18 18 18C16.5194 18 15.2267 17.1956 14.5351 16Z" fill="currentColor"/>
<path fill-rule="evenodd" clip-rule="evenodd" d="M37.748 36C36.8599 39.4505 33.7277 42 30 42C26.2723 42 23.1401 39.4505 22.252 36H6C4.89543 36 4 35.1046 4 34C4 32.8954 4.89543 32 6 32H22.252C23.1401 28.5495 26.2723 26 30 26C33.7277 26 36.8599 28.5495 37.748 32H42C43.1046 32 44 32.8954 44 34C44 35.1046 43.1046 36 42 36H37.748ZM33.4649 36C33.8052 35.4117 34 34.7286 34 34C34 33.2714 33.8052 32.5883 33.4649 32C32.7733 30.8044 31.4806 30 30 30C28.5194 30 27.2267 30.8044 26.5351 32C26.1948 32.5883 26 33.2714 26 34C26 34.7286 26.1948 35.4117 26.5351 36C27.2267 37.1956 28.5194 38 30 38C31.4806 38 32.7733 37.1956 33.4649 36Z" fill="currentColor"/>
</svg>
