<svg width="48" height="48" viewBox="0 0 48 48" fill="none" xmlns="http://www.w3.org/2000/svg">
<path d="M32 22C33.1046 22 34 22.8954 34 24C34 25.1046 33.1046 26 32 26C20.4584 26 27.5416 26 16 26C14.8954 26 14 25.1046 14 24C14 22.8954 14.8954 22 16 22C27.5416 22 20.4584 22 32 22Z" fill="black"/>
<path d="M44 24C44 35.0457 35.0457 44 24 44C12.9543 44 4 35.0457 4 24C4 12.9543 12.9543 4 24 4C35.0457 4 44 12.9543 44 24ZM40 24C40 15.1634 32.8366 8 24 8C15.1634 8 8 15.1634 8 24C8 32.8366 15.1634 40 24 40C32.8366 40 40 32.8366 40 24Z" fill="black"/>
</svg>
