<svg width="48" height="48" viewBox="0 0 48 48" fill="none" xmlns="http://www.w3.org/2000/svg">
<path fill-rule="evenodd" clip-rule="evenodd" d="M24 20C28.4183 20 32 16.4183 32 12C32 7.58172 28.4183 4 24 4C19.5817 4 16 7.58172 16 12C16 16.4183 19.5817 20 24 20ZM24 16C26.2091 16 28 14.2091 28 12C28 9.79086 26.2091 8 24 8C21.7909 8 20 9.79086 20 12C20 14.2091 21.7909 16 24 16Z" fill="black"/>
<path fill-rule="evenodd" clip-rule="evenodd" d="M34 42H14C10.6863 42 8 39.3137 8 36C8 29.3726 13.3726 24 20 24H28C34.6274 24 40 29.3726 40 36C40 39.3137 37.3137 42 34 42ZM34 38C35.1046 38 36 37.1046 36 36C36 31.5817 32.4183 28 28 28H20C15.5817 28 12 31.5817 12 36C12 37.1046 12.8954 38 14 38H34Z" fill="black"/>
</svg>
