<svg width="48" height="48" viewBox="0 0 48 48" fill="none" xmlns="http://www.w3.org/2000/svg">
<path d="M35.1401 28.116L19.2696 37.6382C16.8902 39.0659 15.7005 39.7797 14.7216 39.6885C13.868 39.6089 13.0893 39.168 12.5819 38.477C12 37.6846 12 36.2971 12 33.5223V14.4777C12 11.7029 12 10.3154 12.5819 9.52298C13.0893 8.832 13.868 8.39108 14.7216 8.31151C15.7005 8.22027 16.8902 8.93409 19.2696 10.3617L35.1401 19.884C37.4027 21.2416 38.5341 21.9204 38.9178 22.7983C39.2528 23.5644 39.2528 24.4356 38.9178 25.2017C38.5341 26.0796 37.4027 26.7584 35.1401 28.116Z" fill="black"/>
</svg>
