<svg width="48" height="48" viewBox="0 0 48 48" fill="none" xmlns="http://www.w3.org/2000/svg">
<path d="M16 14C14.8954 14 14 14.8954 14 16C14 17.1046 14.8954 18 16 18C17.1046 18 18 17.1046 18 16C18 14.8954 17.1046 14 16 14Z" fill="black"/>
<path fill-rule="evenodd" clip-rule="evenodd" d="M6 15.6C6 12.2397 6 10.5595 6.65396 9.27606C7.2292 8.14708 8.14708 7.2292 9.27606 6.65396C10.5595 6 12.2397 6 15.6 6H16.4C19.7603 6 21.4405 6 22.7239 6.65396C23.8529 7.2292 24.7708 8.14708 25.346 9.27606C26 10.5595 26 12.2397 26 15.6V16.4C26 19.7603 26 21.4405 25.346 22.7239C24.7708 23.8529 23.8529 24.7708 22.7239 25.346C21.4405 26 19.7603 26 16.4 26H15.6C12.2397 26 10.5595 26 9.27606 25.346C8.14708 24.7708 7.2292 23.8529 6.65396 22.7239C6 21.4405 6 19.7603 6 16.4V15.6ZM10 13.2C10 12.0799 10 11.5198 10.218 11.092C10.4097 10.7157 10.7157 10.4097 11.092 10.218C11.5198 10 12.0799 10 13.2 10H18.8C19.9201 10 20.4802 10 20.908 10.218C21.2843 10.4097 21.5903 10.7157 21.782 11.092C22 11.5198 22 12.0799 22 13.2V18.8C22 19.9201 22 20.4802 21.782 20.908C21.5903 21.2843 21.2843 21.5903 20.908 21.782C20.4802 22 19.9201 22 18.8 22H13.2C12.0799 22 11.5198 22 11.092 21.782C10.7157 21.5903 10.4097 21.2843 10.218 20.908C10 20.4802 10 19.9201 10 18.8V13.2Z" fill="black"/>
<path fill-rule="evenodd" clip-rule="evenodd" d="M6.05133 33.2168C6 33.6067 6 34.0712 6 35C6 35.9288 6 36.3933 6.05133 36.7832C6.40579 39.4756 8.52444 41.5942 11.2168 41.9487C11.6067 42 12.0712 42 13 42C13.9288 42 14.3933 42 14.7832 41.9487C17.4756 41.5942 19.5942 39.4756 19.9487 36.7832C20 36.3933 20 35.9288 20 35C20 34.0712 20 33.6067 19.9487 33.2168C19.5942 30.5244 17.4756 28.4058 14.7832 28.0513C14.3933 28 13.9288 28 13 28C12.0712 28 11.6067 28 11.2168 28.0513C8.52444 28.4058 6.40579 30.5244 6.05133 33.2168ZM10.1522 33.2346C10 33.6022 10 34.0681 10 35C10 35.9319 10 36.3978 10.1522 36.7654C10.3552 37.2554 10.7446 37.6448 11.2346 37.8478C11.6022 38 12.0681 38 13 38C13.9319 38 14.3978 38 14.7654 37.8478C15.2554 37.6448 15.6448 37.2554 15.8478 36.7654C16 36.3978 16 35.9319 16 35C16 34.0681 16 33.6022 15.8478 33.2346C15.6448 32.7446 15.2554 32.3552 14.7654 32.1522C14.3978 32 13.9319 32 13 32C12.0681 32 11.6022 32 11.2346 32.1522C10.7446 32.3552 10.3552 32.7446 10.1522 33.2346Z" fill="black"/>
<path fill-rule="evenodd" clip-rule="evenodd" d="M28.0513 11.2168C28 11.6067 28 12.0712 28 13C28 13.9288 28 14.3933 28.0513 14.7832C28.4058 17.4756 30.5244 19.5942 33.2168 19.9487C33.6067 20 34.0712 20 35 20C35.9288 20 36.3933 20 36.7832 19.9487C39.4756 19.5942 41.5942 17.4756 41.9487 14.7832C42 14.3933 42 13.9288 42 13C42 12.0712 42 11.6067 41.9487 11.2168C41.5942 8.52444 39.4756 6.40579 36.7832 6.05133C36.3933 6 35.9288 6 35 6C34.0712 6 33.6067 6 33.2168 6.05133C30.5244 6.40579 28.4058 8.52444 28.0513 11.2168ZM32.1522 11.2346C32 11.6022 32 12.0681 32 13C32 13.9319 32 14.3978 32.1522 14.7654C32.3552 15.2554 32.7446 15.6448 33.2346 15.8478C33.6022 16 34.0681 16 35 16C35.9319 16 36.3978 16 36.7654 15.8478C37.2554 15.6448 37.6448 15.2554 37.8478 14.7654C38 14.3978 38 13.9319 38 13C38 12.0681 38 11.6022 37.8478 11.2346C37.6448 10.7446 37.2554 10.3552 36.7654 10.1522C36.3978 10 35.9319 10 35 10C34.0681 10 33.6022 10 33.2346 10.1522C32.7446 10.3552 32.3552 10.7446 32.1522 11.2346Z" fill="black"/>
<path d="M38 32H40C41.1046 32 42 32.8954 42 34C42 35.1046 41.1046 36 40 36H36C34.8954 36 34 35.1046 34 34V30C34 28.8954 34.8954 28 36 28H38V32Z" fill="black"/>
<path d="M40 28H38V26C38 24.8954 38.8954 24 40 24C41.1046 24 42 24.8954 42 26C42 27.1046 41.1046 28 40 28Z" fill="black"/>
<path d="M28 40V34H30C31.1046 34 32 33.1046 32 32C32 30.8954 31.1046 30 30 30H26C24.8954 30 24 30.8954 24 32V40C24 41.1046 24.8954 42 26 42C27.1046 42 28 41.1046 28 40Z" fill="black"/>
<path d="M40 38C38.8954 38 38 38.8954 38 40C38 41.1046 38.8954 42 40 42C41.1046 42 42 41.1046 42 40C42 38.8954 41.1046 38 40 38Z" fill="black"/>
<path d="M32 38C30.8954 38 30 38.8954 30 40C30 41.1046 30.8954 42 32 42C33.1046 42 34 41.1046 34 40C34 38.8954 33.1046 38 32 38Z" fill="black"/>
<path d="M30 26C30 24.8954 30.8954 24 32 24C33.1046 24 34 24.8954 34 26C34 27.1046 33.1046 28 32 28C30.8954 28 30 27.1046 30 26Z" fill="black"/>
</svg>
