<svg width="48" height="48" viewBox="0 0 48 48" fill="none" xmlns="http://www.w3.org/2000/svg">
<path d="M13.8783 28.0654C13.4144 29.3124 13.0207 30.466 12.6684 31.6308C14.5869 30.2376 16.8709 29.3532 19.5039 29.024C24.5304 28.3958 28.9952 25.0768 31.2558 20.907L29.7585 19.4108C28.9773 18.6302 28.9767 17.3643 29.757 16.5828L31.1696 15.1682C31.837 14.4999 32.5042 13.8321 33.1716 13.1648C34.0302 12.306 35 10.7168 36.0258 8.42959C24.8394 10.1635 17.9897 17.0127 13.8783 28.0654ZM34 17.9946L35.1254 19.1191C35.6614 19.6548 35.8577 20.4513 35.5648 21.1501C33.2196 26.7447 27.4852 32.0576 20 32.9932C15.1055 33.6049 11.8953 36.7395 10.3692 42.3967C10.1211 43.3163 9.31084 43.9932 8.35838 43.9932C7.12384 43.9932 6.18104 42.8871 6.38682 41.6699C8.49992 29.1701 13.4511 5.64791 39.2255 4.07613C40.5881 3.99304 41.5554 5.33173 41.0803 6.61149C39.3887 11.1678 37.697 14.2932 36.0054 15.9878C35.3324 16.6608 34.6662 17.3275 34 17.9946Z" fill="black"/>
</svg>
