<svg width="48" height="48" viewBox="0 0 48 48" fill="none" xmlns="http://www.w3.org/2000/svg">
<path d="M2 13.9998C2.00308 10.0464 2.05331 7.97414 2.87175 6.36787C3.63873 4.86258 4.86258 3.63873 6.36787 2.87175C7.97377 2.0535 10.0454 2.00311 13.997 2C13.9979 2 13.9989 2 13.9998 2C13.9997 2 13.9999 2 13.9998 2C15.1044 2 16 2.89543 16 4C16 5.10457 15.1046 6 14 6C13.9904 6 13.9809 5.99993 13.9713 5.9998H12.4398C10.1618 5.9998 9.02285 5.9998 8.1559 6.45014C7.42533 6.82965 6.82965 7.42533 6.45014 8.1559C5.9998 9.02285 5.9998 10.1618 5.9998 12.4398V13.9713C5.99993 13.9809 6 13.9904 6 14C6 15.1046 5.10457 16 4 16C2.89543 16 2 15.1044 2 13.9998C2 13.9999 2 13.9997 2 13.9998Z" fill="black"/>
<path d="M2 34.0034C2.00311 37.9545 2.05356 40.0259 2.87175 41.6317C3.63873 43.137 4.86258 44.3609 6.36787 45.1278C7.96843 45.9434 10.0317 45.9961 13.9577 45.9996C13.9717 45.9999 13.9859 46 14 46C15.1046 46 16 45.1046 16 44C16 42.8954 15.1046 42 14 42C13.9999 42 14.0001 42 14 42L12.4398 41.9998C10.1618 41.9998 9.02285 41.9998 8.1559 41.5494C7.42533 41.1699 6.82965 40.5743 6.45014 39.8437C5.9998 38.9767 5.9998 37.8378 5.9998 35.5598V34.0287C5.99993 34.0191 6 34.0096 6 34C6 32.8954 5.10457 32 4 32C2.89549 32 2.0001 32.8953 2 33.9998C2 33.9997 2 33.9999 2 33.9998C2 34.0009 2 34.0023 2 34.0034Z" fill="black"/>
<path d="M34.9998 41.9998H35.5598C37.8378 41.9998 38.9767 41.9998 39.8437 41.5494C40.5743 41.1699 41.1699 40.5743 41.5494 39.8437C41.9998 38.9767 41.9998 37.8378 41.9998 35.5598V33.9998C41.9999 32.8953 42.8955 32 44 32C45.1046 32 46 32.8954 46 34C46 34.0142 45.9999 34.0283 45.9996 34.0423C45.9961 37.9681 45.9433 40.0312 45.1278 41.6317C44.3609 43.137 43.137 44.3609 41.6317 45.1278C40.1841 45.8655 38.358 45.9791 35.1175 45.9966C35.0786 45.9989 35.0394 46 35 46C33.8954 46 33 45.1046 33 44C33 42.8955 33.8953 41.9999 34.9998 41.9998Z" fill="black"/>
<path d="M42 13.9998L41.9998 12.4398C41.9998 10.1618 41.9998 9.02285 41.5494 8.1559C41.1699 7.42533 40.5743 6.82965 39.8437 6.45014C38.9767 5.9998 37.8378 5.9998 35.5598 5.9998H35.0287C35.0191 5.99993 35.0096 6 35 6C33.8954 6 33 5.10457 33 4C33 2.89543 33.8954 2 35 2C35.0367 2 35.0732 2.00099 35.1095 2.00294C38.355 2.02031 40.1829 2.13354 41.6317 2.87175C43.137 3.63873 44.3609 4.86258 45.1278 6.36787C45.9434 7.96843 45.9961 10.0317 45.9996 13.9577C45.9999 13.9717 46 13.9859 46 14C46 15.1046 45.1046 16 44 16C42.8954 16 42 15.1044 42 13.9998C42 13.9999 42 13.9997 42 13.9998Z" fill="black"/>
<path d="M19 16H16V19H19V16Z" fill="black"/>
<path fill-rule="evenodd" clip-rule="evenodd" d="M10 13.2C10 12.0799 10 11.5198 10.218 11.092C10.4097 10.7157 10.7157 10.4097 11.092 10.218C11.5198 10 12.0799 10 13.2 10H21.8C22.9201 10 23.4802 10 23.908 10.218C24.2843 10.4097 24.5903 10.7157 24.782 11.092C25 11.5198 25 12.0799 25 13.2V21.8C25 22.9201 25 23.4802 24.782 23.908C24.5903 24.2843 24.2843 24.5903 23.908 24.782C23.4802 25 22.9201 25 21.8 25H13.2C12.0799 25 11.5198 25 11.092 24.782C10.7157 24.5903 10.4097 24.2843 10.218 23.908C10 23.4802 10 22.9201 10 21.8V13.2ZM13 13H22V22H13V13Z" fill="black"/>
<path fill-rule="evenodd" clip-rule="evenodd" d="M10.218 29.092C10 29.5198 10 30.0799 10 31.2V34.8C10 35.9201 10 36.4801 10.218 36.908C10.4097 37.2843 10.7157 37.5902 11.092 37.782C11.5198 38 12.0799 38 13.2 38H16.8C17.9201 38 18.4802 38 18.908 37.782C19.2843 37.5902 19.5903 37.2843 19.782 36.908C20 36.4801 20 35.9201 20 34.8V31.2C20 30.0799 20 29.5198 19.782 29.092C19.5903 28.7157 19.2843 28.4097 18.908 28.218C18.4802 28 17.9201 28 16.8 28H13.2C12.0799 28 11.5198 28 11.092 28.218C10.7157 28.4097 10.4097 28.7157 10.218 29.092ZM17 31H13V35H17V31Z" fill="black"/>
<path fill-rule="evenodd" clip-rule="evenodd" d="M28.218 11.092C28 11.5198 28 12.0799 28 13.2V16.8C28 17.9201 28 18.4802 28.218 18.908C28.4097 19.2843 28.7157 19.5903 29.092 19.782C29.5198 20 30.0799 20 31.2 20H34.8C35.9201 20 36.4802 20 36.908 19.782C37.2843 19.5903 37.5903 19.2843 37.782 18.908C38 18.4802 38 17.9201 38 16.8V13.2C38 12.0799 38 11.5198 37.782 11.092C37.5903 10.7157 37.2843 10.4097 36.908 10.218C36.4802 10 35.9201 10 34.8 10H31.2C30.0799 10 29.5198 10 29.092 10.218C28.7157 10.4097 28.4097 10.7157 28.218 11.092ZM35 13H31V17H35V13Z" fill="black"/>
<path d="M32 30.5C32 31.3284 32.6716 32 33.5 32C34.3284 32 35 31.3284 35 30.5V26H36.5C37.3284 26 38 25.3284 38 24.5C38 23.6716 37.3284 23 36.5 23C35.6716 23 35 23.6716 35 24.5V26H33.5C32.6716 26 32 26.6716 32 27.5V30.5Z" fill="black"/>
<path d="M26 32V36.5C26 37.3284 25.3284 38 24.5 38C23.6716 38 23 37.3284 23 36.5V30.5C23 29.6716 23.6716 29 24.5 29H27.5C28.3284 29 29 29.6716 29 30.5C29 31.3284 28.3284 32 27.5 32H26Z" fill="black"/>
<path d="M35 36.5C35 35.6716 35.6716 35 36.5 35C37.3284 35 38 35.6716 38 36.5C38 37.3284 37.3284 38 36.5 38C35.6716 38 35 37.3284 35 36.5Z" fill="black"/>
<path d="M29 36.5C29 35.6716 29.6716 35 30.5 35C31.3284 35 32 35.6716 32 36.5C32 37.3284 31.3284 38 30.5 38C29.6716 38 29 37.3284 29 36.5Z" fill="black"/>
<path d="M29.5 23C28.6716 23 28 23.6716 28 24.5C28 25.3284 28.6716 26 29.5 26C30.3284 26 31 25.3284 31 24.5C31 23.6716 30.3284 23 29.5 23Z" fill="black"/>
</svg>
