<svg width="48" height="48" viewBox="0 0 48 48" fill="none" xmlns="http://www.w3.org/2000/svg">
<path fill-rule="evenodd" clip-rule="evenodd" d="M16 8C17.1046 8 18 7.10457 18 6C18 4.89543 17.1046 4 16 4L15.9696 4.00023C12.036 4.00355 9.97022 4.05561 8.36808 4.87195C6.86278 5.63893 5.63893 6.86278 4.87195 8.36808C4.22458 9.63861 4.05784 11.2007 4.0149 13.7547C4.00506 13.8351 4 13.9169 4 14C4 15.1046 4.89543 16 6 16C7.10457 16 8 15.1046 8 14H8.0001C8.00164 12.0233 8.02676 10.9872 8.43597 10.184C8.81947 9.43139 9.43139 8.81947 10.184 8.43597C11.0397 8 12.1598 8 14.4 8H16ZM4.0149 34.2453C4.05784 36.7993 4.22458 38.3614 4.87195 39.6319C5.63893 41.1372 6.86278 42.3611 8.36808 43.1281C9.97022 43.9444 12.036 43.9965 15.9696 43.9998L16 44C17.1046 44 18 43.1046 18 42C18 40.8954 17.1046 40 16 40H14.4C12.1598 40 11.0397 40 10.184 39.564C9.43139 39.1805 8.81947 38.5686 8.43597 37.816C8.02676 37.0128 8.00164 35.9767 8.0001 34H8C8 32.8954 7.10457 32 6 32C4.89543 32 4 32.8954 4 34C4 34.0831 4.00506 34.1649 4.0149 34.2453ZM32.0304 43.9998C35.964 43.9965 38.0298 43.9444 39.6319 43.1281C41.1372 42.3611 42.3611 41.1372 43.1281 39.6319C43.7754 38.3614 43.9422 36.7993 43.9851 34.2453C43.9949 34.1649 44 34.0831 44 34C44 32.8954 43.1046 32 42 32C40.8954 32 40 32.8954 40 34H39.9999C39.9984 35.9767 39.9732 37.0128 39.564 37.816C39.1805 38.5686 38.5686 39.1805 37.816 39.564C36.9603 40 35.8402 40 33.6 40H32C30.8954 40 30 40.8954 30 42C30 43.1046 30.8954 44 32 44L32.0304 43.9998ZM40 14H39.9999C39.9984 12.0233 39.9732 10.9872 39.564 10.184C39.1805 9.43139 38.5686 8.81947 37.816 8.43597C36.9603 8 35.8402 8 33.6 8H32C30.8954 8 30 7.10457 30 6C30 4.89543 30.8954 4 32 4L32.0304 4.00023C35.964 4.00355 38.0298 4.05561 39.6319 4.87195C41.1372 5.63893 42.3611 6.86278 43.1281 8.36808C43.7754 9.63861 43.9422 11.2007 43.9851 13.7547C43.9949 13.8351 44 13.9169 44 14C44 15.1046 43.1046 16 42 16C40.8954 16 40 15.1046 40 14ZM6 22C4.89543 22 4 22.8954 4 24C4 25.1046 4.89543 26 6 26H42C43.1046 26 44 25.1046 44 24C44 22.8954 43.1046 22 42 22H6Z" fill="black"/>
</svg>
