<svg width="1em" height="1em" viewBox="0 0 48 48"  xmlns="http://www.w3.org/2000/svg">
<path d="M30.8113 33.6397C28.1019 35.7458 24.6974 37 21 37C12.1634 37 5 29.8366 5 21C5 12.1634 12.1634 5 21 5C29.8366 5 37 12.1634 37 21C37 24.6974 35.7458 28.1019 33.6397 30.8113L43.4142 40.5858C44.1953 41.3668 44.1953 42.6332 43.4142 43.4142C42.6332 44.1953 41.3668 44.1953 40.5858 43.4142L30.8113 33.6397ZM33 21C33 14.3726 27.6274 9 21 9C14.3726 9 9 14.3726 9 21C9 27.6274 14.3726 33 21 33C27.6274 33 33 27.6274 33 21Z" fill="currentColor"/>
</svg>
