<svg width="48" height="48" viewBox="0 0 48 48" fill="none" xmlns="http://www.w3.org/2000/svg">
<path fill-rule="evenodd" clip-rule="evenodd" d="M32.0001 24C32.0001 28.4183 28.4183 32 24.0001 32C19.5818 32 16.0001 28.4183 16.0001 24C16.0001 19.5817 19.5818 16 24.0001 16C28.4183 16 32.0001 19.5817 32.0001 24ZM28.0001 24C28.0001 26.2091 26.2092 28 24.0001 28C21.7909 28 20.0001 26.2091 20.0001 24C20.0001 21.7909 21.7909 20 24.0001 20C26.2092 20 28.0001 21.7909 28.0001 24Z" fill="black"/>
<path fill-rule="evenodd" clip-rule="evenodd" d="M8.66443 11.1611C9.58505 10.0626 11.0323 9.60338 12.4571 9.75832C14.5667 9.98772 16.5827 8.82247 17.4388 6.88081C18.0179 5.56741 19.1417 4.5409 20.556 4.29543C21.6748 4.10123 22.8256 4 24.0001 4C25.1746 4 26.3254 4.10124 27.4444 4.29548C28.8586 4.54096 29.9824 5.56749 30.5615 6.88086C31.4176 8.82246 33.4335 9.98772 35.5431 9.75833C36.9679 9.6034 38.415 10.0626 39.3356 11.1611C40.8098 12.92 41.987 14.9363 42.79 17.1329C43.2823 18.4796 42.9552 19.9633 42.1082 21.1203C40.853 22.8349 40.853 25.1651 42.1082 26.8797C42.9552 28.0367 43.2823 29.5204 42.79 30.8671C41.987 33.0637 40.8098 35.08 39.3356 36.839C38.415 37.9374 36.9679 38.3966 35.5431 38.2417C33.4335 38.0123 31.4176 39.1775 30.5615 41.1191C29.9824 42.4325 28.8586 43.459 27.4444 43.7045C26.3254 43.8988 25.1746 44 24.0001 44C22.8256 44 21.6748 43.8988 20.556 43.7046C19.1417 43.4591 18.0179 42.4326 17.4388 41.1192C16.5827 39.1775 14.5667 38.0123 12.4571 38.2417C11.0323 38.3966 9.58505 37.9374 8.66443 36.8389C7.19034 35.08 6.01323 33.0638 5.21026 30.8674C4.71789 29.5206 5.04493 28.0369 5.89197 26.8798C7.14722 25.1651 7.14722 22.8349 5.89197 21.1202C5.04493 19.9631 4.71789 18.4794 5.21026 17.1326C6.01323 14.9362 7.19034 12.92 8.66443 11.1611ZM21.2777 8.2329L21.2821 8.22926C22.1629 8.07881 23.0707 8 24.0001 8C24.9295 8 25.8374 8.07882 26.7182 8.2293L26.7226 8.23293C26.7635 8.26781 26.8384 8.35161 26.9015 8.49465C28.4602 12.0298 32.1307 14.153 35.9755 13.7349C36.1298 13.7181 36.2388 13.7409 36.2891 13.7588L36.2957 13.7612C37.4559 15.1526 38.3826 16.7412 39.0186 18.4668L39.0177 18.4724C39.008 18.5249 38.973 18.6313 38.8807 18.7575C36.5956 21.879 36.5956 26.121 38.8807 29.2425C38.973 29.3687 39.008 29.4751 39.0177 29.5276L39.0186 29.5332C38.3826 31.2588 37.4559 32.8474 36.2957 34.2388L36.2891 34.2412C36.2388 34.2591 36.1298 34.2819 35.9755 34.2651C32.1307 33.847 28.4602 35.9702 26.9015 39.5053C26.8384 39.6484 26.7635 39.7322 26.7226 39.7671L26.7182 39.7707C25.8374 39.9212 24.9295 40 24.0001 40C23.0707 40 22.1629 39.9212 21.2821 39.7707L21.2777 39.7671C21.2368 39.7322 21.1619 39.6484 21.0988 39.5054C19.54 35.9701 15.8695 33.847 12.0247 34.2651C11.8704 34.2819 11.7614 34.2591 11.711 34.2412L11.7044 34.2388C10.5442 32.8474 9.61756 31.2589 8.98154 29.5334L8.98253 29.5277C8.99221 29.4753 9.02716 29.3688 9.11956 29.2426C11.4047 26.121 11.4047 21.879 9.11956 18.7574C9.02716 18.6312 8.99221 18.5247 8.98253 18.4723L8.98154 18.4666C9.61756 16.7411 10.5442 15.1526 11.7044 13.7612L11.711 13.7588C11.7614 13.7409 11.8704 13.7181 12.0247 13.7349C15.8695 14.153 19.54 12.0299 21.0988 8.4946C21.1619 8.35156 21.2368 8.26777 21.2777 8.2329Z" fill="black"/>
</svg>
