<svg width="48" height="48" viewBox="0 0 48 48" fill="none" xmlns="http://www.w3.org/2000/svg">
<path d="M35.4142 4.58578C34.6331 3.80474 33.3668 3.80474 32.5857 4.58579C31.8047 5.36684 31.8047 6.63317 32.5857 7.41422L37.2692 12.0977C32.3105 12.3334 28.0014 13.0667 24.7209 15.035C20.1447 17.7807 17.9999 22.6052 17.9999 30C17.9999 31.1045 18.8954 32 19.9999 32C21.1045 32 21.9999 31.1045 21.9999 30C21.9999 23.3948 23.8552 20.2192 26.7789 18.465C29.1816 17.0234 32.559 16.3596 37.0551 16.1163L32.5857 20.5858C31.8047 21.3668 31.8047 22.6331 32.5857 23.4142C33.3668 24.1952 34.6331 24.1952 35.4142 23.4142L43.4142 15.4142C43.7892 15.0391 43.9999 14.5304 43.9999 14C43.9999 13.4695 43.7892 12.9608 43.4142 12.5858L35.4142 4.58578Z" fill="black"/>
<path d="M15.9999 8.00001L15.7248 7.99991C14.134 7.99905 12.9527 7.99841 11.9294 8.2726C9.16866 9.01234 7.01228 11.1687 6.27254 13.9295C5.99835 14.9528 5.99899 16.1341 5.99985 17.7248L5.99995 30.4826C5.99992 32.0925 5.9999 33.4213 6.08834 34.5037C6.18019 35.6279 6.37732 36.6613 6.8719 37.6319C7.63888 39.1372 8.86273 40.3611 10.368 41.1281C11.3387 41.6226 12.3721 41.8198 13.4963 41.9116C14.5787 42.0001 15.9074 42 17.5173 42H28.4826C30.0925 42 31.4212 42.0001 32.5036 41.9116C33.6278 41.8198 34.6612 41.6226 35.6319 41.1281C37.1372 40.3611 38.361 39.1372 39.128 37.6319C39.6226 36.6613 39.8197 35.6279 39.9116 34.5037C40 33.4213 40 32.0926 40 30.4827V30C40 28.8954 39.1045 28 38 28C36.8954 28 35.9999 28.8954 35.9999 30V30.4C35.9999 32.1132 35.9984 33.2778 35.9248 34.1779C35.8532 35.0548 35.7234 35.5032 35.564 35.816C35.1805 36.5686 34.5686 37.1805 33.8159 37.564C33.5031 37.7234 33.0547 37.8533 32.1779 37.9249C31.2777 37.9985 30.1131 38 28.3999 38H17.5999C15.8868 38 14.7222 37.9985 13.822 37.9249C12.9452 37.8533 12.4968 37.7234 12.184 37.564C11.4313 37.1805 10.8194 36.5686 10.4359 35.816C10.2765 35.5032 10.1467 35.0548 10.0751 34.1779C10.0015 33.2778 9.99995 32.1132 9.99995 30.4V18C9.99995 16.0113 10.0171 15.4093 10.1362 14.9647C10.5061 13.5844 11.5843 12.5062 12.9647 12.1363C13.4092 12.0172 14.0112 12 15.9999 12C17.1045 12 17.9999 11.1046 17.9999 10C17.9999 8.89544 17.1045 8.00001 15.9999 8.00001Z" fill="black"/>
</svg>
