<svg width="48" height="48" viewBox="0 0 48 48" fill="none" xmlns="http://www.w3.org/2000/svg">
<path fill-rule="evenodd" clip-rule="evenodd" d="M18 30H15.6C12.2397 30 10.5595 30 9.27606 29.346C8.14708 28.7708 7.2292 27.8529 6.65396 26.7239C6 25.4405 6 23.7603 6 20.4V15.6C6 12.2397 6 10.5595 6.65396 9.27606C7.2292 8.14708 8.14708 7.2292 9.27606 6.65396C10.5595 6 12.2397 6 15.6 6H20.4C23.7603 6 25.4405 6 26.7239 6.65396C27.8529 7.2292 28.7708 8.14708 29.346 9.27606C30 10.5595 30 12.2397 30 15.6V18H32.4C35.7603 18 37.4405 18 38.7239 18.654C39.8529 19.2292 40.7708 20.1471 41.346 21.2761C42 22.5595 42 24.2397 42 27.6V32.4C42 35.7603 42 37.4405 41.346 38.7239C40.7708 39.8529 39.8529 40.7708 38.7239 41.346C37.4405 42 35.7603 42 32.4 42H27.6C24.2397 42 22.5595 42 21.2761 41.346C20.1471 40.7708 19.2292 39.8529 18.654 38.7239C18 37.4405 18 35.7603 18 32.4V30ZM15.6 10H20.4C22.1462 10 23.2152 10.0031 24.0151 10.0685C24.3877 10.0989 24.6131 10.1371 24.75 10.1694C24.8151 10.1847 24.8552 10.1976 24.8768 10.2053C24.8976 10.2127 24.908 10.218 24.908 10.218C25.2843 10.4097 25.5903 10.7157 25.782 11.092C25.782 11.092 25.7873 11.1024 25.7947 11.1232C25.8024 11.1448 25.8153 11.1849 25.8306 11.25C25.8629 11.3869 25.9011 11.6123 25.9315 11.9849C25.9969 12.7848 26 13.8538 26 15.6V18.0034C23.6701 18.0196 22.3375 18.1132 21.2761 18.654C20.1471 19.2292 19.2292 20.1471 18.654 21.2761C18.1132 22.3375 18.0196 23.6701 18.0034 26H15.6C13.8538 26 12.7848 25.9969 11.9849 25.9315C11.6123 25.9011 11.3869 25.8629 11.25 25.8306C11.1849 25.8153 11.1448 25.8024 11.1232 25.7947C11.1024 25.7873 11.092 25.782 11.092 25.782C10.7157 25.5903 10.4097 25.2843 10.218 24.908C10.218 24.908 10.2127 24.8976 10.2053 24.8768C10.1976 24.8552 10.1847 24.8151 10.1694 24.75C10.1371 24.6131 10.0989 24.3877 10.0685 24.0151C10.0031 23.2152 10 22.1462 10 20.4V15.6C10 13.8538 10.0031 12.7848 10.0685 11.9849C10.0989 11.6123 10.1371 11.3869 10.1694 11.25C10.1847 11.1849 10.1976 11.1448 10.2053 11.1232C10.2127 11.1024 10.218 11.092 10.218 11.092C10.4097 10.7157 10.7157 10.4097 11.092 10.218C11.092 10.218 11.1024 10.2127 11.1232 10.2053C11.1448 10.1976 11.1849 10.1847 11.25 10.1694C11.3869 10.1371 11.6123 10.0989 11.9849 10.0685C12.7848 10.0031 13.8538 10 15.6 10Z" fill="black"/>
</svg>
