<svg width="1em" height="1em" viewBox="0 0 48 48" fill="none" xmlns="http://www.w3.org/2000/svg">
<path fill-rule="evenodd" clip-rule="evenodd" d="M26.4046 1.51318C29.6564 2.95839 31.4325 6.5011 30.6451 9.97132L29.2772 16H39.4577C43.3162 16 46.1717 19.5895 45.304 23.3492L42.431 35.7989C41.5934 39.4287 38.3611 42 34.6359 42H11C6.58172 42 3 38.4183 3 34V26C3 21.5817 6.58172 18 11 18H15L21.4868 3.40464C22.3225 1.52431 24.5243 0.677476 26.4046 1.51318ZM25.3763 15.1149C25.1072 16.3011 25.3924 17.5454 26.1514 18.496C26.9105 19.4465 28.0608 20 29.2772 20H39.4577C40.7439 20 41.6957 21.1965 41.4065 22.4497L38.5335 34.8994C38.1146 36.7144 36.4985 38 34.6359 38H17V21.4641C17.7179 21.0496 18.3045 20.4137 18.6552 19.6246L25.0263 5.28968C26.3746 6.02129 27.0886 7.56871 26.7442 9.0862L25.3763 15.1149ZM13 22H11C8.79086 22 7 23.7909 7 26V34C7 36.2091 8.79086 38 11 38H13V22Z" fill="currentColor"/>
</svg>
