<svg width="1em" height="1em" viewBox="0 0 48 48" fill="none" xmlns="http://www.w3.org/2000/svg">
<path d="M22 22C22 20.8954 21.1046 20 20 20C18.8954 20 18 20.8954 18 22V34C18 35.1046 18.8954 36 20 36C21.1046 36 22 35.1046 22 34V22Z" fill="currentColor"/>
<path d="M28 20C29.1046 20 30 20.8954 30 22V34C30 35.1046 29.1046 36 28 36C26.8954 36 26 35.1046 26 34V22C26 20.8954 26.8954 20 28 20Z" fill="currentColor"/>
<path fill-rule="evenodd" clip-rule="evenodd" d="M23.7248 3.99991H24.2751C25.8659 3.99905 27.0472 3.99841 28.0705 4.2726C30.8312 5.01234 32.9876 7.16872 33.7274 9.92946C33.8921 10.5444 33.9576 11.2164 33.9835 12H37.9787C37.9915 11.9999 38.0043 11.9999 38.0171 12H42C43.1046 12 44 12.8954 44 14C44 15.1046 43.1046 16 42 16H39.8622L38.8382 30.3364C38.6936 32.3614 38.5766 33.9984 38.376 35.3227C38.169 36.6891 37.8527 37.8828 37.2235 38.9788C36.2205 40.7258 34.7133 42.1292 32.8993 43.0051C31.7587 43.5559 30.5366 43.7856 29.1483 43.8944C27.8003 44 26.1396 44 24.0819 44H23.9182C21.8606 44 20.1996 44 18.8516 43.8944C17.4633 43.7856 16.2412 43.5559 15.1006 43.0051C13.2866 42.1292 11.7794 40.7258 10.7765 38.9788C10.1473 37.8828 9.83092 36.6891 9.62392 35.3227C9.42329 33.9984 9.30638 32.3614 9.16175 30.3364L8.13773 16H6C4.89543 16 4 15.1046 4 14C4 12.8954 4.89543 12 6 12H9.98279C9.99564 11.9999 10.0085 11.9999 10.0213 12H14.0164C14.0422 11.2164 14.1078 10.5444 14.2725 9.92946C15.0123 7.16872 17.1687 5.01234 19.9294 4.2726C20.9527 3.99841 22.134 3.99905 23.7248 3.99991ZM15.9937 16C15.9958 16 15.9979 16 15.9999 16C16.002 16 16.0041 16 16.0062 16H35.852L34.8542 29.9695C34.7023 32.0957 34.5952 33.5743 34.4211 34.7236C34.2507 35.8487 34.0366 36.4959 33.7545 36.9873C33.1527 38.0355 32.2484 38.8775 31.16 39.4031C30.6523 39.6482 29.9867 39.8164 28.8358 39.9066C27.6624 39.9986 26.1586 40 24 40C21.8413 40 20.3375 39.9986 19.1641 39.9066C18.0133 39.8164 17.3477 39.6482 16.84 39.4031C15.7515 38.8775 14.8472 38.0355 14.2454 36.9873C13.9633 36.4959 13.7492 35.8487 13.5788 34.7236C13.4047 33.5743 13.2976 32.0957 13.1457 29.9695L12.1479 16H15.9937ZM18.0197 12C18.038 11.4849 18.0726 11.2023 18.1362 10.9647C18.5061 9.58437 19.5843 8.50618 20.9647 8.13631C21.4092 8.01719 22.0112 8.00001 23.9999 8.00001C25.9887 8.00001 26.5907 8.01719 27.0352 8.13631C28.4156 8.50618 29.4938 9.58437 29.8637 10.9647C29.9273 11.2023 29.9619 11.4849 29.9802 12H18.0197Z" fill="currentColor"/>
</svg>
